G75*
G70*
%OFA0B0*%
%FSLAX24Y24*%
%IPPOS*%
%LPD*%
%AMOC8*
5,1,8,0,0,1.08239X$1,22.5*
%
%ADD10C,0.0000*%
%ADD11C,0.0520*%
%ADD12OC8,0.0520*%
%ADD13C,0.0660*%
%ADD14R,0.0650X0.0650*%
%ADD15C,0.0650*%
%ADD16C,0.0600*%
%ADD17C,0.0515*%
%ADD18C,0.1122*%
%ADD19R,0.0740X0.0740*%
%ADD20C,0.0740*%
%ADD21C,0.0160*%
%ADD22C,0.0356*%
D10*
X000181Y000181D02*
X000181Y019866D01*
X019866Y019866D01*
X019866Y000181D01*
X000181Y000181D01*
D11*
X008421Y001681D02*
X008941Y001681D01*
X008941Y002681D02*
X008421Y002681D01*
X008421Y003681D02*
X008941Y003681D01*
X008941Y004681D02*
X008421Y004681D01*
X008421Y005681D02*
X008941Y005681D01*
X008941Y006681D02*
X008421Y006681D01*
X008421Y007681D02*
X008941Y007681D01*
X008941Y008681D02*
X008421Y008681D01*
X008421Y009681D02*
X008941Y009681D01*
X008941Y010681D02*
X008421Y010681D01*
X008421Y011681D02*
X008941Y011681D01*
X008941Y012681D02*
X008421Y012681D01*
X008421Y013681D02*
X008941Y013681D01*
X008941Y014681D02*
X008421Y014681D01*
X011421Y014681D02*
X011941Y014681D01*
X011941Y013681D02*
X011421Y013681D01*
X011421Y012681D02*
X011941Y012681D01*
X011941Y011681D02*
X011421Y011681D01*
X011421Y010681D02*
X011941Y010681D01*
X011941Y009681D02*
X011421Y009681D01*
X011421Y008681D02*
X011941Y008681D01*
X011941Y007681D02*
X011421Y007681D01*
X011421Y006681D02*
X011941Y006681D01*
X011941Y005681D02*
X011421Y005681D01*
X011421Y004681D02*
X011941Y004681D01*
X011941Y003681D02*
X011421Y003681D01*
X011421Y002681D02*
X011941Y002681D01*
X011941Y001681D02*
X011421Y001681D01*
D12*
X015181Y002681D03*
X016681Y002681D03*
X016681Y003681D03*
X016681Y004681D03*
X015181Y006681D03*
X015181Y007681D03*
X015181Y008681D03*
X016681Y008681D03*
X017431Y013431D03*
X018931Y013431D03*
X016181Y015681D03*
X017431Y017431D03*
X018931Y017431D03*
X014181Y014681D03*
X014181Y013681D03*
X012181Y015681D03*
X012181Y017681D03*
X012181Y018681D03*
X010181Y017181D03*
X010181Y016181D03*
X003681Y005181D03*
X002681Y005181D03*
X005181Y004181D03*
X006181Y004181D03*
D13*
X006181Y005681D03*
X006181Y006681D03*
X006181Y007681D03*
X014431Y018681D03*
X015931Y018681D03*
X017431Y018681D03*
X018931Y018681D03*
D14*
X008681Y017181D03*
X013681Y006681D03*
D15*
X013681Y005681D03*
X008681Y016181D03*
D16*
X006981Y016181D02*
X006381Y016181D01*
X006381Y017181D02*
X006981Y017181D01*
X006981Y018181D02*
X006381Y018181D01*
D17*
X003351Y016081D03*
X002681Y016081D03*
X002351Y016701D03*
X001981Y016081D03*
X003041Y016701D03*
D18*
X004118Y018181D03*
X001244Y018181D03*
D19*
X000681Y014181D03*
X000681Y009181D03*
X000681Y004181D03*
X007181Y001181D03*
X019181Y004181D03*
X019181Y009181D03*
D20*
X019181Y008181D03*
X019181Y007181D03*
X019181Y006181D03*
X019181Y003181D03*
X019181Y002181D03*
X019181Y001181D03*
X006181Y001181D03*
X005181Y001181D03*
X004181Y001181D03*
X003181Y001181D03*
X000681Y001181D03*
X000681Y002181D03*
X000681Y003181D03*
X000681Y006181D03*
X000681Y007181D03*
X000681Y008181D03*
X000681Y011181D03*
X000681Y012181D03*
X000681Y013181D03*
D21*
X002681Y013181D01*
X003181Y013681D01*
X008681Y013681D01*
X008330Y013221D02*
X009033Y013221D01*
X009202Y013291D01*
X009331Y013421D01*
X009401Y013590D01*
X009401Y013773D01*
X009331Y013942D01*
X009202Y014071D01*
X009033Y014141D01*
X008330Y014141D01*
X008161Y014071D01*
X008051Y013961D01*
X003126Y013961D01*
X003023Y013919D01*
X002944Y013840D01*
X002565Y013461D01*
X001182Y013461D01*
X001165Y013504D01*
X001057Y013611D01*
X001134Y013611D01*
X001251Y013729D01*
X001251Y013901D01*
X002626Y013901D01*
X002737Y013901D01*
X002840Y013944D01*
X003297Y014401D01*
X008051Y014401D01*
X008161Y014291D01*
X008330Y014221D01*
X009033Y014221D01*
X009202Y014291D01*
X009312Y014401D01*
X010126Y014401D01*
X010237Y014401D01*
X010340Y014444D01*
X011721Y015826D01*
X011721Y015491D01*
X011991Y015221D01*
X012372Y015221D01*
X012641Y015491D01*
X012641Y015872D01*
X012372Y016141D01*
X012037Y016141D01*
X012797Y016901D01*
X014876Y016901D01*
X014987Y016901D01*
X015090Y016944D01*
X016090Y017944D01*
X016169Y018023D01*
X016211Y018126D01*
X016211Y018224D01*
X016232Y018232D01*
X016381Y018381D01*
X016461Y018576D01*
X016461Y018787D01*
X016381Y018982D01*
X016232Y019131D01*
X016037Y019211D01*
X015826Y019211D01*
X015631Y019131D01*
X015482Y018982D01*
X015401Y018787D01*
X015401Y018576D01*
X015482Y018381D01*
X015609Y018255D01*
X014815Y017461D01*
X012626Y017461D01*
X012602Y017452D01*
X012641Y017491D01*
X012641Y017872D01*
X012372Y018141D01*
X011991Y018141D01*
X011721Y017872D01*
X011721Y017491D01*
X011991Y017221D01*
X012326Y017221D01*
X010065Y014961D01*
X009312Y014961D01*
X009202Y015071D01*
X009033Y015141D01*
X008330Y015141D01*
X008161Y015071D01*
X008051Y014961D01*
X003126Y014961D01*
X003023Y014919D01*
X002944Y014840D01*
X002565Y014461D01*
X001251Y014461D01*
X001251Y014634D01*
X001134Y014751D01*
X000381Y014751D01*
X000381Y019666D01*
X019666Y019666D01*
X019666Y009719D01*
X019634Y009751D01*
X018729Y009751D01*
X018611Y009634D01*
X018611Y009461D01*
X017126Y009461D01*
X017023Y009419D01*
X016944Y009340D01*
X016745Y009141D01*
X016491Y009141D01*
X016221Y008872D01*
X016221Y008491D01*
X016491Y008221D01*
X016872Y008221D01*
X017141Y008491D01*
X017141Y008745D01*
X017297Y008901D01*
X018611Y008901D01*
X018611Y008729D01*
X018729Y008611D01*
X018805Y008611D01*
X018698Y008504D01*
X018611Y008295D01*
X018611Y008068D01*
X018698Y007859D01*
X018859Y007698D01*
X018899Y007681D01*
X018859Y007665D01*
X018698Y007504D01*
X018611Y007295D01*
X018611Y007068D01*
X018698Y006859D01*
X018859Y006698D01*
X018899Y006681D01*
X018859Y006665D01*
X018698Y006504D01*
X018680Y006461D01*
X016626Y006461D01*
X016523Y006419D01*
X016444Y006340D01*
X015065Y004961D01*
X012312Y004961D01*
X012202Y005071D01*
X012033Y005141D01*
X011330Y005141D01*
X011161Y005071D01*
X011031Y004942D01*
X010961Y004773D01*
X010961Y004590D01*
X011031Y004421D01*
X011161Y004291D01*
X011330Y004221D01*
X012033Y004221D01*
X012202Y004291D01*
X012312Y004401D01*
X015126Y004401D01*
X015237Y004401D01*
X015340Y004444D01*
X016797Y005901D01*
X018680Y005901D01*
X018698Y005859D01*
X018859Y005698D01*
X019068Y005611D01*
X019295Y005611D01*
X019504Y005698D01*
X019665Y005859D01*
X019666Y005863D01*
X019666Y004719D01*
X019634Y004751D01*
X018729Y004751D01*
X018611Y004634D01*
X018611Y004461D01*
X017112Y004461D01*
X017141Y004491D01*
X017141Y004872D01*
X016872Y005141D01*
X016491Y005141D01*
X016221Y004872D01*
X016221Y004491D01*
X016251Y004461D01*
X016126Y004461D01*
X016023Y004419D01*
X015944Y004340D01*
X015565Y003961D01*
X012312Y003961D01*
X012202Y004071D01*
X012033Y004141D01*
X011330Y004141D01*
X011161Y004071D01*
X011031Y003942D01*
X010961Y003773D01*
X010961Y003590D01*
X011031Y003421D01*
X011161Y003291D01*
X011330Y003221D01*
X012033Y003221D01*
X012202Y003291D01*
X012312Y003401D01*
X015626Y003401D01*
X015737Y003401D01*
X015840Y003444D01*
X016221Y003826D01*
X016221Y003491D01*
X016491Y003221D01*
X016872Y003221D01*
X017141Y003491D01*
X017141Y003872D01*
X017112Y003901D01*
X018611Y003901D01*
X018611Y003729D01*
X018729Y003611D01*
X018805Y003611D01*
X018698Y003504D01*
X018611Y003295D01*
X018611Y003068D01*
X018629Y003025D01*
X017815Y002211D01*
X015922Y002211D01*
X015641Y002492D01*
X015641Y002872D01*
X015372Y003141D01*
X014991Y003141D01*
X014811Y002961D01*
X012312Y002961D01*
X012202Y003071D01*
X012033Y003141D01*
X011330Y003141D01*
X011161Y003071D01*
X011031Y002942D01*
X010961Y002773D01*
X010961Y002590D01*
X011031Y002421D01*
X011161Y002291D01*
X011330Y002221D01*
X012033Y002221D01*
X012202Y002291D01*
X012312Y002401D01*
X014811Y002401D01*
X012312Y002401D01*
X012084Y002242D02*
X014970Y002242D01*
X014991Y002221D02*
X014811Y002401D01*
X014991Y002221D02*
X015120Y002221D01*
X015569Y001773D01*
X015648Y001694D01*
X015751Y001651D01*
X017876Y001651D01*
X017987Y001651D01*
X018090Y001694D01*
X018633Y002238D01*
X018631Y002225D01*
X018631Y002201D01*
X019161Y002201D01*
X019161Y002161D01*
X018631Y002161D01*
X018631Y002138D01*
X018645Y002053D01*
X018672Y001970D01*
X018711Y001893D01*
X018762Y001823D01*
X018823Y001762D01*
X018893Y001711D01*
X018928Y001693D01*
X018859Y001665D01*
X018698Y001504D01*
X018680Y001461D01*
X012797Y001461D01*
X012342Y001917D01*
X012331Y001942D01*
X012202Y002071D01*
X012033Y002141D01*
X011330Y002141D01*
X011161Y002071D01*
X011051Y001961D01*
X010297Y001961D01*
X009961Y002297D01*
X009961Y003565D01*
X010340Y003944D01*
X010419Y004023D01*
X010461Y004126D01*
X010461Y006565D01*
X010797Y006901D01*
X011015Y006901D01*
X010961Y006773D01*
X010961Y006590D01*
X011031Y006421D01*
X011161Y006291D01*
X011330Y006221D01*
X012033Y006221D01*
X012202Y006291D01*
X012312Y006401D01*
X013156Y006401D01*
X013156Y006274D01*
X013274Y006156D01*
X013509Y006156D01*
X013488Y006149D01*
X013417Y006113D01*
X013352Y006067D01*
X013296Y006010D01*
X013249Y005946D01*
X013213Y005875D01*
X013189Y005800D01*
X013176Y005721D01*
X013176Y005682D01*
X013681Y005682D01*
X013681Y005681D01*
X013682Y005681D01*
X013682Y005682D01*
X014186Y005682D01*
X014186Y005721D01*
X014174Y005800D01*
X014149Y005875D01*
X014113Y005946D01*
X014067Y006010D01*
X014010Y006067D01*
X013946Y006113D01*
X013875Y006149D01*
X013853Y006156D01*
X014089Y006156D01*
X014206Y006274D01*
X014206Y007089D01*
X014089Y007206D01*
X013274Y007206D01*
X013156Y007089D01*
X013156Y006961D01*
X012857Y006961D01*
X013340Y007444D01*
X013419Y007523D01*
X013461Y007626D01*
X013461Y008626D01*
X013461Y008737D01*
X013419Y008840D01*
X012919Y009340D01*
X012840Y009419D01*
X012737Y009461D01*
X012348Y009461D01*
X012401Y009590D01*
X012401Y009773D01*
X012331Y009942D01*
X012202Y010071D01*
X012033Y010141D01*
X011330Y010141D01*
X011161Y010071D01*
X011031Y009942D01*
X010961Y009773D01*
X010961Y009590D01*
X011015Y009461D01*
X010961Y009461D01*
X010961Y009737D01*
X010919Y009840D01*
X010840Y009919D01*
X010340Y010419D01*
X010237Y010461D01*
X010126Y010461D01*
X009348Y010461D01*
X009401Y010590D01*
X009401Y010773D01*
X009331Y010942D01*
X009202Y011071D01*
X009033Y011141D01*
X008330Y011141D01*
X008161Y011071D01*
X008051Y010961D01*
X004126Y010961D01*
X004023Y010919D01*
X003944Y010840D01*
X002565Y009461D01*
X001251Y009461D01*
X001251Y009634D01*
X001134Y009751D01*
X000381Y009751D01*
X000381Y010689D01*
X000568Y010611D01*
X000795Y010611D01*
X001004Y010698D01*
X001165Y010859D01*
X001182Y010901D01*
X002427Y010901D01*
X002467Y010861D01*
X002606Y010803D01*
X002757Y010803D01*
X002896Y010861D01*
X003002Y010967D01*
X003059Y011106D01*
X003059Y011164D01*
X003297Y011401D01*
X008051Y011401D01*
X008161Y011291D01*
X008330Y011221D01*
X009033Y011221D01*
X009202Y011291D01*
X009331Y011421D01*
X009401Y011590D01*
X009401Y011773D01*
X009331Y011942D01*
X009202Y012071D01*
X009033Y012141D01*
X008330Y012141D01*
X008161Y012071D01*
X008051Y011961D01*
X003126Y011961D01*
X003023Y011919D01*
X002944Y011840D01*
X002664Y011559D01*
X002606Y011559D01*
X002467Y011502D01*
X002427Y011461D01*
X001182Y011461D01*
X001165Y011504D01*
X001004Y011665D01*
X000964Y011681D01*
X001004Y011698D01*
X001165Y011859D01*
X001182Y011901D01*
X002626Y011901D01*
X002737Y011901D01*
X002840Y011944D01*
X003297Y012401D01*
X008051Y012401D01*
X008161Y012291D01*
X008330Y012221D01*
X009033Y012221D01*
X009202Y012291D01*
X009331Y012421D01*
X009401Y012590D01*
X009401Y012773D01*
X009331Y012942D01*
X009202Y013071D01*
X009033Y013141D01*
X008330Y013141D01*
X008161Y013071D01*
X008051Y012961D01*
X003126Y012961D01*
X003023Y012919D01*
X002944Y012840D01*
X002565Y012461D01*
X001182Y012461D01*
X001165Y012504D01*
X001004Y012665D01*
X000964Y012681D01*
X001004Y012698D01*
X001165Y012859D01*
X001182Y012901D01*
X002626Y012901D01*
X002737Y012901D01*
X002840Y012944D01*
X003297Y013401D01*
X008051Y013401D01*
X008161Y013291D01*
X008330Y013221D01*
X008112Y013341D02*
X003236Y013341D01*
X003078Y013182D02*
X015285Y013182D01*
X015443Y013023D02*
X012250Y013023D01*
X012202Y013071D02*
X012033Y013141D01*
X011330Y013141D01*
X011161Y013071D01*
X011031Y012942D01*
X010961Y012773D01*
X010961Y012590D01*
X011031Y012421D01*
X011161Y012291D01*
X011330Y012221D01*
X012033Y012221D01*
X012202Y012291D01*
X012331Y012421D01*
X012401Y012590D01*
X012401Y012773D01*
X012331Y012942D01*
X012202Y013071D01*
X012110Y013274D02*
X012172Y013305D01*
X012228Y013346D01*
X012277Y013395D01*
X012318Y013451D01*
X012349Y013512D01*
X012371Y013578D01*
X012381Y013647D01*
X012381Y013681D01*
X011682Y013681D01*
X011682Y013682D01*
X011681Y013682D01*
X011681Y014121D01*
X011387Y014121D01*
X011318Y014111D01*
X011252Y014089D01*
X011191Y014058D01*
X011135Y014017D01*
X011086Y013968D01*
X011045Y013912D01*
X011014Y013850D01*
X010992Y013784D01*
X010981Y013716D01*
X010981Y013682D01*
X011681Y013682D01*
X011681Y013681D01*
X011682Y013681D01*
X011682Y013241D01*
X011976Y013241D01*
X012044Y013252D01*
X012110Y013274D01*
X012221Y013341D02*
X013872Y013341D01*
X013991Y013221D02*
X013721Y013491D01*
X013721Y013872D01*
X013991Y014141D01*
X014372Y014141D01*
X014552Y013961D01*
X015126Y013961D01*
X015237Y013961D01*
X015340Y013919D01*
X015797Y013461D01*
X016971Y013461D01*
X016971Y013622D01*
X017241Y013891D01*
X017622Y013891D01*
X017802Y013711D01*
X018561Y013711D01*
X018741Y013891D01*
X019122Y013891D01*
X019391Y013622D01*
X019391Y013241D01*
X019122Y012971D01*
X018741Y012971D01*
X018561Y013151D01*
X017802Y013151D01*
X017622Y012971D01*
X017367Y012971D01*
X017340Y012944D01*
X017237Y012901D01*
X017126Y012901D01*
X015626Y012901D01*
X015523Y012944D01*
X015444Y013023D01*
X015065Y013401D01*
X014552Y013401D01*
X014372Y013221D01*
X013991Y013221D01*
X013721Y013499D02*
X012342Y013499D01*
X012381Y013658D02*
X013721Y013658D01*
X013721Y013816D02*
X012360Y013816D01*
X012371Y013784D02*
X012349Y013850D01*
X012318Y013912D01*
X012277Y013968D01*
X012228Y014017D01*
X012172Y014058D01*
X012110Y014089D01*
X012044Y014111D01*
X011976Y014121D01*
X011682Y014121D01*
X011682Y013682D01*
X012381Y013682D01*
X012381Y013716D01*
X012371Y013784D01*
X012270Y013975D02*
X013824Y013975D01*
X013983Y014133D02*
X009053Y014133D01*
X009202Y014292D02*
X011161Y014292D01*
X011161Y014291D02*
X011330Y014221D01*
X012033Y014221D01*
X012202Y014291D01*
X012331Y014421D01*
X012401Y014590D01*
X012401Y014773D01*
X012331Y014942D01*
X012202Y015071D01*
X012033Y015141D01*
X011330Y015141D01*
X011161Y015071D01*
X011031Y014942D01*
X010961Y014773D01*
X010961Y014590D01*
X011031Y014421D01*
X011161Y014291D01*
X011019Y014450D02*
X010346Y014450D01*
X010505Y014609D02*
X010961Y014609D01*
X010961Y014767D02*
X010663Y014767D01*
X010822Y014926D02*
X011025Y014926D01*
X010980Y015084D02*
X011193Y015084D01*
X011139Y015243D02*
X011969Y015243D01*
X011811Y015402D02*
X011297Y015402D01*
X011456Y015560D02*
X011721Y015560D01*
X011721Y015719D02*
X011615Y015719D01*
X011140Y016036D02*
X010621Y016036D01*
X010621Y015999D02*
X010621Y016181D01*
X010182Y016181D01*
X010182Y016182D01*
X010181Y016182D01*
X010181Y016621D01*
X009999Y016621D01*
X009741Y016364D01*
X009741Y016182D01*
X010181Y016182D01*
X010181Y016181D01*
X009741Y016181D01*
X009741Y015999D01*
X009999Y015741D01*
X010181Y015741D01*
X010181Y016181D01*
X010182Y016181D01*
X010182Y015741D01*
X010364Y015741D01*
X010621Y015999D01*
X010499Y015877D02*
X010981Y015877D01*
X010823Y015719D02*
X008886Y015719D01*
X008875Y015713D02*
X008946Y015749D01*
X009010Y015796D01*
X009067Y015852D01*
X009113Y015917D01*
X009149Y015988D01*
X009174Y016063D01*
X009186Y016142D01*
X009186Y016181D01*
X008682Y016181D01*
X008682Y016182D01*
X009186Y016182D01*
X009186Y016221D01*
X009174Y016300D01*
X009149Y016375D01*
X009113Y016446D01*
X009067Y016510D01*
X009010Y016567D01*
X008946Y016613D01*
X008875Y016649D01*
X008853Y016656D01*
X009089Y016656D01*
X009206Y016774D01*
X009206Y017589D01*
X009089Y017706D01*
X008274Y017706D01*
X008156Y017589D01*
X008156Y016774D01*
X008274Y016656D01*
X008509Y016656D01*
X008488Y016649D01*
X008417Y016613D01*
X008352Y016567D01*
X008296Y016510D01*
X008249Y016446D01*
X008213Y016375D01*
X008189Y016300D01*
X008176Y016221D01*
X008176Y016182D01*
X008681Y016182D01*
X008681Y016181D01*
X008176Y016181D01*
X008176Y016142D01*
X008189Y016063D01*
X008213Y015988D01*
X008249Y015917D01*
X008296Y015852D01*
X008352Y015796D01*
X008417Y015749D01*
X008488Y015713D01*
X008563Y015689D01*
X008642Y015676D01*
X008681Y015676D01*
X008681Y016181D01*
X008682Y016181D01*
X008682Y015676D01*
X008721Y015676D01*
X008800Y015689D01*
X008875Y015713D01*
X008682Y015719D02*
X008681Y015719D01*
X008681Y015877D02*
X008682Y015877D01*
X008681Y016036D02*
X008682Y016036D01*
X008477Y015719D02*
X007111Y015719D01*
X007094Y015713D02*
X007166Y015737D01*
X007233Y015771D01*
X007294Y015815D01*
X007348Y015869D01*
X007392Y015930D01*
X007426Y015997D01*
X007450Y016069D01*
X007461Y016144D01*
X007461Y016161D01*
X006702Y016161D01*
X006702Y016201D01*
X007461Y016201D01*
X007461Y016219D01*
X007450Y016294D01*
X007426Y016366D01*
X007392Y016433D01*
X007348Y016494D01*
X007294Y016548D01*
X007233Y016592D01*
X007166Y016626D01*
X007094Y016650D01*
X007019Y016661D01*
X006701Y016661D01*
X006701Y016202D01*
X006661Y016202D01*
X006661Y016661D01*
X006344Y016661D01*
X006269Y016650D01*
X006197Y016626D01*
X006130Y016592D01*
X006069Y016548D01*
X006015Y016494D01*
X005971Y016433D01*
X005937Y016366D01*
X005913Y016294D01*
X005901Y016219D01*
X005901Y016201D01*
X006661Y016201D01*
X006661Y016161D01*
X006701Y016161D01*
X006701Y015701D01*
X007019Y015701D01*
X007094Y015713D01*
X007354Y015877D02*
X008278Y015877D01*
X008198Y016036D02*
X007439Y016036D01*
X007430Y016353D02*
X008206Y016353D01*
X008176Y016194D02*
X006702Y016194D01*
X006661Y016194D02*
X005590Y016194D01*
X005432Y016036D02*
X005924Y016036D01*
X005913Y016069D02*
X005937Y015997D01*
X005971Y015930D01*
X006015Y015869D01*
X006069Y015815D01*
X006130Y015771D01*
X006197Y015737D01*
X006269Y015713D01*
X006344Y015701D01*
X006661Y015701D01*
X006661Y016161D01*
X005901Y016161D01*
X005901Y016144D01*
X005913Y016069D01*
X006009Y015877D02*
X003762Y015877D01*
X003772Y015901D02*
X005237Y015901D01*
X005340Y015944D01*
X005419Y016023D01*
X005919Y016523D01*
X005961Y016626D01*
X005961Y016737D01*
X005961Y016894D01*
X006098Y016758D01*
X006282Y016681D01*
X007081Y016681D01*
X007265Y016758D01*
X007405Y016898D01*
X007481Y017082D01*
X007481Y017281D01*
X007405Y017465D01*
X007265Y017605D01*
X007081Y017681D01*
X006282Y017681D01*
X006098Y017605D01*
X005961Y017468D01*
X005961Y017565D01*
X006137Y017741D01*
X006282Y017681D01*
X007081Y017681D01*
X007265Y017758D01*
X007405Y017898D01*
X007481Y018082D01*
X007481Y018281D01*
X007405Y018465D01*
X007265Y018605D01*
X007081Y018681D01*
X006282Y018681D01*
X006098Y018605D01*
X005958Y018465D01*
X005881Y018281D01*
X005881Y018277D01*
X005523Y017919D01*
X005444Y017840D01*
X005401Y017737D01*
X005401Y016797D01*
X005065Y016461D01*
X003618Y016461D01*
X003611Y016469D01*
X003465Y016529D01*
X003499Y016610D01*
X003499Y016792D01*
X003429Y016961D01*
X003301Y017089D01*
X003132Y017159D01*
X002950Y017159D01*
X002782Y017089D01*
X002696Y017003D01*
X002611Y017089D01*
X002442Y017159D01*
X002260Y017159D01*
X002092Y017089D01*
X001964Y016961D01*
X001894Y016792D01*
X001894Y016610D01*
X001933Y016517D01*
X001879Y016508D01*
X001813Y016487D01*
X001752Y016456D01*
X001696Y016415D01*
X001648Y016366D01*
X001607Y016311D01*
X001576Y016249D01*
X001555Y016184D01*
X001544Y016116D01*
X001544Y016082D01*
X001981Y016082D01*
X001981Y016081D01*
X001544Y016081D01*
X001544Y016047D01*
X001555Y015979D01*
X001576Y015913D01*
X001607Y015852D01*
X001648Y015796D01*
X001696Y015748D01*
X001752Y015707D01*
X001813Y015676D01*
X001879Y015655D01*
X001947Y015644D01*
X001981Y015644D01*
X001981Y016081D01*
X001982Y016081D01*
X001982Y015644D01*
X002016Y015644D01*
X002084Y015655D01*
X002149Y015676D01*
X002211Y015707D01*
X002266Y015748D01*
X002315Y015796D01*
X002317Y015799D01*
X002422Y015694D01*
X002590Y015624D01*
X002772Y015624D01*
X002941Y015694D01*
X003016Y015769D01*
X003092Y015694D01*
X003260Y015624D01*
X003442Y015624D01*
X003611Y015694D01*
X003739Y015822D01*
X003772Y015901D01*
X003636Y015719D02*
X006252Y015719D01*
X006661Y015719D02*
X006701Y015719D01*
X006701Y015877D02*
X006661Y015877D01*
X006661Y016036D02*
X006701Y016036D01*
X006701Y016353D02*
X006661Y016353D01*
X006661Y016511D02*
X006701Y016511D01*
X007330Y016511D02*
X008297Y016511D01*
X008260Y016670D02*
X005961Y016670D01*
X005961Y016828D02*
X006027Y016828D01*
X006033Y016511D02*
X005907Y016511D01*
X005932Y016353D02*
X005749Y016353D01*
X005681Y016681D02*
X005181Y016181D01*
X003451Y016181D01*
X003351Y016081D01*
X003509Y016511D02*
X005115Y016511D01*
X005274Y016670D02*
X003499Y016670D01*
X003484Y016828D02*
X005401Y016828D01*
X005401Y016987D02*
X003403Y016987D01*
X003165Y017146D02*
X005401Y017146D01*
X005401Y017304D02*
X000381Y017304D01*
X000381Y017146D02*
X002228Y017146D01*
X002475Y017146D02*
X002918Y017146D01*
X003473Y017750D02*
X003687Y017536D01*
X003967Y017420D01*
X004270Y017420D01*
X004549Y017536D01*
X004764Y017750D01*
X004879Y018030D01*
X004879Y018333D01*
X004764Y018612D01*
X004549Y018827D01*
X004270Y018942D01*
X003967Y018942D01*
X003687Y018827D01*
X003473Y018612D01*
X003357Y018333D01*
X003357Y018030D01*
X003473Y017750D01*
X003461Y017780D02*
X001902Y017780D01*
X001890Y017750D02*
X002005Y018030D01*
X002005Y018333D01*
X001890Y018612D01*
X001675Y018827D01*
X001396Y018942D01*
X001093Y018942D01*
X000813Y018827D01*
X000599Y018612D01*
X000483Y018333D01*
X000483Y018030D01*
X000599Y017750D01*
X000813Y017536D01*
X001093Y017420D01*
X001396Y017420D01*
X001675Y017536D01*
X001890Y017750D01*
X001760Y017621D02*
X003602Y017621D01*
X003865Y017463D02*
X001498Y017463D01*
X001967Y017938D02*
X003395Y017938D01*
X003357Y018097D02*
X002005Y018097D01*
X002005Y018255D02*
X003357Y018255D01*
X003391Y018414D02*
X001972Y018414D01*
X001906Y018572D02*
X003457Y018572D01*
X003592Y018731D02*
X001771Y018731D01*
X001523Y018890D02*
X003839Y018890D01*
X004397Y018890D02*
X011767Y018890D01*
X011741Y018864D02*
X011741Y018682D01*
X012181Y018682D01*
X012181Y019121D01*
X011999Y019121D01*
X011741Y018864D01*
X011741Y018731D02*
X004645Y018731D01*
X004780Y018572D02*
X006065Y018572D01*
X005937Y018414D02*
X004846Y018414D01*
X004879Y018255D02*
X005859Y018255D01*
X005701Y018097D02*
X004879Y018097D01*
X004841Y017938D02*
X005542Y017938D01*
X005419Y017780D02*
X004776Y017780D01*
X004634Y017621D02*
X005401Y017621D01*
X005401Y017463D02*
X004372Y017463D01*
X005681Y017681D02*
X005681Y016681D01*
X006017Y017621D02*
X006137Y017621D01*
X005681Y017681D02*
X006181Y018181D01*
X006681Y018181D01*
X007287Y017780D02*
X011721Y017780D01*
X011721Y017621D02*
X010392Y017621D01*
X010372Y017641D02*
X009991Y017641D01*
X009721Y017372D01*
X009721Y016991D01*
X009991Y016721D01*
X010372Y016721D01*
X010641Y016991D01*
X010641Y017372D01*
X010372Y017641D01*
X010551Y017463D02*
X011750Y017463D01*
X011908Y017304D02*
X010641Y017304D01*
X010641Y017146D02*
X012250Y017146D01*
X012091Y016987D02*
X010638Y016987D01*
X010479Y016828D02*
X011933Y016828D01*
X011774Y016670D02*
X009103Y016670D01*
X009066Y016511D02*
X009889Y016511D01*
X009741Y016353D02*
X009157Y016353D01*
X009186Y016194D02*
X009741Y016194D01*
X009741Y016036D02*
X009165Y016036D01*
X009085Y015877D02*
X009863Y015877D01*
X010181Y015877D02*
X010182Y015877D01*
X010181Y016036D02*
X010182Y016036D01*
X010182Y016182D02*
X010621Y016182D01*
X010621Y016364D01*
X010364Y016621D01*
X010182Y016621D01*
X010182Y016182D01*
X010181Y016194D02*
X010182Y016194D01*
X010181Y016353D02*
X010182Y016353D01*
X010181Y016511D02*
X010182Y016511D01*
X010474Y016511D02*
X011615Y016511D01*
X011457Y016353D02*
X010621Y016353D01*
X010621Y016194D02*
X011298Y016194D01*
X012090Y016194D02*
X019666Y016194D01*
X019666Y016036D02*
X016478Y016036D01*
X016372Y016141D02*
X016641Y015872D01*
X016641Y015491D01*
X016372Y015221D01*
X015991Y015221D01*
X015721Y015491D01*
X015721Y015872D01*
X015991Y016141D01*
X016372Y016141D01*
X016636Y015877D02*
X019666Y015877D01*
X019666Y015719D02*
X016641Y015719D01*
X016641Y015560D02*
X019666Y015560D01*
X019666Y015402D02*
X016552Y015402D01*
X016394Y015243D02*
X019666Y015243D01*
X019666Y015084D02*
X014401Y015084D01*
X014364Y015121D02*
X014621Y014864D01*
X014621Y014682D01*
X014182Y014682D01*
X014181Y014682D01*
X014181Y015121D01*
X013999Y015121D01*
X013741Y014864D01*
X013741Y014682D01*
X014181Y014682D01*
X014181Y014681D01*
X013741Y014681D01*
X013741Y014499D01*
X013999Y014241D01*
X014181Y014241D01*
X014181Y014681D01*
X014182Y014681D01*
X014182Y014682D01*
X014182Y015121D01*
X014364Y015121D01*
X014182Y015084D02*
X014181Y015084D01*
X014181Y014926D02*
X014182Y014926D01*
X014181Y014767D02*
X014182Y014767D01*
X014182Y014681D02*
X014621Y014681D01*
X014621Y014499D01*
X014364Y014241D01*
X014182Y014241D01*
X014182Y014681D01*
X014181Y014609D02*
X014182Y014609D01*
X014181Y014450D02*
X014182Y014450D01*
X014181Y014292D02*
X014182Y014292D01*
X014414Y014292D02*
X019666Y014292D01*
X019666Y014450D02*
X014573Y014450D01*
X014621Y014609D02*
X019666Y014609D01*
X019666Y014767D02*
X014621Y014767D01*
X014559Y014926D02*
X019666Y014926D01*
X019666Y014133D02*
X014380Y014133D01*
X014539Y013975D02*
X019666Y013975D01*
X019666Y013816D02*
X019197Y013816D01*
X019356Y013658D02*
X019666Y013658D01*
X019666Y013499D02*
X019391Y013499D01*
X019391Y013341D02*
X019666Y013341D01*
X019666Y013182D02*
X019332Y013182D01*
X019174Y013023D02*
X019666Y013023D01*
X019666Y012865D02*
X012363Y012865D01*
X012401Y012706D02*
X019666Y012706D01*
X019666Y012548D02*
X012384Y012548D01*
X012300Y012389D02*
X019666Y012389D01*
X019666Y012231D02*
X012055Y012231D01*
X012033Y012141D02*
X011330Y012141D01*
X011161Y012071D01*
X011031Y011942D01*
X010961Y011773D01*
X010961Y011590D01*
X011031Y011421D01*
X011161Y011291D01*
X011330Y011221D01*
X012033Y011221D01*
X012202Y011291D01*
X012312Y011401D01*
X014367Y011401D01*
X014361Y011396D01*
X014303Y011257D01*
X014303Y011106D01*
X014361Y010967D01*
X014401Y010927D01*
X014401Y010436D01*
X014361Y010396D01*
X014303Y010257D01*
X014303Y010106D01*
X014361Y009967D01*
X014467Y009861D01*
X014606Y009803D01*
X014757Y009803D01*
X014896Y009861D01*
X015002Y009967D01*
X015059Y010106D01*
X015059Y010257D01*
X015002Y010396D01*
X014961Y010436D01*
X014961Y010927D01*
X015002Y010967D01*
X015059Y011106D01*
X015059Y011257D01*
X015002Y011396D01*
X014996Y011401D01*
X017065Y011401D01*
X017803Y010664D01*
X017803Y010606D01*
X017861Y010467D01*
X017967Y010361D01*
X018106Y010303D01*
X018257Y010303D01*
X018396Y010361D01*
X018502Y010467D01*
X018559Y010606D01*
X018559Y010757D01*
X018502Y010896D01*
X018396Y011002D01*
X018257Y011059D01*
X018199Y011059D01*
X017340Y011919D01*
X017237Y011961D01*
X017126Y011961D01*
X012312Y011961D01*
X012202Y012071D01*
X012033Y012141D01*
X012200Y012072D02*
X019666Y012072D01*
X019666Y011914D02*
X017345Y011914D01*
X017504Y011755D02*
X019666Y011755D01*
X019666Y011597D02*
X017662Y011597D01*
X017821Y011438D02*
X019666Y011438D01*
X019666Y011279D02*
X017979Y011279D01*
X018138Y011121D02*
X019666Y011121D01*
X019666Y010962D02*
X018435Y010962D01*
X018540Y010804D02*
X019666Y010804D01*
X019666Y010645D02*
X018559Y010645D01*
X018510Y010487D02*
X019666Y010487D01*
X019666Y010328D02*
X018317Y010328D01*
X018046Y010328D02*
X015030Y010328D01*
X015059Y010170D02*
X019666Y010170D01*
X019666Y010011D02*
X015020Y010011D01*
X014876Y009853D02*
X019666Y009853D01*
X019181Y009181D02*
X017181Y009181D01*
X016681Y008681D01*
X016221Y008743D02*
X015621Y008743D01*
X015621Y008682D02*
X015621Y008864D01*
X015364Y009121D01*
X015182Y009121D01*
X015182Y008682D01*
X015181Y008682D01*
X015181Y009121D01*
X014999Y009121D01*
X014741Y008864D01*
X014741Y008682D01*
X015181Y008682D01*
X015181Y008681D01*
X014741Y008681D01*
X014741Y008499D01*
X014999Y008241D01*
X015181Y008241D01*
X015181Y008681D01*
X015182Y008681D01*
X015182Y008682D01*
X015621Y008682D01*
X015621Y008681D02*
X015182Y008681D01*
X015182Y008241D01*
X015364Y008241D01*
X015621Y008499D01*
X015621Y008681D01*
X015621Y008584D02*
X016221Y008584D01*
X016287Y008426D02*
X015548Y008426D01*
X015389Y008267D02*
X016445Y008267D01*
X016918Y008267D02*
X018611Y008267D01*
X018611Y008109D02*
X015405Y008109D01*
X015372Y008141D02*
X015641Y007872D01*
X015641Y007491D01*
X015372Y007221D01*
X014991Y007221D01*
X014721Y007491D01*
X014721Y007872D01*
X014991Y008141D01*
X015372Y008141D01*
X015182Y008267D02*
X015181Y008267D01*
X015181Y008426D02*
X015182Y008426D01*
X015181Y008584D02*
X015182Y008584D01*
X015181Y008743D02*
X015182Y008743D01*
X015181Y008901D02*
X015182Y008901D01*
X015181Y009060D02*
X015182Y009060D01*
X015425Y009060D02*
X016409Y009060D01*
X016251Y008901D02*
X015584Y008901D01*
X014938Y009060D02*
X013199Y009060D01*
X013040Y009218D02*
X016822Y009218D01*
X016981Y009377D02*
X012882Y009377D01*
X012681Y009181D02*
X010681Y009181D01*
X010681Y009681D01*
X010181Y010181D01*
X006181Y010181D01*
X006681Y009181D02*
X010181Y009181D01*
X010681Y008681D01*
X011681Y008681D01*
X011181Y008181D02*
X011681Y007681D01*
X011015Y007461D02*
X010626Y007461D01*
X010523Y007419D01*
X010444Y007340D01*
X009944Y006840D01*
X009901Y006737D01*
X009901Y006626D01*
X009901Y004297D01*
X009681Y004077D01*
X009419Y004340D01*
X009340Y004419D01*
X009332Y004422D01*
X009401Y004590D01*
X009401Y004773D01*
X009331Y004942D01*
X009202Y005071D01*
X009033Y005141D01*
X008330Y005141D01*
X008161Y005071D01*
X008051Y004961D01*
X005797Y004961D01*
X004340Y006419D01*
X004237Y006461D01*
X004126Y006461D01*
X001182Y006461D01*
X001165Y006504D01*
X001004Y006665D01*
X000964Y006681D01*
X001004Y006698D01*
X001165Y006859D01*
X001182Y006901D01*
X003126Y006901D01*
X003237Y006901D01*
X003340Y006944D01*
X004797Y008401D01*
X006367Y008401D01*
X006361Y008396D01*
X006303Y008257D01*
X006303Y008205D01*
X006287Y008211D01*
X006076Y008211D01*
X005881Y008131D01*
X005732Y007982D01*
X005651Y007787D01*
X005651Y007576D01*
X005732Y007381D01*
X005881Y007232D01*
X006033Y007169D01*
X005986Y007154D01*
X005914Y007118D01*
X005849Y007070D01*
X005792Y007014D01*
X005745Y006949D01*
X005709Y006877D01*
X005684Y006801D01*
X005671Y006722D01*
X005671Y006682D01*
X000964Y006682D01*
X001146Y006523D02*
X005697Y006523D01*
X005709Y006486D02*
X005745Y006414D01*
X005792Y006349D01*
X005849Y006292D01*
X005914Y006245D01*
X005986Y006209D01*
X006033Y006193D01*
X005881Y006131D01*
X005732Y005982D01*
X005651Y005787D01*
X005651Y005576D01*
X005732Y005381D01*
X005881Y005232D01*
X006076Y005151D01*
X006287Y005151D01*
X006482Y005232D01*
X006631Y005381D01*
X006639Y005401D01*
X008051Y005401D01*
X008161Y005291D01*
X008330Y005221D01*
X009033Y005221D01*
X009202Y005291D01*
X009331Y005421D01*
X009401Y005590D01*
X009401Y005773D01*
X009331Y005942D01*
X009202Y006071D01*
X009033Y006141D01*
X008330Y006141D01*
X008161Y006071D01*
X008051Y005961D01*
X006639Y005961D01*
X006631Y005982D01*
X006482Y006131D01*
X006330Y006193D01*
X006377Y006209D01*
X006449Y006245D01*
X006514Y006292D01*
X006570Y006349D01*
X006618Y006414D01*
X006654Y006486D01*
X006679Y006562D01*
X006691Y006641D01*
X006691Y006681D01*
X006182Y006681D01*
X006182Y006682D01*
X006691Y006682D01*
X007961Y006682D01*
X007961Y006773D02*
X007961Y006590D01*
X008031Y006421D01*
X008161Y006291D01*
X008330Y006221D01*
X009033Y006221D01*
X009202Y006291D01*
X009331Y006421D01*
X009401Y006590D01*
X009401Y006773D01*
X009331Y006942D01*
X009202Y007071D01*
X009033Y007141D01*
X008617Y007141D01*
X008517Y007241D01*
X008681Y007241D01*
X008681Y007681D01*
X008682Y007681D01*
X008682Y007682D01*
X009381Y007682D01*
X009381Y007716D01*
X009371Y007784D01*
X009349Y007850D01*
X009323Y007901D01*
X011015Y007901D01*
X010961Y007773D01*
X010961Y007590D01*
X011015Y007461D01*
X011009Y007474D02*
X009330Y007474D01*
X009318Y007451D02*
X009349Y007512D01*
X009371Y007578D01*
X009381Y007647D01*
X009381Y007681D01*
X008682Y007681D01*
X008682Y007241D01*
X008976Y007241D01*
X009044Y007252D01*
X009110Y007274D01*
X009172Y007305D01*
X009228Y007346D01*
X009277Y007395D01*
X009318Y007451D01*
X009187Y007316D02*
X010420Y007316D01*
X010261Y007157D02*
X008601Y007157D01*
X008681Y007316D02*
X008682Y007316D01*
X008681Y007474D02*
X008682Y007474D01*
X008681Y007633D02*
X008682Y007633D01*
X009379Y007633D02*
X010961Y007633D01*
X010969Y007791D02*
X009368Y007791D01*
X009275Y006999D02*
X010103Y006999D01*
X009944Y006840D02*
X009374Y006840D01*
X009401Y006682D02*
X009901Y006682D01*
X009901Y006523D02*
X009374Y006523D01*
X009275Y006365D02*
X009901Y006365D01*
X009901Y006206D02*
X006369Y006206D01*
X006565Y006048D02*
X008137Y006048D01*
X008088Y006365D02*
X006582Y006365D01*
X006666Y006523D02*
X007989Y006523D01*
X007961Y006773D02*
X008030Y006937D01*
X007565Y007401D01*
X006639Y007401D01*
X006631Y007381D01*
X006482Y007232D01*
X006330Y007169D01*
X006377Y007154D01*
X006449Y007118D01*
X006514Y007070D01*
X006570Y007014D01*
X006618Y006949D01*
X006654Y006877D01*
X006679Y006801D01*
X006691Y006722D01*
X006691Y006682D01*
X006666Y006840D02*
X007989Y006840D01*
X007968Y006999D02*
X006581Y006999D01*
X006367Y007157D02*
X007810Y007157D01*
X007651Y007316D02*
X006565Y007316D01*
X006181Y007681D02*
X007681Y007681D01*
X008681Y006681D01*
X009226Y006048D02*
X009901Y006048D01*
X009901Y005889D02*
X009353Y005889D01*
X009401Y005730D02*
X009901Y005730D01*
X009901Y005572D02*
X009394Y005572D01*
X009324Y005413D02*
X009901Y005413D01*
X009901Y005255D02*
X009113Y005255D01*
X009142Y005096D02*
X009901Y005096D01*
X009901Y004938D02*
X009333Y004938D01*
X009399Y004779D02*
X009901Y004779D01*
X009901Y004621D02*
X009401Y004621D01*
X009348Y004462D02*
X009901Y004462D01*
X009901Y004304D02*
X009455Y004304D01*
X009614Y004145D02*
X009749Y004145D01*
X010181Y004181D02*
X009681Y003681D01*
X009181Y004181D01*
X006181Y004181D01*
X005721Y004145D02*
X005621Y004145D01*
X005621Y004181D02*
X005182Y004181D01*
X005182Y004182D01*
X005621Y004182D01*
X005621Y004364D01*
X005554Y004431D01*
X005626Y004401D01*
X005751Y004401D01*
X005721Y004372D01*
X005721Y003991D01*
X005751Y003961D01*
X005584Y003961D01*
X005621Y003999D01*
X005621Y004181D01*
X005621Y004304D02*
X005721Y004304D01*
X005726Y003986D02*
X005609Y003986D01*
X005182Y004182D02*
X005181Y004182D01*
X005181Y004621D01*
X005182Y004621D01*
X005182Y004182D01*
X005181Y004182D02*
X005181Y004181D01*
X004741Y004181D01*
X004741Y003999D01*
X004779Y003961D01*
X003797Y003961D01*
X003340Y004419D01*
X003237Y004461D01*
X003126Y004461D01*
X001251Y004461D01*
X001251Y004634D01*
X001134Y004751D01*
X000381Y004751D01*
X000381Y005689D01*
X000568Y005611D01*
X000795Y005611D01*
X001004Y005698D01*
X001165Y005859D01*
X001182Y005901D01*
X004065Y005901D01*
X005346Y004621D01*
X005182Y004621D01*
X005181Y004621D02*
X004999Y004621D01*
X004741Y004364D01*
X004741Y004182D01*
X005181Y004182D01*
X005181Y004304D02*
X005182Y004304D01*
X005181Y004462D02*
X005182Y004462D01*
X004998Y004621D02*
X001251Y004621D01*
X001251Y004462D02*
X004840Y004462D01*
X004741Y004304D02*
X003455Y004304D01*
X003614Y004145D02*
X004741Y004145D01*
X004754Y003986D02*
X003772Y003986D01*
X003681Y003681D02*
X008681Y003681D01*
X008330Y003221D02*
X009033Y003221D01*
X009202Y003291D01*
X009331Y003421D01*
X009394Y003573D01*
X009401Y003565D01*
X009401Y002126D01*
X009444Y002023D01*
X009523Y001944D01*
X010023Y001444D01*
X010126Y001401D01*
X010237Y001401D01*
X011051Y001401D01*
X011161Y001291D01*
X009201Y001291D01*
X009202Y001291D02*
X009331Y001421D01*
X009401Y001590D01*
X009401Y001773D01*
X009331Y001942D01*
X009202Y002071D01*
X009033Y002141D01*
X008330Y002141D01*
X008180Y002079D01*
X007857Y002401D01*
X008051Y002401D01*
X007858Y002401D01*
X008051Y002401D02*
X008161Y002291D01*
X008330Y002221D01*
X009033Y002221D01*
X009202Y002291D01*
X009331Y002421D01*
X009401Y002590D01*
X009401Y002773D01*
X009331Y002942D01*
X009202Y003071D01*
X009033Y003141D01*
X008330Y003141D01*
X008161Y003071D01*
X008051Y002961D01*
X004297Y002961D01*
X004059Y003199D01*
X004059Y003257D01*
X004002Y003396D01*
X003996Y003401D01*
X008051Y003401D01*
X008161Y003291D01*
X008330Y003221D01*
X008100Y003352D02*
X004020Y003352D01*
X004065Y003194D02*
X009401Y003194D01*
X009401Y003352D02*
X009263Y003352D01*
X009369Y003511D02*
X009401Y003511D01*
X009681Y003681D02*
X009681Y002181D01*
X010181Y001681D01*
X011681Y001681D01*
X012181Y001681D01*
X012681Y001181D01*
X019181Y001181D01*
X018958Y000657D02*
X007680Y000657D01*
X007634Y000611D02*
X007751Y000729D01*
X007751Y001634D01*
X007634Y001751D01*
X006729Y001751D01*
X006611Y001634D01*
X006611Y001557D01*
X006504Y001665D01*
X006295Y001751D01*
X006068Y001751D01*
X005859Y001665D01*
X005698Y001504D01*
X005669Y001435D01*
X005652Y001470D01*
X005601Y001540D01*
X005540Y001601D01*
X005470Y001652D01*
X005393Y001691D01*
X005310Y001718D01*
X005225Y001731D01*
X005201Y001731D01*
X005201Y001202D01*
X005161Y001202D01*
X005161Y001731D01*
X005138Y001731D01*
X005053Y001718D01*
X004970Y001691D01*
X004893Y001652D01*
X004823Y001601D01*
X004762Y001540D01*
X004711Y001470D01*
X004693Y001435D01*
X004665Y001504D01*
X004504Y001665D01*
X004295Y001751D01*
X004068Y001751D01*
X003859Y001665D01*
X003698Y001504D01*
X003681Y001464D01*
X003665Y001504D01*
X003504Y001665D01*
X003295Y001751D01*
X003068Y001751D01*
X002859Y001665D01*
X002698Y001504D01*
X002611Y001295D01*
X002611Y001068D01*
X002698Y000859D01*
X002845Y000711D01*
X002009Y000711D01*
X001251Y001166D01*
X001251Y001295D01*
X001165Y001504D01*
X001004Y001665D01*
X000935Y001693D01*
X000970Y001711D01*
X001040Y001762D01*
X001101Y001823D01*
X001152Y001893D01*
X001191Y001970D01*
X001218Y002053D01*
X001231Y002138D01*
X001231Y002161D01*
X000702Y002161D01*
X000702Y002201D01*
X001231Y002201D01*
X001231Y002225D01*
X001218Y002310D01*
X001191Y002393D01*
X001152Y002470D01*
X001101Y002540D01*
X001040Y002601D01*
X000970Y002652D01*
X000935Y002669D01*
X001004Y002698D01*
X001165Y002859D01*
X001182Y002901D01*
X002565Y002901D01*
X003523Y001944D01*
X003626Y001901D01*
X003737Y001901D01*
X007565Y001901D01*
X007944Y001523D01*
X007944Y001523D01*
X008021Y001446D01*
X008031Y001421D01*
X008161Y001291D01*
X007751Y001291D01*
X007751Y001133D02*
X012334Y001133D01*
X012444Y001023D02*
X012183Y001284D01*
X012033Y001221D01*
X011330Y001221D01*
X011161Y001291D01*
X011191Y002084D02*
X010175Y002084D01*
X010016Y002242D02*
X011279Y002242D01*
X011051Y002401D02*
X009961Y002401D01*
X009961Y002560D02*
X010974Y002560D01*
X010961Y002718D02*
X009961Y002718D01*
X009961Y002877D02*
X011004Y002877D01*
X011125Y003035D02*
X009961Y003035D01*
X009961Y003194D02*
X018611Y003194D01*
X018625Y003035D02*
X016950Y003035D01*
X016864Y003121D02*
X016682Y003121D01*
X016682Y002682D01*
X016681Y002682D01*
X016681Y003121D01*
X016499Y003121D01*
X016241Y002864D01*
X016241Y002682D01*
X016681Y002682D01*
X016681Y002681D01*
X016241Y002681D01*
X016241Y002499D01*
X016499Y002241D01*
X016681Y002241D01*
X016681Y002681D01*
X016682Y002681D01*
X016682Y002682D01*
X017121Y002682D01*
X017121Y002864D01*
X016864Y003121D01*
X016682Y003035D02*
X016681Y003035D01*
X016681Y002877D02*
X016682Y002877D01*
X016681Y002718D02*
X016682Y002718D01*
X016682Y002681D02*
X017121Y002681D01*
X017121Y002499D01*
X016864Y002241D01*
X016682Y002241D01*
X016682Y002681D01*
X016681Y002560D02*
X016682Y002560D01*
X016681Y002401D02*
X016682Y002401D01*
X016681Y002242D02*
X016682Y002242D01*
X016865Y002242D02*
X017847Y002242D01*
X018005Y002401D02*
X017023Y002401D01*
X017121Y002560D02*
X018164Y002560D01*
X018322Y002718D02*
X017121Y002718D01*
X017108Y002877D02*
X018481Y002877D01*
X018635Y003352D02*
X017003Y003352D01*
X017141Y003511D02*
X018705Y003511D01*
X018671Y003669D02*
X017141Y003669D01*
X017141Y003828D02*
X018611Y003828D01*
X018611Y004462D02*
X017113Y004462D01*
X017141Y004621D02*
X018611Y004621D01*
X019181Y004181D02*
X016181Y004181D01*
X015681Y003681D01*
X011681Y003681D01*
X011100Y003352D02*
X009961Y003352D01*
X009961Y003511D02*
X010994Y003511D01*
X010961Y003669D02*
X010065Y003669D01*
X010224Y003828D02*
X010984Y003828D01*
X011076Y003986D02*
X010382Y003986D01*
X010340Y003944D02*
X010340Y003944D01*
X010461Y004145D02*
X015749Y004145D01*
X015591Y003986D02*
X012287Y003986D01*
X012214Y004304D02*
X015908Y004304D01*
X016250Y004462D02*
X015358Y004462D01*
X015517Y004621D02*
X016221Y004621D01*
X016221Y004779D02*
X015675Y004779D01*
X015834Y004938D02*
X016287Y004938D01*
X016446Y005096D02*
X015992Y005096D01*
X016151Y005255D02*
X019666Y005255D01*
X019666Y005413D02*
X016309Y005413D01*
X016468Y005572D02*
X019666Y005572D01*
X019666Y005730D02*
X019537Y005730D01*
X019181Y006181D02*
X016681Y006181D01*
X015181Y004681D01*
X011681Y004681D01*
X011221Y005096D02*
X010461Y005096D01*
X010461Y004938D02*
X011030Y004938D01*
X010964Y004779D02*
X010461Y004779D01*
X010461Y004621D02*
X010961Y004621D01*
X011014Y004462D02*
X010461Y004462D01*
X010461Y004304D02*
X011149Y004304D01*
X011318Y005252D02*
X011387Y005241D01*
X011681Y005241D01*
X011681Y005681D01*
X011682Y005681D01*
X011682Y005682D01*
X011681Y005682D01*
X011681Y006121D01*
X011387Y006121D01*
X011318Y006111D01*
X011252Y006089D01*
X011191Y006058D01*
X011135Y006017D01*
X011086Y005968D01*
X011045Y005912D01*
X011014Y005850D01*
X010992Y005784D01*
X010981Y005716D01*
X010981Y005682D01*
X011681Y005682D01*
X011681Y005681D01*
X010981Y005681D01*
X010981Y005647D01*
X010992Y005578D01*
X011014Y005512D01*
X011045Y005451D01*
X011086Y005395D01*
X011135Y005346D01*
X011191Y005305D01*
X011252Y005274D01*
X011318Y005252D01*
X011310Y005255D02*
X010461Y005255D01*
X010461Y005413D02*
X011072Y005413D01*
X010994Y005572D02*
X010461Y005572D01*
X010461Y005730D02*
X010984Y005730D01*
X011033Y005889D02*
X010461Y005889D01*
X010461Y006048D02*
X011177Y006048D01*
X011088Y006365D02*
X010461Y006365D01*
X010461Y006523D02*
X010989Y006523D01*
X010961Y006682D02*
X010578Y006682D01*
X010736Y006840D02*
X010989Y006840D01*
X010681Y007181D02*
X012681Y007181D01*
X013181Y007681D01*
X013181Y008681D01*
X012681Y009181D01*
X012379Y009535D02*
X018611Y009535D01*
X018671Y009694D02*
X012401Y009694D01*
X012368Y009853D02*
X014487Y009853D01*
X014343Y010011D02*
X012262Y010011D01*
X012202Y010291D02*
X012033Y010221D01*
X011330Y010221D01*
X011161Y010291D01*
X011031Y010421D01*
X010961Y010590D01*
X010961Y010773D01*
X011031Y010942D01*
X011161Y011071D01*
X011330Y011141D01*
X012033Y011141D01*
X012202Y011071D01*
X012331Y010942D01*
X012401Y010773D01*
X012401Y010590D01*
X012331Y010421D01*
X012202Y010291D01*
X012239Y010328D02*
X014333Y010328D01*
X014303Y010170D02*
X010589Y010170D01*
X010431Y010328D02*
X011124Y010328D01*
X011004Y010487D02*
X009359Y010487D01*
X009401Y010645D02*
X010961Y010645D01*
X010974Y010804D02*
X009389Y010804D01*
X009311Y010962D02*
X011052Y010962D01*
X011280Y011121D02*
X009082Y011121D01*
X009173Y011279D02*
X011190Y011279D01*
X011024Y011438D02*
X009338Y011438D01*
X009401Y011597D02*
X010961Y011597D01*
X010961Y011755D02*
X009401Y011755D01*
X009343Y011914D02*
X011020Y011914D01*
X011163Y012072D02*
X009200Y012072D01*
X009055Y012231D02*
X011307Y012231D01*
X011063Y012389D02*
X009300Y012389D01*
X009384Y012548D02*
X010979Y012548D01*
X010961Y012706D02*
X009401Y012706D01*
X009363Y012865D02*
X011000Y012865D01*
X011113Y013023D02*
X009250Y013023D01*
X009251Y013341D02*
X011142Y013341D01*
X011135Y013346D02*
X011191Y013305D01*
X011252Y013274D01*
X011318Y013252D01*
X011387Y013241D01*
X011681Y013241D01*
X011681Y013681D01*
X010981Y013681D01*
X010981Y013647D01*
X010992Y013578D01*
X011014Y013512D01*
X011045Y013451D01*
X011086Y013395D01*
X011135Y013346D01*
X011020Y013499D02*
X009364Y013499D01*
X009401Y013658D02*
X010981Y013658D01*
X011003Y013816D02*
X009384Y013816D01*
X009299Y013975D02*
X011092Y013975D01*
X011681Y013975D02*
X011682Y013975D01*
X011681Y013816D02*
X011682Y013816D01*
X011681Y013658D02*
X011682Y013658D01*
X011681Y013499D02*
X011682Y013499D01*
X011681Y013341D02*
X011682Y013341D01*
X012202Y014292D02*
X013949Y014292D01*
X013790Y014450D02*
X012344Y014450D01*
X012401Y014609D02*
X013741Y014609D01*
X013741Y014767D02*
X012401Y014767D01*
X012338Y014926D02*
X013804Y014926D01*
X013962Y015084D02*
X012170Y015084D01*
X012394Y015243D02*
X015969Y015243D01*
X015811Y015402D02*
X012552Y015402D01*
X012641Y015560D02*
X015721Y015560D01*
X015721Y015719D02*
X012641Y015719D01*
X012636Y015877D02*
X015727Y015877D01*
X015885Y016036D02*
X012478Y016036D01*
X012249Y016353D02*
X019666Y016353D01*
X019666Y016511D02*
X012407Y016511D01*
X012566Y016670D02*
X019666Y016670D01*
X019666Y016828D02*
X012724Y016828D01*
X012681Y017181D02*
X014931Y017181D01*
X015931Y018181D01*
X015931Y018681D01*
X015444Y018890D02*
X014898Y018890D01*
X014904Y018877D02*
X014868Y018949D01*
X014820Y019014D01*
X014764Y019070D01*
X014699Y019118D01*
X014627Y019154D01*
X014551Y019179D01*
X014472Y019191D01*
X014432Y019191D01*
X014432Y018682D01*
X014941Y018682D01*
X014941Y018722D01*
X014929Y018801D01*
X014904Y018877D01*
X014940Y018731D02*
X015401Y018731D01*
X015403Y018572D02*
X014930Y018572D01*
X014929Y018562D02*
X014941Y018641D01*
X014941Y018681D01*
X014432Y018681D01*
X014432Y018682D01*
X014431Y018682D01*
X014431Y019191D01*
X014391Y019191D01*
X014312Y019179D01*
X014236Y019154D01*
X014164Y019118D01*
X014099Y019070D01*
X014042Y019014D01*
X013995Y018949D01*
X013959Y018877D01*
X013934Y018801D01*
X013921Y018722D01*
X013921Y018682D01*
X014431Y018682D01*
X014431Y018681D01*
X014432Y018681D01*
X014432Y018171D01*
X014472Y018171D01*
X014551Y018184D01*
X014627Y018209D01*
X014699Y018245D01*
X014764Y018292D01*
X014820Y018349D01*
X014868Y018414D01*
X014904Y018486D01*
X014929Y018562D01*
X014867Y018414D02*
X015469Y018414D01*
X015608Y018255D02*
X014713Y018255D01*
X014432Y018255D02*
X014431Y018255D01*
X014431Y018171D02*
X014431Y018681D01*
X013921Y018681D01*
X013921Y018641D01*
X013934Y018562D01*
X013959Y018486D01*
X013995Y018414D01*
X014042Y018349D01*
X014099Y018292D01*
X014164Y018245D01*
X014236Y018209D01*
X014312Y018184D01*
X014391Y018171D01*
X014431Y018171D01*
X014431Y018414D02*
X014432Y018414D01*
X014431Y018572D02*
X014432Y018572D01*
X014431Y018731D02*
X014432Y018731D01*
X014431Y018890D02*
X014432Y018890D01*
X014431Y019048D02*
X014432Y019048D01*
X014786Y019048D02*
X015549Y019048D01*
X015814Y019207D02*
X000381Y019207D01*
X000381Y019365D02*
X019666Y019365D01*
X019666Y019207D02*
X019048Y019207D01*
X019037Y019211D02*
X018826Y019211D01*
X018631Y019131D01*
X018482Y018982D01*
X018401Y018787D01*
X018401Y018576D01*
X018482Y018381D01*
X018631Y018232D01*
X018826Y018151D01*
X019037Y018151D01*
X019232Y018232D01*
X019381Y018381D01*
X019461Y018576D01*
X019461Y018787D01*
X019381Y018982D01*
X019232Y019131D01*
X019037Y019211D01*
X018814Y019207D02*
X016048Y019207D01*
X016314Y019048D02*
X017077Y019048D01*
X017099Y019070D02*
X017042Y019014D01*
X016995Y018949D01*
X016959Y018877D01*
X016934Y018801D01*
X016921Y018722D01*
X016921Y018682D01*
X017431Y018682D01*
X017431Y019191D01*
X017391Y019191D01*
X017312Y019179D01*
X017236Y019154D01*
X017164Y019118D01*
X017099Y019070D01*
X016965Y018890D02*
X016419Y018890D01*
X016461Y018731D02*
X016923Y018731D01*
X016921Y018681D02*
X016921Y018641D01*
X016934Y018562D01*
X016959Y018486D01*
X016995Y018414D01*
X017042Y018349D01*
X017099Y018292D01*
X017164Y018245D01*
X017236Y018209D01*
X017312Y018184D01*
X017391Y018171D01*
X017431Y018171D01*
X017431Y018681D01*
X017432Y018681D01*
X017432Y018682D01*
X017941Y018682D01*
X017941Y018722D01*
X017929Y018801D01*
X017904Y018877D01*
X017868Y018949D01*
X017820Y019014D01*
X017764Y019070D01*
X017699Y019118D01*
X017627Y019154D01*
X017551Y019179D01*
X017472Y019191D01*
X017432Y019191D01*
X017432Y018682D01*
X017431Y018682D01*
X017431Y018681D01*
X016921Y018681D01*
X016932Y018572D02*
X016460Y018572D01*
X016394Y018414D02*
X016995Y018414D01*
X017150Y018255D02*
X016255Y018255D01*
X016199Y018097D02*
X019666Y018097D01*
X019666Y018255D02*
X019255Y018255D01*
X019394Y018414D02*
X019666Y018414D01*
X019666Y018572D02*
X019460Y018572D01*
X019461Y018731D02*
X019666Y018731D01*
X019666Y018890D02*
X019419Y018890D01*
X019314Y019048D02*
X019666Y019048D01*
X019666Y019524D02*
X000381Y019524D01*
X000381Y019048D02*
X011926Y019048D01*
X012181Y019048D02*
X012182Y019048D01*
X012182Y019121D02*
X012182Y018682D01*
X012181Y018682D01*
X012181Y018681D01*
X011741Y018681D01*
X011741Y018499D01*
X011999Y018241D01*
X012181Y018241D01*
X012181Y018681D01*
X012182Y018681D01*
X012182Y018682D01*
X012621Y018682D01*
X012621Y018864D01*
X012364Y019121D01*
X012182Y019121D01*
X012181Y018890D02*
X012182Y018890D01*
X012181Y018731D02*
X012182Y018731D01*
X012182Y018681D02*
X012621Y018681D01*
X012621Y018499D01*
X012364Y018241D01*
X012182Y018241D01*
X012182Y018681D01*
X012181Y018572D02*
X012182Y018572D01*
X012181Y018414D02*
X012182Y018414D01*
X012181Y018255D02*
X012182Y018255D01*
X012378Y018255D02*
X014150Y018255D01*
X013995Y018414D02*
X012536Y018414D01*
X012621Y018572D02*
X013932Y018572D01*
X013923Y018731D02*
X012621Y018731D01*
X012595Y018890D02*
X013965Y018890D01*
X014077Y019048D02*
X012437Y019048D01*
X011827Y018414D02*
X007426Y018414D01*
X007481Y018255D02*
X011985Y018255D01*
X011946Y018097D02*
X007481Y018097D01*
X007422Y017938D02*
X011788Y017938D01*
X011741Y018572D02*
X007297Y018572D01*
X007226Y017621D02*
X008188Y017621D01*
X008156Y017463D02*
X007406Y017463D01*
X007472Y017304D02*
X008156Y017304D01*
X008156Y017146D02*
X007481Y017146D01*
X007442Y016987D02*
X008156Y016987D01*
X008156Y016828D02*
X007336Y016828D01*
X008193Y015084D02*
X000381Y015084D01*
X000381Y014926D02*
X003040Y014926D01*
X002944Y014840D02*
X002944Y014840D01*
X002871Y014767D02*
X000381Y014767D01*
X000681Y014181D02*
X002681Y014181D01*
X003181Y014681D01*
X008681Y014681D01*
X010181Y014681D01*
X012681Y017181D01*
X012613Y017463D02*
X014817Y017463D01*
X014975Y017621D02*
X012641Y017621D01*
X012641Y017780D02*
X015134Y017780D01*
X015292Y017938D02*
X012575Y017938D01*
X012416Y018097D02*
X015451Y018097D01*
X015926Y017780D02*
X017129Y017780D01*
X017241Y017891D02*
X016971Y017622D01*
X016971Y017241D01*
X017241Y016971D01*
X017622Y016971D01*
X017891Y017241D01*
X017891Y017622D01*
X017622Y017891D01*
X017241Y017891D01*
X017432Y018171D02*
X017472Y018171D01*
X017551Y018184D01*
X017627Y018209D01*
X017699Y018245D01*
X017764Y018292D01*
X017820Y018349D01*
X017868Y018414D01*
X017904Y018486D01*
X017929Y018562D01*
X017941Y018641D01*
X017941Y018681D01*
X017432Y018681D01*
X017432Y018171D01*
X017431Y018255D02*
X017432Y018255D01*
X017431Y018414D02*
X017432Y018414D01*
X017431Y018572D02*
X017432Y018572D01*
X017431Y018731D02*
X017432Y018731D01*
X017431Y018890D02*
X017432Y018890D01*
X017431Y019048D02*
X017432Y019048D01*
X017786Y019048D02*
X018549Y019048D01*
X018444Y018890D02*
X017898Y018890D01*
X017940Y018731D02*
X018401Y018731D01*
X018403Y018572D02*
X017930Y018572D01*
X017867Y018414D02*
X018469Y018414D01*
X018608Y018255D02*
X017713Y018255D01*
X017734Y017780D02*
X018629Y017780D01*
X018741Y017891D02*
X018471Y017622D01*
X018471Y017241D01*
X018741Y016971D01*
X019122Y016971D01*
X019391Y017241D01*
X019391Y017622D01*
X019122Y017891D01*
X018741Y017891D01*
X018471Y017621D02*
X017891Y017621D01*
X017891Y017463D02*
X018471Y017463D01*
X018471Y017304D02*
X017891Y017304D01*
X017796Y017146D02*
X018567Y017146D01*
X018725Y016987D02*
X017638Y016987D01*
X017225Y016987D02*
X015133Y016987D01*
X015291Y017146D02*
X017067Y017146D01*
X016971Y017304D02*
X015450Y017304D01*
X015609Y017463D02*
X016971Y017463D01*
X016971Y017621D02*
X015767Y017621D01*
X016084Y017938D02*
X019666Y017938D01*
X019666Y017780D02*
X019234Y017780D01*
X019391Y017621D02*
X019666Y017621D01*
X019666Y017463D02*
X019391Y017463D01*
X019391Y017304D02*
X019666Y017304D01*
X019666Y017146D02*
X019296Y017146D01*
X019138Y016987D02*
X019666Y016987D01*
X018666Y013816D02*
X017697Y013816D01*
X017431Y013431D02*
X017181Y013181D01*
X015681Y013181D01*
X015181Y013681D01*
X014181Y013681D01*
X014491Y013341D02*
X015126Y013341D01*
X015443Y013816D02*
X017166Y013816D01*
X017007Y013658D02*
X015601Y013658D01*
X015760Y013499D02*
X016971Y013499D01*
X017431Y013431D02*
X018931Y013431D01*
X018689Y013023D02*
X017674Y013023D01*
X017181Y011681D02*
X018181Y010681D01*
X017803Y010645D02*
X014961Y010645D01*
X014961Y010487D02*
X017853Y010487D01*
X017663Y010804D02*
X014961Y010804D01*
X014997Y010962D02*
X017504Y010962D01*
X017346Y011121D02*
X015059Y011121D01*
X015050Y011279D02*
X017187Y011279D01*
X017181Y011681D02*
X011681Y011681D01*
X012173Y011279D02*
X014313Y011279D01*
X014303Y011121D02*
X012082Y011121D01*
X012311Y010962D02*
X014366Y010962D01*
X014401Y010804D02*
X012389Y010804D01*
X012401Y010645D02*
X014401Y010645D01*
X014401Y010487D02*
X012359Y010487D01*
X011101Y010011D02*
X010748Y010011D01*
X010906Y009853D02*
X010994Y009853D01*
X010961Y009694D02*
X010961Y009694D01*
X010961Y009535D02*
X010984Y009535D01*
X011181Y008181D02*
X006681Y008181D01*
X006308Y008267D02*
X004663Y008267D01*
X004505Y008109D02*
X005859Y008109D01*
X005719Y007950D02*
X004346Y007950D01*
X004187Y007791D02*
X005653Y007791D01*
X005651Y007633D02*
X004029Y007633D01*
X003870Y007474D02*
X005693Y007474D01*
X005797Y007316D02*
X003712Y007316D01*
X003553Y007157D02*
X005996Y007157D01*
X005782Y006999D02*
X003395Y006999D01*
X003181Y007181D02*
X004681Y008681D01*
X008681Y008681D01*
X008681Y009681D02*
X004181Y009681D01*
X002681Y008181D01*
X000681Y008181D01*
X000681Y007181D02*
X003181Y007181D01*
X004181Y006181D02*
X005681Y004681D01*
X008681Y004681D01*
X008221Y005096D02*
X005662Y005096D01*
X005504Y005255D02*
X005858Y005255D01*
X005719Y005413D02*
X005345Y005413D01*
X005187Y005572D02*
X005653Y005572D01*
X005651Y005730D02*
X005028Y005730D01*
X004870Y005889D02*
X005694Y005889D01*
X005798Y006048D02*
X004711Y006048D01*
X004553Y006206D02*
X005994Y006206D01*
X005781Y006365D02*
X004394Y006365D01*
X004181Y006181D02*
X000681Y006181D01*
X001037Y005730D02*
X004236Y005730D01*
X004078Y005889D02*
X001177Y005889D01*
X000381Y005572D02*
X002450Y005572D01*
X002499Y005621D02*
X002241Y005364D01*
X002241Y005182D01*
X002681Y005182D01*
X002681Y005621D01*
X002499Y005621D01*
X002682Y005621D02*
X002864Y005621D01*
X003121Y005364D01*
X003121Y005182D01*
X002682Y005182D01*
X002682Y005181D01*
X003121Y005181D01*
X003121Y004999D01*
X002864Y004741D01*
X002682Y004741D01*
X002682Y005181D01*
X002681Y005181D01*
X002681Y004741D01*
X002499Y004741D01*
X002241Y004999D01*
X002241Y005181D01*
X002681Y005181D01*
X002681Y005182D01*
X002682Y005182D01*
X002682Y005621D01*
X002681Y005572D02*
X002682Y005572D01*
X002681Y005413D02*
X002682Y005413D01*
X002681Y005255D02*
X002682Y005255D01*
X002681Y005096D02*
X002682Y005096D01*
X002681Y004938D02*
X002682Y004938D01*
X002681Y004779D02*
X002682Y004779D01*
X002901Y004779D02*
X003433Y004779D01*
X003491Y004721D02*
X003872Y004721D01*
X004141Y004991D01*
X004141Y005372D01*
X003872Y005641D01*
X003491Y005641D01*
X003221Y005372D01*
X003221Y004991D01*
X003491Y004721D01*
X003275Y004938D02*
X003060Y004938D01*
X003121Y005096D02*
X003221Y005096D01*
X003221Y005255D02*
X003121Y005255D01*
X003072Y005413D02*
X003263Y005413D01*
X003421Y005572D02*
X002913Y005572D01*
X002291Y005413D02*
X000381Y005413D01*
X000381Y005255D02*
X002241Y005255D01*
X002241Y005096D02*
X000381Y005096D01*
X000381Y004938D02*
X002303Y004938D01*
X002461Y004779D02*
X000381Y004779D01*
X000681Y004181D02*
X003181Y004181D01*
X003681Y003681D01*
X003681Y003181D02*
X004181Y002681D01*
X008681Y002681D01*
X008279Y002242D02*
X008016Y002242D01*
X008175Y002084D02*
X008191Y002084D01*
X008181Y001681D02*
X008681Y001681D01*
X008330Y001221D02*
X009033Y001221D01*
X009202Y001291D01*
X009343Y001450D02*
X010017Y001450D01*
X009859Y001608D02*
X009401Y001608D01*
X009401Y001767D02*
X009700Y001767D01*
X009541Y001925D02*
X009338Y001925D01*
X009419Y002084D02*
X009172Y002084D01*
X009084Y002242D02*
X009401Y002242D01*
X009401Y002401D02*
X009312Y002401D01*
X009389Y002560D02*
X009401Y002560D01*
X009401Y002718D02*
X009401Y002718D01*
X009401Y002877D02*
X009358Y002877D01*
X009401Y003035D02*
X009238Y003035D01*
X010181Y004181D02*
X010181Y006681D01*
X010681Y007181D01*
X010461Y006206D02*
X013224Y006206D01*
X013156Y006365D02*
X012275Y006365D01*
X012110Y006089D02*
X012044Y006111D01*
X011976Y006121D01*
X011682Y006121D01*
X011682Y005682D01*
X012381Y005682D01*
X012381Y005716D01*
X012371Y005784D01*
X012349Y005850D01*
X012318Y005912D01*
X012277Y005968D01*
X012228Y006017D01*
X012172Y006058D01*
X012110Y006089D01*
X012186Y006048D02*
X013333Y006048D01*
X013220Y005889D02*
X012329Y005889D01*
X012379Y005730D02*
X013178Y005730D01*
X013176Y005681D02*
X013176Y005642D01*
X013189Y005563D01*
X013213Y005488D01*
X013249Y005417D01*
X013296Y005352D01*
X013352Y005296D01*
X013417Y005249D01*
X013488Y005213D01*
X013563Y005189D01*
X013642Y005176D01*
X013681Y005176D01*
X013681Y005681D01*
X013176Y005681D01*
X013187Y005572D02*
X012368Y005572D01*
X012371Y005578D02*
X012381Y005647D01*
X012381Y005681D01*
X011682Y005681D01*
X011682Y005241D01*
X011976Y005241D01*
X012044Y005252D01*
X012110Y005274D01*
X012172Y005305D01*
X012228Y005346D01*
X012277Y005395D01*
X012318Y005451D01*
X012349Y005512D01*
X012371Y005578D01*
X012290Y005413D02*
X013252Y005413D01*
X013409Y005255D02*
X012052Y005255D01*
X012142Y005096D02*
X015200Y005096D01*
X015359Y005255D02*
X013953Y005255D01*
X013946Y005249D02*
X014010Y005296D01*
X014067Y005352D01*
X014113Y005417D01*
X014149Y005488D01*
X014174Y005563D01*
X014186Y005642D01*
X014186Y005681D01*
X013682Y005681D01*
X013682Y005176D01*
X013721Y005176D01*
X013800Y005189D01*
X013875Y005213D01*
X013946Y005249D01*
X014111Y005413D02*
X015517Y005413D01*
X015676Y005572D02*
X014175Y005572D01*
X014185Y005730D02*
X015834Y005730D01*
X015993Y005889D02*
X014142Y005889D01*
X014029Y006048D02*
X016152Y006048D01*
X016310Y006206D02*
X014139Y006206D01*
X014206Y006365D02*
X014848Y006365D01*
X014721Y006491D02*
X014991Y006221D01*
X015372Y006221D01*
X015641Y006491D01*
X015641Y006872D01*
X015372Y007141D01*
X014991Y007141D01*
X014721Y006872D01*
X014721Y006491D01*
X014721Y006523D02*
X014206Y006523D01*
X014206Y006682D02*
X014721Y006682D01*
X014721Y006840D02*
X014206Y006840D01*
X014206Y006999D02*
X014848Y006999D01*
X014896Y007316D02*
X013212Y007316D01*
X013224Y007157D02*
X013053Y007157D01*
X013156Y006999D02*
X012895Y006999D01*
X013370Y007474D02*
X014738Y007474D01*
X014721Y007633D02*
X013461Y007633D01*
X013461Y007791D02*
X014721Y007791D01*
X014800Y007950D02*
X013461Y007950D01*
X013461Y008109D02*
X014958Y008109D01*
X014973Y008267D02*
X013461Y008267D01*
X013461Y008426D02*
X014815Y008426D01*
X014741Y008584D02*
X013461Y008584D01*
X013459Y008743D02*
X014741Y008743D01*
X014779Y008901D02*
X013357Y008901D01*
X014681Y010181D02*
X014681Y011181D01*
X017141Y008743D02*
X018611Y008743D01*
X018611Y008901D02*
X017297Y008901D01*
X017141Y008584D02*
X018778Y008584D01*
X018666Y008426D02*
X017076Y008426D01*
X015641Y007791D02*
X018765Y007791D01*
X018827Y007633D02*
X015641Y007633D01*
X015625Y007474D02*
X018686Y007474D01*
X018620Y007316D02*
X015466Y007316D01*
X015515Y006999D02*
X018640Y006999D01*
X018611Y007157D02*
X014138Y007157D01*
X013681Y006681D02*
X011681Y006681D01*
X011681Y006048D02*
X011682Y006048D01*
X011681Y005889D02*
X011682Y005889D01*
X011681Y005730D02*
X011682Y005730D01*
X011681Y005572D02*
X011682Y005572D01*
X011681Y005413D02*
X011682Y005413D01*
X011681Y005255D02*
X011682Y005255D01*
X012263Y003352D02*
X016360Y003352D01*
X016221Y003511D02*
X015907Y003511D01*
X016065Y003669D02*
X016221Y003669D01*
X016413Y003035D02*
X015478Y003035D01*
X015637Y002877D02*
X016254Y002877D01*
X016241Y002718D02*
X015641Y002718D01*
X015641Y002560D02*
X016241Y002560D01*
X016340Y002401D02*
X015733Y002401D01*
X015891Y002242D02*
X016498Y002242D01*
X015806Y001931D02*
X017931Y001931D01*
X019181Y003181D01*
X018640Y002084D02*
X018480Y002084D01*
X018321Y001925D02*
X018695Y001925D01*
X018818Y001767D02*
X018163Y001767D01*
X018802Y001608D02*
X012650Y001608D01*
X012492Y001767D02*
X015575Y001767D01*
X015416Y001925D02*
X012338Y001925D01*
X012172Y002084D02*
X015258Y002084D01*
X015181Y002556D02*
X015806Y001931D01*
X015181Y002556D02*
X015181Y002681D01*
X011681Y002681D01*
X012238Y003035D02*
X014885Y003035D01*
X016917Y005096D02*
X019666Y005096D01*
X019666Y004938D02*
X017076Y004938D01*
X017141Y004779D02*
X019666Y004779D01*
X018826Y005730D02*
X016626Y005730D01*
X016785Y005889D02*
X018686Y005889D01*
X018717Y006523D02*
X015641Y006523D01*
X015641Y006682D02*
X018898Y006682D01*
X018716Y006840D02*
X015641Y006840D01*
X015515Y006365D02*
X016469Y006365D01*
X015563Y007950D02*
X018660Y007950D01*
X013682Y005572D02*
X013681Y005572D01*
X013681Y005413D02*
X013682Y005413D01*
X013681Y005255D02*
X013682Y005255D01*
X012444Y001023D02*
X012523Y000944D01*
X012626Y000901D01*
X018680Y000901D01*
X018698Y000859D01*
X018859Y000698D01*
X019068Y000611D01*
X019295Y000611D01*
X019504Y000698D01*
X019665Y000859D01*
X019666Y000863D01*
X019666Y000381D01*
X005777Y000381D01*
X006025Y000629D01*
X006068Y000611D01*
X006295Y000611D01*
X006504Y000698D01*
X006611Y000805D01*
X006611Y000729D01*
X006729Y000611D01*
X007634Y000611D01*
X007751Y000816D02*
X018741Y000816D01*
X019405Y000657D02*
X019666Y000657D01*
X019666Y000499D02*
X005894Y000499D01*
X005431Y000431D02*
X006181Y001181D01*
X006405Y000657D02*
X006683Y000657D01*
X006611Y001608D02*
X006561Y001608D01*
X005802Y001608D02*
X005530Y001608D01*
X005662Y001450D02*
X005676Y001450D01*
X005201Y001450D02*
X005161Y001450D01*
X005161Y001608D02*
X005201Y001608D01*
X005201Y001291D02*
X005161Y001291D01*
X004833Y001608D02*
X004561Y001608D01*
X004687Y001450D02*
X004701Y001450D01*
X003802Y001608D02*
X003561Y001608D01*
X003568Y001925D02*
X001168Y001925D01*
X001223Y002084D02*
X003383Y002084D01*
X003224Y002242D02*
X001229Y002242D01*
X001187Y002401D02*
X003066Y002401D01*
X002907Y002560D02*
X001081Y002560D01*
X001024Y002718D02*
X002749Y002718D01*
X002590Y002877D02*
X001172Y002877D01*
X000681Y003181D02*
X002681Y003181D01*
X003681Y002181D01*
X007681Y002181D01*
X008181Y001681D01*
X008017Y001450D02*
X007751Y001450D01*
X007751Y001608D02*
X007859Y001608D01*
X007700Y001767D02*
X001045Y001767D01*
X001061Y001608D02*
X002802Y001608D01*
X002676Y001450D02*
X001187Y001450D01*
X001251Y001291D02*
X002611Y001291D01*
X002611Y001133D02*
X001307Y001133D01*
X001571Y000974D02*
X002650Y000974D01*
X002741Y000816D02*
X001835Y000816D01*
X001931Y000431D02*
X005431Y000431D01*
X007751Y000974D02*
X012493Y000974D01*
X009523Y001944D02*
X009523Y001944D01*
X008330Y001221D02*
X008161Y001291D01*
X008125Y003035D02*
X004224Y003035D01*
X003930Y004779D02*
X005188Y004779D01*
X005029Y004938D02*
X004088Y004938D01*
X004141Y005096D02*
X004871Y005096D01*
X004712Y005255D02*
X004141Y005255D01*
X004100Y005413D02*
X004554Y005413D01*
X004395Y005572D02*
X003941Y005572D01*
X005709Y006486D02*
X005684Y006562D01*
X005671Y006641D01*
X005671Y006681D01*
X006181Y006681D01*
X006181Y006682D01*
X005671Y006682D01*
X005697Y006840D02*
X001146Y006840D01*
X000681Y009181D02*
X002681Y009181D01*
X004181Y010681D01*
X008681Y010681D01*
X008280Y011121D02*
X003059Y011121D01*
X002997Y010962D02*
X008052Y010962D01*
X008190Y011279D02*
X003175Y011279D01*
X003181Y011681D02*
X008681Y011681D01*
X008163Y012072D02*
X002968Y012072D01*
X003018Y011914D02*
X002767Y011914D01*
X002859Y011755D02*
X001061Y011755D01*
X001072Y011597D02*
X002701Y011597D01*
X002681Y011181D02*
X003181Y011681D01*
X002681Y012181D02*
X003181Y012681D01*
X008681Y012681D01*
X008307Y012231D02*
X003127Y012231D01*
X003285Y012389D02*
X008063Y012389D01*
X008113Y013023D02*
X002919Y013023D01*
X002969Y012865D02*
X001167Y012865D01*
X001012Y012706D02*
X002810Y012706D01*
X002652Y012548D02*
X001121Y012548D01*
X000681Y012181D02*
X002681Y012181D01*
X002681Y011181D02*
X000681Y011181D01*
X000486Y010645D02*
X000381Y010645D01*
X000381Y010487D02*
X003591Y010487D01*
X003749Y010645D02*
X000877Y010645D01*
X001110Y010804D02*
X002605Y010804D01*
X002758Y010804D02*
X003908Y010804D01*
X003432Y010328D02*
X000381Y010328D01*
X000381Y010170D02*
X003274Y010170D01*
X003115Y010011D02*
X000381Y010011D01*
X000381Y009853D02*
X002957Y009853D01*
X002798Y009694D02*
X001192Y009694D01*
X001251Y009535D02*
X002640Y009535D01*
X006181Y005681D02*
X008681Y005681D01*
X008249Y005255D02*
X006504Y005255D01*
X001931Y000431D02*
X000681Y001181D01*
X001167Y013499D02*
X002603Y013499D01*
X002762Y013658D02*
X001180Y013658D01*
X001251Y013816D02*
X002920Y013816D01*
X002871Y013975D02*
X008064Y013975D01*
X008310Y014133D02*
X003029Y014133D01*
X003188Y014292D02*
X008161Y014292D01*
X009170Y015084D02*
X010189Y015084D01*
X010347Y015243D02*
X000381Y015243D01*
X000381Y015402D02*
X010506Y015402D01*
X010664Y015560D02*
X000381Y015560D01*
X000381Y015719D02*
X001736Y015719D01*
X001594Y015877D02*
X000381Y015877D01*
X000381Y016036D02*
X001546Y016036D01*
X001558Y016194D02*
X000381Y016194D01*
X000381Y016353D02*
X001638Y016353D01*
X001900Y016511D02*
X000381Y016511D01*
X000381Y016670D02*
X001894Y016670D01*
X001909Y016828D02*
X000381Y016828D01*
X000381Y016987D02*
X001990Y016987D01*
X001981Y016036D02*
X001982Y016036D01*
X001981Y015877D02*
X001982Y015877D01*
X001981Y015719D02*
X001982Y015719D01*
X002226Y015719D02*
X002397Y015719D01*
X002966Y015719D02*
X003067Y015719D01*
X002713Y014609D02*
X001251Y014609D01*
X000991Y017463D02*
X000381Y017463D01*
X000381Y017621D02*
X000728Y017621D01*
X000587Y017780D02*
X000381Y017780D01*
X000381Y017938D02*
X000521Y017938D01*
X000483Y018097D02*
X000381Y018097D01*
X000381Y018255D02*
X000483Y018255D01*
X000517Y018414D02*
X000381Y018414D01*
X000381Y018572D02*
X000583Y018572D01*
X000718Y018731D02*
X000381Y018731D01*
X000381Y018890D02*
X000965Y018890D01*
X009174Y017621D02*
X009971Y017621D01*
X009812Y017463D02*
X009206Y017463D01*
X009206Y017304D02*
X009721Y017304D01*
X009721Y017146D02*
X009206Y017146D01*
X009206Y016987D02*
X009725Y016987D01*
X009884Y016828D02*
X009206Y016828D01*
X019622Y000816D02*
X019666Y000816D01*
D22*
X014681Y010181D03*
X014681Y011181D03*
X018181Y010681D03*
X006681Y009181D03*
X006681Y008181D03*
X006181Y010181D03*
X002681Y011181D03*
X003681Y003181D03*
M02*
