G75*
G70*
%OFA0B0*%
%FSLAX24Y24*%
%IPPOS*%
%LPD*%
%AMOC8*
5,1,8,0,0,1.08239X$1,22.5*
%
%ADD10C,0.0000*%
%ADD11C,0.0520*%
%ADD12OC8,0.0520*%
%ADD13C,0.0660*%
%ADD14R,0.0650X0.0650*%
%ADD15C,0.0650*%
%ADD16C,0.0600*%
%ADD17C,0.0515*%
%ADD18C,0.1122*%
%ADD19R,0.0740X0.0740*%
%ADD20C,0.0740*%
%ADD21C,0.0160*%
%ADD22C,0.0356*%
%ADD23R,0.0356X0.0356*%
D10*
X000181Y000181D02*
X000181Y019866D01*
X019866Y019866D01*
X019866Y000181D01*
X000181Y000181D01*
D11*
X008421Y001681D02*
X008941Y001681D01*
X008941Y002681D02*
X008421Y002681D01*
X008421Y003681D02*
X008941Y003681D01*
X008941Y004681D02*
X008421Y004681D01*
X008421Y005681D02*
X008941Y005681D01*
X008941Y006681D02*
X008421Y006681D01*
X008421Y007681D02*
X008941Y007681D01*
X008941Y008681D02*
X008421Y008681D01*
X008421Y009681D02*
X008941Y009681D01*
X008941Y010681D02*
X008421Y010681D01*
X008421Y011681D02*
X008941Y011681D01*
X008941Y012681D02*
X008421Y012681D01*
X008421Y013681D02*
X008941Y013681D01*
X008941Y014681D02*
X008421Y014681D01*
X011421Y014681D02*
X011941Y014681D01*
X011941Y013681D02*
X011421Y013681D01*
X011421Y012681D02*
X011941Y012681D01*
X011941Y011681D02*
X011421Y011681D01*
X011421Y010681D02*
X011941Y010681D01*
X011941Y009681D02*
X011421Y009681D01*
X011421Y008681D02*
X011941Y008681D01*
X011941Y007681D02*
X011421Y007681D01*
X011421Y006681D02*
X011941Y006681D01*
X011941Y005681D02*
X011421Y005681D01*
X011421Y004681D02*
X011941Y004681D01*
X011941Y003681D02*
X011421Y003681D01*
X011421Y002681D02*
X011941Y002681D01*
X011941Y001681D02*
X011421Y001681D01*
D12*
X015181Y002681D03*
X016681Y002681D03*
X016681Y003681D03*
X016681Y004681D03*
X015181Y006681D03*
X015181Y007681D03*
X015181Y008681D03*
X016681Y008681D03*
X017431Y013431D03*
X018931Y013431D03*
X016181Y015681D03*
X017431Y017431D03*
X018931Y017431D03*
X014181Y014681D03*
X014181Y013681D03*
X012181Y015681D03*
X012181Y017681D03*
X012181Y018681D03*
X010181Y017181D03*
X010181Y016181D03*
X003681Y005181D03*
X002681Y005181D03*
X005181Y004181D03*
X006181Y004181D03*
D13*
X006181Y005681D03*
X006181Y006681D03*
X006181Y007681D03*
X014431Y018681D03*
X015931Y018681D03*
X017431Y018681D03*
X018931Y018681D03*
D14*
X008681Y017181D03*
X013681Y006681D03*
D15*
X013681Y005681D03*
X008681Y016181D03*
D16*
X006981Y016181D02*
X006381Y016181D01*
X006381Y017181D02*
X006981Y017181D01*
X006981Y018181D02*
X006381Y018181D01*
D17*
X003351Y016081D03*
X002681Y016081D03*
X002351Y016701D03*
X001981Y016081D03*
X003041Y016701D03*
D18*
X004118Y018181D03*
X001244Y018181D03*
D19*
X001181Y014181D03*
X001181Y009181D03*
X001181Y004181D03*
X007181Y001181D03*
X019181Y004181D03*
X019181Y009181D03*
D20*
X019181Y008181D03*
X019181Y007181D03*
X019181Y006181D03*
X019181Y003181D03*
X019181Y002181D03*
X019181Y001181D03*
X006181Y001181D03*
X005181Y001181D03*
X004181Y001181D03*
X003181Y001181D03*
X001181Y001181D03*
X001181Y002181D03*
X001181Y003181D03*
X001181Y006181D03*
X001181Y007181D03*
X001181Y008181D03*
X001181Y011181D03*
X001181Y012181D03*
X001181Y013181D03*
D21*
X002681Y012181D02*
X006681Y008181D01*
X006681Y009181D02*
X004681Y011181D01*
X004681Y016681D01*
X004181Y017181D01*
X003521Y017181D01*
X003041Y016701D01*
X002681Y016081D02*
X002681Y012181D01*
X002681Y011181D02*
X002681Y010181D01*
X004181Y008681D01*
X004181Y001181D01*
X003181Y001181D02*
X003181Y008181D01*
X002681Y008681D01*
X002181Y008681D01*
X001181Y009181D01*
X005181Y011181D02*
X006181Y010181D01*
X005181Y011181D02*
X005181Y016181D01*
X006681Y017181D02*
X008681Y017181D01*
X010181Y017181D01*
X011181Y017181D01*
X012181Y015681D01*
X012181Y015181D01*
X012681Y014681D01*
X012681Y014181D01*
X013181Y013681D01*
X014181Y013681D01*
X013181Y012681D02*
X014681Y011181D01*
X014681Y010181D02*
X015181Y009681D01*
X015681Y009681D01*
X016681Y008681D01*
X017681Y007681D02*
X017681Y012181D01*
X017181Y012681D01*
X016181Y012681D01*
X016181Y011181D01*
X015681Y010681D01*
X011681Y010681D01*
X011681Y009681D02*
X011181Y009681D01*
X010681Y009181D01*
X010681Y003181D01*
X010181Y002681D01*
X008681Y002681D01*
X010181Y004181D02*
X010181Y009681D01*
X010681Y010181D02*
X010681Y014181D01*
X011681Y014681D01*
X012181Y015181D01*
X012181Y017681D02*
X013681Y017681D01*
X014681Y016681D01*
X015181Y016681D01*
X016181Y015681D01*
X016681Y015181D02*
X016181Y014681D01*
X016181Y012681D01*
X018181Y010681D02*
X018181Y008681D01*
X018681Y008181D01*
X019181Y008181D01*
X019181Y007181D02*
X018181Y007181D01*
X017681Y007681D01*
X015181Y007681D02*
X015181Y006681D01*
X016681Y004681D02*
X016681Y003681D01*
X016681Y002681D02*
X017181Y002181D01*
X019181Y002181D01*
X011681Y009681D02*
X010681Y010181D01*
X011681Y012681D02*
X013181Y012681D01*
X016681Y015181D02*
X018681Y015181D01*
X018931Y015431D01*
X018931Y017431D01*
X018931Y018681D01*
X017431Y017431D02*
X016556Y017431D01*
X015931Y018056D01*
X015931Y018681D01*
X008681Y014681D02*
X007181Y013181D01*
X007181Y001181D01*
X006181Y001181D02*
X006181Y002181D01*
X005681Y002681D01*
X006181Y002181D02*
X006681Y002681D01*
X005181Y004181D02*
X005181Y006181D01*
X005681Y006681D01*
X006181Y006681D01*
X003681Y005181D02*
X003681Y003181D01*
D22*
X003681Y003181D03*
X005681Y002681D03*
X006681Y002681D03*
X010181Y004181D03*
X006681Y008181D03*
X006681Y009181D03*
X006181Y010181D03*
X002681Y011181D03*
X010181Y009681D03*
X014681Y010181D03*
X014681Y011181D03*
X018181Y010681D03*
D23*
X005181Y016181D03*
M02*
