%
M48
M72
T01C0.0236
T02C0.0276
T03C0.0315
T04C0.0320
T05C0.0400
T06C0.0748
%
T01
X14681Y10181
X14681Y11181
X5181Y16181
X6181Y10181
X6681Y9181
X6681Y8181
X6681Y2681
X5681Y2681
X3681Y3181
X2681Y11181
X10181Y9681
X10181Y4181
X18181Y10681
T02
X8681Y16181
X8681Y17181
X13681Y6681
X13681Y5681
X14431Y18681
X15931Y18681
X18931Y18681
X17431Y18681
X6181Y7681
X6181Y5681
X6181Y6681
T03
X1981Y16081
X2351Y16701
X2681Y16081
X3041Y16701
X3351Y16081
T04
X8681Y1681
X8681Y2681
X8681Y3681
X8681Y4681
X8681Y5681
X8681Y6681
X8681Y7681
X8681Y8681
X8681Y9681
X8681Y10681
X8681Y11681
X8681Y12681
X8681Y13681
X8681Y14681
X10181Y17181
X12181Y15681
X11681Y14681
X11681Y9681
X11681Y2681
X11681Y1681
X11681Y3681
X11681Y4681
X11681Y5681
X11681Y6681
X11681Y7681
X11681Y8681
X11681Y10681
X11681Y11681
X11681Y12681
X11681Y13681
X14181Y13681
X14181Y14681
X15181Y8681
X15181Y7681
X15181Y6681
X15181Y2681
X16681Y2681
X16681Y3681
X16681Y4681
X17431Y13431
X18931Y13431
X16181Y15681
X12181Y17681
X12181Y18681
X17431Y17431
X18931Y17431
X10181Y16181
X5181Y4181
X6181Y4181
X3681Y5181
X2681Y5181
X16681Y8681
T05
X1181Y1181
X1181Y2181
X1181Y3181
X1181Y4181
X1181Y6181
X1181Y7181
X1181Y8181
X1181Y9181
X3181Y1181
X4181Y1181
X5181Y1181
X6181Y1181
X7181Y1181
X19181Y4181
X19181Y3181
X19181Y2181
X19181Y1181
X19181Y6181
X6681Y17181
X6681Y16181
X6681Y18181
X1181Y12181
X1181Y11181
X1181Y13181
X1181Y14181
X19181Y9181
X19181Y8181
X19181Y7181
T06
X4118Y18181
X1244Y18181
M30
