G75*
G70*
%OFA0B0*%
%FSLAX24Y24*%
%IPPOS*%
%LPD*%
%AMOC8*
5,1,8,0,0,1.08239X$1,22.5*
%
%ADD10C,0.0000*%
%ADD11C,0.0030*%
%ADD12C,0.0040*%
%ADD13C,0.0060*%
%ADD14C,0.0050*%
%ADD15R,0.0240X0.0340*%
%ADD16R,0.0340X0.0240*%
%ADD17C,0.0080*%
%ADD18C,0.0200*%
%ADD19R,0.0500X0.0750*%
%ADD20R,0.0300X0.0700*%
%ADD21R,0.0500X0.0300*%
%ADD22C,0.0100*%
%ADD23C,0.0020*%
D10*
X000181Y000181D02*
X000181Y019866D01*
X019866Y019866D01*
X019866Y000181D01*
X000181Y000181D01*
D11*
X001696Y000745D02*
X001745Y000696D01*
X001842Y000696D01*
X001890Y000745D01*
X001890Y000793D01*
X001842Y000842D01*
X001793Y000842D01*
X001842Y000842D02*
X001890Y000890D01*
X001890Y000938D01*
X001842Y000987D01*
X001745Y000987D01*
X001696Y000938D01*
X001991Y000745D02*
X002039Y000745D01*
X002039Y000696D01*
X001991Y000696D01*
X001991Y000745D01*
X002138Y000745D02*
X002187Y000696D01*
X002284Y000696D01*
X002332Y000745D01*
X002332Y000793D01*
X002284Y000842D01*
X002235Y000842D01*
X002284Y000842D02*
X002332Y000890D01*
X002332Y000938D01*
X002284Y000987D01*
X002187Y000987D01*
X002138Y000938D01*
X002433Y000987D02*
X002433Y000793D01*
X002530Y000696D01*
X002626Y000793D01*
X002626Y000987D01*
X002431Y001696D02*
X002286Y001696D01*
X002286Y001987D01*
X002431Y001987D01*
X002479Y001938D01*
X002479Y001745D01*
X002431Y001696D01*
X002185Y001696D02*
X002185Y001987D01*
X001991Y001987D02*
X001991Y001696D01*
X001890Y001745D02*
X001890Y001842D01*
X001793Y001842D01*
X001696Y001938D02*
X001696Y001745D01*
X001745Y001696D01*
X001842Y001696D01*
X001890Y001745D01*
X001890Y001938D02*
X001842Y001987D01*
X001745Y001987D01*
X001696Y001938D01*
X001991Y001987D02*
X002185Y001696D01*
X002136Y002696D02*
X002039Y002696D01*
X001991Y002745D01*
X001991Y002842D02*
X002088Y002890D01*
X002136Y002890D01*
X002185Y002842D01*
X002185Y002745D01*
X002136Y002696D01*
X001991Y002842D02*
X001991Y002987D01*
X002185Y002987D01*
X001890Y002938D02*
X001890Y002890D01*
X001842Y002842D01*
X001696Y002842D01*
X001696Y002987D02*
X001842Y002987D01*
X001890Y002938D01*
X001842Y002842D02*
X001890Y002793D01*
X001890Y002745D01*
X001842Y002696D01*
X001696Y002696D01*
X001696Y002987D01*
X001696Y003696D02*
X001696Y003890D01*
X001793Y003987D01*
X001890Y003890D01*
X001890Y003696D01*
X001890Y003842D02*
X001696Y003842D01*
X001991Y003842D02*
X002185Y003842D01*
X002136Y003987D02*
X001991Y003842D01*
X002136Y003696D02*
X002136Y003987D01*
X002245Y004196D02*
X002196Y004245D01*
X002390Y004438D01*
X002390Y004245D01*
X002342Y004196D01*
X002245Y004196D01*
X002196Y004245D02*
X002196Y004438D01*
X002245Y004487D01*
X002342Y004487D01*
X002390Y004438D01*
X002491Y004245D02*
X002539Y004245D01*
X002539Y004196D01*
X002491Y004196D01*
X002491Y004245D01*
X002638Y004196D02*
X002832Y004196D01*
X002735Y004196D02*
X002735Y004487D01*
X002638Y004390D01*
X002933Y004390D02*
X002933Y004245D01*
X002981Y004196D01*
X003126Y004196D01*
X003126Y004390D01*
X003228Y004342D02*
X003324Y004342D01*
X003228Y004487D02*
X003228Y004196D01*
X003228Y004487D02*
X003421Y004487D01*
X002136Y005696D02*
X002136Y005987D01*
X001991Y005842D01*
X002185Y005842D01*
X001890Y005890D02*
X001842Y005842D01*
X001696Y005842D01*
X001696Y005987D02*
X001842Y005987D01*
X001890Y005938D01*
X001890Y005890D01*
X001842Y005842D02*
X001890Y005793D01*
X001890Y005745D01*
X001842Y005696D01*
X001696Y005696D01*
X001696Y005987D01*
X001696Y006696D02*
X001842Y006696D01*
X001890Y006745D01*
X001890Y006793D01*
X001842Y006842D01*
X001696Y006842D01*
X001696Y006987D02*
X001842Y006987D01*
X001890Y006938D01*
X001890Y006890D01*
X001842Y006842D01*
X001991Y006938D02*
X002039Y006987D01*
X002136Y006987D01*
X002185Y006938D01*
X002185Y006890D01*
X002136Y006842D01*
X002185Y006793D01*
X002185Y006745D01*
X002136Y006696D01*
X002039Y006696D01*
X001991Y006745D01*
X002088Y006842D02*
X002136Y006842D01*
X001696Y006696D02*
X001696Y006987D01*
X001696Y007696D02*
X001842Y007696D01*
X001890Y007745D01*
X001890Y007793D01*
X001842Y007842D01*
X001696Y007842D01*
X001696Y007987D02*
X001842Y007987D01*
X001890Y007938D01*
X001890Y007890D01*
X001842Y007842D01*
X001991Y007938D02*
X002039Y007987D01*
X002136Y007987D01*
X002185Y007938D01*
X002185Y007890D01*
X001991Y007696D01*
X002185Y007696D01*
X001696Y007696D02*
X001696Y007987D01*
X001655Y009416D02*
X001461Y009416D01*
X001558Y009416D02*
X001558Y009707D01*
X001461Y009610D01*
X001360Y009610D02*
X001312Y009562D01*
X001166Y009562D01*
X001166Y009707D02*
X001166Y009416D01*
X001312Y009416D01*
X001360Y009465D01*
X001360Y009513D01*
X001312Y009562D01*
X001360Y009610D02*
X001360Y009658D01*
X001312Y009707D01*
X001166Y009707D01*
X001696Y010696D02*
X001842Y010696D01*
X001890Y010745D01*
X001890Y010793D01*
X001842Y010842D01*
X001696Y010842D01*
X001696Y010987D02*
X001696Y010696D01*
X001842Y010842D02*
X001890Y010890D01*
X001890Y010938D01*
X001842Y010987D01*
X001696Y010987D01*
X001991Y010938D02*
X002039Y010987D01*
X002136Y010987D01*
X002185Y010938D01*
X001991Y010745D01*
X002039Y010696D01*
X002136Y010696D01*
X002185Y010745D01*
X002185Y010938D01*
X001991Y010938D02*
X001991Y010745D01*
X001991Y011696D02*
X002185Y011696D01*
X002088Y011696D02*
X002088Y011987D01*
X001991Y011890D01*
X001890Y011890D02*
X001890Y011696D01*
X001890Y011842D02*
X001696Y011842D01*
X001696Y011890D02*
X001793Y011987D01*
X001890Y011890D01*
X001696Y011890D02*
X001696Y011696D01*
X001696Y012696D02*
X001696Y012890D01*
X001793Y012987D01*
X001890Y012890D01*
X001890Y012696D01*
X001991Y012745D02*
X002185Y012938D01*
X002185Y012745D01*
X002136Y012696D01*
X002039Y012696D01*
X001991Y012745D01*
X001991Y012938D01*
X002039Y012987D01*
X002136Y012987D01*
X002185Y012938D01*
X001890Y012842D02*
X001696Y012842D01*
X001696Y013696D02*
X001696Y013987D01*
X001793Y013890D01*
X001890Y013987D01*
X001890Y013696D01*
X001991Y013745D02*
X002039Y013696D01*
X002136Y013696D01*
X002185Y013745D01*
X002286Y013696D02*
X002479Y013696D01*
X002580Y013696D02*
X002580Y013987D01*
X002725Y013987D01*
X002774Y013938D01*
X002774Y013842D01*
X002725Y013793D01*
X002580Y013793D01*
X002677Y013793D02*
X002774Y013696D01*
X002286Y013696D02*
X002286Y013987D01*
X002185Y013938D02*
X002136Y013987D01*
X002039Y013987D01*
X001991Y013938D01*
X001991Y013745D01*
X007626Y017696D02*
X007916Y017696D01*
X007916Y017890D01*
X007916Y017991D02*
X007626Y017991D01*
X007626Y018136D01*
X007675Y018185D01*
X007868Y018185D01*
X007916Y018136D01*
X007916Y017991D01*
X007916Y018286D02*
X007916Y018479D01*
X007916Y018382D02*
X007626Y018382D01*
X007723Y018286D01*
X007723Y018580D02*
X007626Y018677D01*
X007916Y018677D01*
X007916Y018580D02*
X007916Y018774D01*
X007916Y018875D02*
X007916Y019068D01*
X007916Y018972D02*
X007626Y018972D01*
X007723Y018875D01*
X007626Y019170D02*
X007626Y019363D01*
X007675Y019363D01*
X007868Y019170D01*
X007916Y019170D01*
X008465Y018067D02*
X008465Y017776D01*
X008561Y017776D02*
X008368Y017776D01*
X008368Y017970D02*
X008465Y018067D01*
X008662Y018018D02*
X008662Y017825D01*
X008856Y018018D01*
X008856Y017825D01*
X008808Y017776D01*
X008711Y017776D01*
X008662Y017825D01*
X008662Y018018D02*
X008711Y018067D01*
X008808Y018067D01*
X008856Y018018D01*
X008957Y018067D02*
X008957Y017825D01*
X009005Y017776D01*
X009102Y017776D01*
X009151Y017825D01*
X009151Y018067D01*
X009252Y018067D02*
X009252Y017776D01*
X009252Y017922D02*
X009349Y017922D01*
X009445Y018067D02*
X009252Y018067D01*
X009771Y018025D02*
X009964Y018218D01*
X009964Y018025D01*
X009916Y017976D01*
X009819Y017976D01*
X009771Y018025D01*
X009771Y018218D01*
X009819Y018267D01*
X009916Y018267D01*
X009964Y018218D01*
X010065Y018025D02*
X010114Y018025D01*
X010114Y017976D01*
X010065Y017976D01*
X010065Y018025D01*
X010212Y017976D02*
X010406Y017976D01*
X010309Y017976D02*
X010309Y018267D01*
X010212Y018170D01*
X010507Y018170D02*
X010507Y018025D01*
X010555Y017976D01*
X010701Y017976D01*
X010701Y018170D01*
X010802Y018122D02*
X010899Y018122D01*
X010995Y018267D02*
X010802Y018267D01*
X010802Y017976D01*
X013346Y018062D02*
X013636Y018062D01*
X013636Y018256D01*
X013636Y018357D02*
X013636Y018502D01*
X013588Y018551D01*
X013395Y018551D01*
X013346Y018502D01*
X013346Y018357D01*
X013636Y018357D01*
X013491Y018159D02*
X013491Y018062D01*
X013346Y018062D02*
X013346Y018256D01*
X013443Y018652D02*
X013346Y018749D01*
X013636Y018749D01*
X013636Y018845D02*
X013636Y018652D01*
X014196Y017987D02*
X014342Y017987D01*
X014390Y017938D01*
X014390Y017842D01*
X014342Y017793D01*
X014196Y017793D01*
X014196Y017696D02*
X014196Y017987D01*
X014293Y017793D02*
X014390Y017696D01*
X014491Y017696D02*
X014685Y017696D01*
X014786Y017745D02*
X014834Y017696D01*
X014931Y017696D01*
X014979Y017745D01*
X014979Y017793D01*
X014931Y017842D01*
X014834Y017842D01*
X014786Y017890D01*
X014786Y017938D01*
X014834Y017987D01*
X014931Y017987D01*
X014979Y017938D01*
X015080Y017987D02*
X015080Y017696D01*
X015274Y017696D01*
X015177Y017842D02*
X015080Y017842D01*
X015080Y017987D02*
X015274Y017987D01*
X015375Y017987D02*
X015568Y017987D01*
X015472Y017987D02*
X015472Y017696D01*
X014685Y017987D02*
X014491Y017987D01*
X014491Y017696D01*
X014491Y017842D02*
X014588Y017842D01*
X013636Y017768D02*
X013636Y017961D01*
X013636Y017768D02*
X013346Y017768D01*
X012976Y015521D02*
X012976Y015328D01*
X013266Y015328D01*
X013266Y015226D02*
X013073Y015226D01*
X013121Y015328D02*
X013121Y015424D01*
X013266Y015226D02*
X013266Y015081D01*
X013218Y015033D01*
X013073Y015033D01*
X013266Y014932D02*
X013266Y014738D01*
X013266Y014835D02*
X012976Y014835D01*
X013073Y014738D01*
X013218Y014639D02*
X013266Y014639D01*
X013266Y014591D01*
X013218Y014591D01*
X013218Y014639D01*
X013218Y014490D02*
X013025Y014490D01*
X013218Y014296D01*
X013266Y014345D01*
X013266Y014442D01*
X013218Y014490D01*
X013025Y014490D02*
X012976Y014442D01*
X012976Y014345D01*
X013025Y014296D01*
X013218Y014296D01*
X009666Y010915D02*
X009666Y010730D01*
X009296Y010730D01*
X009296Y010915D01*
X009358Y010977D01*
X009420Y010977D01*
X009481Y010915D01*
X009481Y010730D01*
X009420Y010608D02*
X009481Y010547D01*
X009481Y010423D01*
X009420Y010362D01*
X009358Y010362D01*
X009296Y010423D01*
X009296Y010547D01*
X009358Y010608D01*
X009420Y010608D01*
X009481Y010547D02*
X009543Y010608D01*
X009605Y010608D01*
X009666Y010547D01*
X009666Y010423D01*
X009605Y010362D01*
X009543Y010362D01*
X009481Y010423D01*
X009420Y010240D02*
X009358Y010240D01*
X009296Y010178D01*
X009296Y010055D01*
X009358Y009993D01*
X009420Y010240D02*
X009666Y009993D01*
X009666Y010240D01*
X009666Y009872D02*
X009666Y009625D01*
X009666Y009748D02*
X009296Y009748D01*
X009420Y009625D01*
X009296Y009504D02*
X009296Y009257D01*
X009666Y009257D01*
X009605Y009135D02*
X009666Y009074D01*
X009666Y008950D01*
X009605Y008888D01*
X009358Y009135D01*
X009605Y009135D01*
X009481Y009257D02*
X009481Y009380D01*
X009358Y009135D02*
X009296Y009074D01*
X009296Y008950D01*
X009358Y008888D01*
X009605Y008888D01*
X009605Y008767D02*
X009481Y008767D01*
X009420Y008705D01*
X009420Y008644D01*
X009481Y008520D01*
X009296Y008520D01*
X009296Y008767D01*
X009358Y008399D02*
X009296Y008337D01*
X009296Y008213D01*
X009358Y008152D01*
X009296Y008030D02*
X009666Y007783D01*
X009666Y007662D02*
X009296Y007662D01*
X009420Y007539D01*
X009296Y007415D01*
X009666Y007415D01*
X009666Y007294D02*
X009666Y007047D01*
X009420Y007294D01*
X009358Y007294D01*
X009296Y007232D01*
X009296Y007109D01*
X009358Y007047D01*
X009358Y006925D02*
X009420Y006925D01*
X009481Y006864D01*
X009543Y006925D01*
X009605Y006925D01*
X009666Y006864D01*
X009666Y006740D01*
X009605Y006679D01*
X009605Y006557D02*
X009666Y006495D01*
X009666Y006372D01*
X009605Y006310D01*
X009358Y006310D01*
X009296Y006372D01*
X009296Y006495D01*
X009358Y006557D01*
X009358Y006679D02*
X009296Y006740D01*
X009296Y006864D01*
X009358Y006925D01*
X009481Y006864D02*
X009481Y006802D01*
X009296Y006188D02*
X009296Y006065D01*
X009296Y006126D02*
X009666Y006126D01*
X009666Y006065D02*
X009666Y006188D01*
X009481Y005943D02*
X009543Y005882D01*
X009543Y005696D01*
X009666Y005696D02*
X009296Y005696D01*
X009296Y005882D01*
X009358Y005943D01*
X009481Y005943D01*
X009296Y007783D02*
X009666Y008030D01*
X009666Y008152D02*
X009420Y008399D01*
X009358Y008399D01*
X009605Y008520D02*
X009666Y008582D01*
X009666Y008705D01*
X009605Y008767D01*
X009666Y008399D02*
X009666Y008152D01*
X009666Y010915D02*
X009605Y010977D01*
X009543Y010977D01*
X009481Y010915D01*
X005666Y007774D02*
X005666Y007580D01*
X005473Y007774D01*
X005473Y007580D01*
X005521Y007479D02*
X005521Y007286D01*
X005666Y007286D02*
X005376Y007286D01*
X005376Y007185D02*
X005666Y007185D01*
X005666Y006991D02*
X005376Y006991D01*
X005473Y007088D01*
X005376Y007185D01*
X005425Y006890D02*
X005376Y006842D01*
X005376Y006745D01*
X005425Y006696D01*
X005473Y006696D01*
X005521Y006745D01*
X005521Y006842D01*
X005570Y006890D01*
X005618Y006890D01*
X005666Y006842D01*
X005666Y006745D01*
X005618Y006696D01*
X005570Y006696D01*
X005521Y006745D01*
X005521Y006842D02*
X005473Y006890D01*
X005425Y006890D01*
X005376Y007479D02*
X005666Y007479D01*
X005828Y003387D02*
X006021Y003387D01*
X005924Y003242D02*
X005828Y003242D01*
X005726Y003290D02*
X005726Y003096D01*
X005581Y003096D01*
X005533Y003145D01*
X005533Y003290D01*
X005432Y003096D02*
X005238Y003096D01*
X005335Y003096D02*
X005335Y003387D01*
X005238Y003290D01*
X005139Y003145D02*
X005139Y003096D01*
X005091Y003096D01*
X005091Y003145D01*
X005139Y003145D01*
X004990Y003145D02*
X004990Y003338D01*
X004796Y003145D01*
X004845Y003096D01*
X004942Y003096D01*
X004990Y003145D01*
X004990Y003338D02*
X004942Y003387D01*
X004845Y003387D01*
X004796Y003338D01*
X004796Y003145D01*
X005828Y003096D02*
X005828Y003387D01*
X013196Y004696D02*
X013390Y004696D01*
X013293Y004696D02*
X013293Y004987D01*
X013196Y004890D01*
X013491Y004938D02*
X013491Y004745D01*
X013685Y004938D01*
X013685Y004745D01*
X013636Y004696D01*
X013539Y004696D01*
X013491Y004745D01*
X013491Y004938D02*
X013539Y004987D01*
X013636Y004987D01*
X013685Y004938D01*
X014080Y004890D02*
X014080Y004745D01*
X014129Y004696D01*
X014274Y004696D01*
X014274Y004890D01*
X014375Y004842D02*
X014472Y004842D01*
X014568Y004987D02*
X014375Y004987D01*
X014375Y004696D01*
X016895Y001845D02*
X016846Y001797D01*
X016846Y001700D01*
X016895Y001652D01*
X016895Y001551D02*
X016846Y001502D01*
X016846Y001357D01*
X017136Y001357D01*
X017136Y001502D01*
X017088Y001551D01*
X016895Y001551D01*
X017136Y001652D02*
X016943Y001845D01*
X016895Y001845D01*
X017136Y001845D02*
X017136Y001652D01*
X017136Y001256D02*
X017136Y001062D01*
X016846Y001062D01*
X016846Y001256D01*
X016991Y001159D02*
X016991Y001062D01*
X017136Y000961D02*
X017136Y000768D01*
X016846Y000768D01*
X017857Y001425D02*
X017905Y001376D01*
X018002Y001376D01*
X018051Y001425D01*
X018051Y001522D01*
X018002Y001570D01*
X017954Y001570D01*
X017857Y001522D01*
X017857Y001667D01*
X018051Y001667D01*
X018152Y001667D02*
X018152Y001473D01*
X018249Y001376D01*
X018345Y001473D01*
X018345Y001667D01*
X018297Y002376D02*
X018152Y002376D01*
X018152Y002667D01*
X018297Y002667D01*
X018345Y002618D01*
X018345Y002425D01*
X018297Y002376D01*
X018051Y002376D02*
X018051Y002667D01*
X017857Y002667D02*
X018051Y002376D01*
X017857Y002376D02*
X017857Y002667D01*
X017756Y002618D02*
X017708Y002667D01*
X017611Y002667D01*
X017562Y002618D01*
X017562Y002425D01*
X017611Y002376D01*
X017708Y002376D01*
X017756Y002425D01*
X017756Y002522D01*
X017659Y002522D01*
X017857Y003376D02*
X018002Y003376D01*
X018051Y003425D01*
X018051Y003473D01*
X018002Y003522D01*
X017857Y003522D01*
X017857Y003667D02*
X017857Y003376D01*
X018002Y003522D02*
X018051Y003570D01*
X018051Y003618D01*
X018002Y003667D01*
X017857Y003667D01*
X018152Y003667D02*
X018345Y003667D01*
X018345Y003618D01*
X018152Y003425D01*
X018152Y003376D01*
X018200Y004501D02*
X018152Y004550D01*
X018152Y004598D01*
X018200Y004647D01*
X018297Y004647D01*
X018345Y004598D01*
X018345Y004550D01*
X018297Y004501D01*
X018200Y004501D01*
X018200Y004647D02*
X018152Y004695D01*
X018152Y004743D01*
X018200Y004792D01*
X018297Y004792D01*
X018345Y004743D01*
X018345Y004695D01*
X018297Y004647D01*
X018051Y004695D02*
X018002Y004647D01*
X017857Y004647D01*
X017857Y004792D02*
X018002Y004792D01*
X018051Y004743D01*
X018051Y004695D01*
X018002Y004647D02*
X018051Y004598D01*
X018051Y004550D01*
X018002Y004501D01*
X017857Y004501D01*
X017857Y004792D01*
X018071Y006571D02*
X018217Y006571D01*
X018265Y006620D01*
X018265Y006668D01*
X018217Y006717D01*
X018071Y006717D01*
X018071Y006862D02*
X018071Y006571D01*
X018217Y006717D02*
X018265Y006765D01*
X018265Y006813D01*
X018217Y006862D01*
X018071Y006862D01*
X018366Y006813D02*
X018366Y006765D01*
X018414Y006717D01*
X018560Y006717D01*
X018560Y006813D02*
X018560Y006620D01*
X018511Y006571D01*
X018414Y006571D01*
X018366Y006620D01*
X018366Y006813D02*
X018414Y006862D01*
X018511Y006862D01*
X018560Y006813D01*
X018556Y007571D02*
X018459Y007571D01*
X018411Y007620D01*
X018310Y007571D02*
X018116Y007571D01*
X018213Y007571D02*
X018213Y007862D01*
X018116Y007765D01*
X018015Y007765D02*
X017967Y007717D01*
X017821Y007717D01*
X017821Y007862D02*
X017821Y007571D01*
X017967Y007571D01*
X018015Y007620D01*
X018015Y007668D01*
X017967Y007717D01*
X018015Y007765D02*
X018015Y007813D01*
X017967Y007862D01*
X017821Y007862D01*
X018411Y007813D02*
X018459Y007862D01*
X018556Y007862D01*
X018604Y007813D01*
X018604Y007765D01*
X018556Y007717D01*
X018604Y007668D01*
X018604Y007620D01*
X018556Y007571D01*
X018556Y007717D02*
X018507Y007717D01*
X018556Y008571D02*
X018556Y008862D01*
X018411Y008717D01*
X018604Y008717D01*
X018310Y008571D02*
X018116Y008571D01*
X018213Y008571D02*
X018213Y008862D01*
X018116Y008765D01*
X018015Y008765D02*
X017967Y008717D01*
X017821Y008717D01*
X017821Y008862D02*
X017821Y008571D01*
X017967Y008571D01*
X018015Y008620D01*
X018015Y008668D01*
X017967Y008717D01*
X018015Y008765D02*
X018015Y008813D01*
X017967Y008862D01*
X017821Y008862D01*
X017821Y009571D02*
X017967Y009571D01*
X018015Y009620D01*
X018015Y009668D01*
X017967Y009717D01*
X017821Y009717D01*
X017821Y009862D02*
X017821Y009571D01*
X017967Y009717D02*
X018015Y009765D01*
X018015Y009813D01*
X017967Y009862D01*
X017821Y009862D01*
X018116Y009765D02*
X018213Y009862D01*
X018213Y009571D01*
X018116Y009571D02*
X018310Y009571D01*
X018411Y009620D02*
X018459Y009571D01*
X018556Y009571D01*
X018604Y009620D01*
X018604Y009717D01*
X018556Y009765D01*
X018507Y009765D01*
X018411Y009717D01*
X018411Y009862D01*
X018604Y009862D01*
X014136Y008797D02*
X014136Y008700D01*
X014088Y008652D01*
X014088Y008551D02*
X013895Y008551D01*
X013846Y008502D01*
X013846Y008357D01*
X014136Y008357D01*
X014136Y008502D01*
X014088Y008551D01*
X013895Y008652D02*
X013846Y008700D01*
X013846Y008797D01*
X013895Y008845D01*
X013943Y008845D01*
X013991Y008797D01*
X014040Y008845D01*
X014088Y008845D01*
X014136Y008797D01*
X013991Y008797D02*
X013991Y008749D01*
X013846Y008256D02*
X013846Y008062D01*
X014136Y008062D01*
X014136Y008256D01*
X013991Y008159D02*
X013991Y008062D01*
X014136Y007961D02*
X014136Y007768D01*
X013846Y007768D01*
X017245Y017696D02*
X017342Y017696D01*
X017390Y017745D01*
X017390Y017987D01*
X017491Y017938D02*
X017539Y017987D01*
X017636Y017987D01*
X017685Y017938D01*
X017636Y017842D02*
X017685Y017793D01*
X017685Y017745D01*
X017636Y017696D01*
X017539Y017696D01*
X017491Y017745D01*
X017539Y017842D02*
X017636Y017842D01*
X017539Y017842D02*
X017491Y017890D01*
X017491Y017938D01*
X017196Y017987D02*
X017196Y017745D01*
X017245Y017696D01*
X017786Y017696D02*
X017979Y017696D01*
X018080Y017696D02*
X018080Y017987D01*
X018225Y017987D01*
X018274Y017938D01*
X018274Y017842D01*
X018225Y017793D01*
X018080Y017793D01*
X018177Y017793D02*
X018274Y017696D01*
X017979Y017987D02*
X017786Y017987D01*
X017786Y017696D01*
X017786Y017842D02*
X017882Y017842D01*
D12*
X004911Y013687D02*
X004911Y013514D01*
X004911Y013601D02*
X004564Y013601D01*
X004564Y013514D01*
X004651Y013345D02*
X004564Y013259D01*
X004564Y012998D01*
X004911Y012998D01*
X004911Y012830D02*
X004651Y012830D01*
X004564Y012743D01*
X004564Y012569D01*
X004738Y012569D02*
X004738Y012830D01*
X004911Y012830D02*
X004911Y012569D01*
X004825Y012483D01*
X004738Y012569D01*
X004651Y012314D02*
X004564Y012227D01*
X004651Y012141D01*
X004911Y012141D01*
X004911Y012314D02*
X004651Y012314D01*
X004651Y012141D02*
X004564Y012054D01*
X004564Y011967D01*
X004911Y011967D01*
X004911Y011798D02*
X004911Y011538D01*
X004825Y011451D01*
X004651Y011451D01*
X004564Y011538D01*
X004564Y011798D01*
X004391Y011798D02*
X004911Y011798D01*
X004911Y011283D02*
X004564Y011283D01*
X004391Y011109D01*
X004564Y010936D01*
X004911Y010936D01*
X004651Y010936D02*
X004651Y011283D01*
X004161Y011257D02*
X004075Y011170D01*
X003728Y011517D01*
X004075Y011517D01*
X004161Y011430D01*
X004161Y011257D01*
X004075Y011170D02*
X003728Y011170D01*
X003641Y011257D01*
X003641Y011430D01*
X003728Y011517D01*
X003641Y011686D02*
X003641Y012033D01*
X003814Y012201D02*
X003641Y012375D01*
X004161Y012375D01*
X004161Y012548D02*
X004161Y012201D01*
X003901Y011859D02*
X003901Y011686D01*
X004161Y011686D02*
X003641Y011686D01*
X003641Y011001D02*
X003641Y010655D01*
X003901Y010655D01*
X003814Y010828D01*
X003814Y010915D01*
X003901Y011001D01*
X004075Y011001D01*
X004161Y010915D01*
X004161Y010741D01*
X004075Y010655D01*
X004161Y010486D02*
X004161Y010139D01*
X003814Y010486D01*
X003728Y010486D01*
X003641Y010399D01*
X003641Y010226D01*
X003728Y010139D01*
X003641Y009970D02*
X004161Y009623D01*
X004161Y009455D02*
X003641Y009455D01*
X003814Y009281D01*
X003641Y009108D01*
X004161Y009108D01*
X004161Y008939D02*
X004161Y008592D01*
X003814Y008939D01*
X003728Y008939D01*
X003641Y008852D01*
X003641Y008679D01*
X003728Y008592D01*
X003728Y008423D02*
X003814Y008423D01*
X003901Y008337D01*
X003988Y008423D01*
X004075Y008423D01*
X004161Y008337D01*
X004161Y008163D01*
X004075Y008076D01*
X004075Y007908D02*
X004161Y007821D01*
X004161Y007648D01*
X004075Y007561D01*
X003728Y007561D01*
X003641Y007648D01*
X003641Y007821D01*
X003728Y007908D01*
X003728Y008076D02*
X003641Y008163D01*
X003641Y008337D01*
X003728Y008423D01*
X003901Y008337D02*
X003901Y008250D01*
X004391Y008358D02*
X004911Y008358D01*
X004911Y008618D01*
X004825Y008705D01*
X004651Y008705D01*
X004564Y008618D01*
X004564Y008358D01*
X004651Y008189D02*
X004564Y008102D01*
X004564Y007929D01*
X004738Y007929D02*
X004738Y008189D01*
X004651Y008189D02*
X004911Y008189D01*
X004911Y007929D01*
X004825Y007842D01*
X004738Y007929D01*
X004738Y007673D02*
X004825Y007673D01*
X004911Y007587D01*
X004911Y007413D01*
X004825Y007326D01*
X004651Y007413D02*
X004651Y007587D01*
X004738Y007673D01*
X004478Y007673D02*
X004391Y007587D01*
X004391Y007413D01*
X004478Y007326D01*
X004564Y007326D01*
X004651Y007413D01*
X004161Y007391D02*
X004161Y007217D01*
X004161Y007304D02*
X003641Y007304D01*
X003641Y007217D02*
X003641Y007391D01*
X003728Y007048D02*
X003901Y007048D01*
X003988Y006962D01*
X003988Y006701D01*
X004161Y006701D02*
X003641Y006701D01*
X003641Y006962D01*
X003728Y007048D01*
X004651Y008873D02*
X004564Y008960D01*
X004564Y009134D01*
X004651Y009220D01*
X004738Y009220D01*
X004738Y008873D01*
X004825Y008873D02*
X004651Y008873D01*
X004825Y008873D02*
X004911Y008960D01*
X004911Y009134D01*
X004825Y009389D02*
X004651Y009389D01*
X004564Y009476D01*
X004564Y009649D01*
X004651Y009736D01*
X004738Y009736D01*
X004738Y009389D01*
X004825Y009389D02*
X004911Y009476D01*
X004911Y009649D01*
X004911Y009905D02*
X004564Y009905D01*
X004564Y010165D01*
X004651Y010251D01*
X004911Y010251D01*
X004161Y009970D02*
X003641Y009623D01*
X003728Y012717D02*
X003641Y012804D01*
X003641Y012977D01*
X003728Y013064D01*
X003814Y013064D01*
X004161Y012717D01*
X004161Y013064D01*
X004075Y013233D02*
X003988Y013233D01*
X003901Y013319D01*
X003901Y013493D01*
X003988Y013580D01*
X004075Y013580D01*
X004161Y013493D01*
X004161Y013319D01*
X004075Y013233D01*
X003901Y013319D02*
X003814Y013233D01*
X003728Y013233D01*
X003641Y013319D01*
X003641Y013493D01*
X003728Y013580D01*
X003814Y013580D01*
X003901Y013493D01*
X003901Y013748D02*
X003901Y014009D01*
X003988Y014095D01*
X004075Y014095D01*
X004161Y014009D01*
X004161Y013748D01*
X003641Y013748D01*
X003641Y014009D01*
X003728Y014095D01*
X003814Y014095D01*
X003901Y014009D01*
X004304Y013601D02*
X004391Y013601D01*
X004651Y013345D02*
X004911Y013345D01*
D13*
X006131Y015181D02*
X007281Y015181D01*
X007381Y015281D01*
X007381Y019081D01*
X007281Y019181D01*
X006131Y019181D01*
X009681Y017531D02*
X009681Y015831D01*
X009683Y015814D01*
X009687Y015797D01*
X009694Y015781D01*
X009704Y015767D01*
X009717Y015754D01*
X009731Y015744D01*
X009747Y015737D01*
X009764Y015733D01*
X009781Y015731D01*
X010581Y015731D01*
X010598Y015733D01*
X010615Y015737D01*
X010631Y015744D01*
X010645Y015754D01*
X010658Y015767D01*
X010668Y015781D01*
X010675Y015797D01*
X010679Y015814D01*
X010681Y015831D01*
X010681Y017531D01*
X010679Y017548D01*
X010675Y017565D01*
X010668Y017581D01*
X010658Y017595D01*
X010645Y017608D01*
X010631Y017618D01*
X010615Y017625D01*
X010598Y017629D01*
X010581Y017631D01*
X009781Y017631D01*
X009764Y017629D01*
X009747Y017625D01*
X009731Y017618D01*
X009717Y017608D01*
X009704Y017595D01*
X009694Y017581D01*
X009687Y017565D01*
X009683Y017548D01*
X009681Y017531D01*
X010181Y016831D02*
X010181Y016781D01*
X010181Y016581D02*
X010181Y016531D01*
X009781Y015181D02*
X009783Y015142D01*
X009789Y015103D01*
X009798Y015065D01*
X009811Y015028D01*
X009828Y014992D01*
X009848Y014959D01*
X009872Y014927D01*
X009898Y014898D01*
X009927Y014872D01*
X009959Y014848D01*
X009992Y014828D01*
X010028Y014811D01*
X010065Y014798D01*
X010103Y014789D01*
X010142Y014783D01*
X010181Y014781D01*
X010220Y014783D01*
X010259Y014789D01*
X010297Y014798D01*
X010334Y014811D01*
X010370Y014828D01*
X010403Y014848D01*
X010435Y014872D01*
X010464Y014898D01*
X010490Y014927D01*
X010514Y014959D01*
X010534Y014992D01*
X010551Y015028D01*
X010564Y015065D01*
X010573Y015103D01*
X010579Y015142D01*
X010581Y015181D01*
X011331Y015181D01*
X011331Y001181D01*
X009031Y001181D01*
X009031Y015181D01*
X009781Y015181D01*
X012549Y017707D02*
X012584Y017737D01*
X012617Y017768D01*
X012647Y017803D01*
X012674Y017839D01*
X012698Y017877D01*
X012720Y017917D01*
X012738Y017959D01*
X012754Y018002D01*
X012766Y018046D01*
X012774Y018090D01*
X012779Y018136D01*
X012781Y018181D01*
X012779Y018226D01*
X012774Y018272D01*
X012766Y018316D01*
X012754Y018360D01*
X012738Y018403D01*
X012720Y018445D01*
X012698Y018485D01*
X012674Y018523D01*
X012647Y018559D01*
X012617Y018594D01*
X012584Y018625D01*
X012549Y018655D01*
X011581Y018181D02*
X011583Y018135D01*
X011588Y018089D01*
X011597Y018043D01*
X011609Y017998D01*
X011625Y017955D01*
X011644Y017913D01*
X011667Y017872D01*
X011692Y017833D01*
X011720Y017797D01*
X011751Y017762D01*
X011785Y017730D01*
X011821Y017701D01*
X011581Y018181D02*
X011583Y018228D01*
X011589Y018276D01*
X011598Y018322D01*
X011611Y018368D01*
X011627Y018412D01*
X011647Y018456D01*
X011671Y018497D01*
X011697Y018536D01*
X011727Y018573D01*
X011760Y018608D01*
X011795Y018640D01*
X011832Y018669D01*
X013031Y016131D02*
X013181Y016131D01*
X013231Y016081D01*
X015131Y016081D01*
X015181Y016131D01*
X015331Y016131D01*
X015348Y016129D01*
X015365Y016125D01*
X015381Y016118D01*
X015395Y016108D01*
X015408Y016095D01*
X015418Y016081D01*
X015425Y016065D01*
X015429Y016048D01*
X015431Y016031D01*
X015431Y015331D01*
X015429Y015314D01*
X015425Y015297D01*
X015418Y015281D01*
X015408Y015267D01*
X015395Y015254D01*
X015381Y015244D01*
X015365Y015237D01*
X015348Y015233D01*
X015331Y015231D01*
X015181Y015231D01*
X015131Y015281D01*
X013231Y015281D01*
X013181Y015231D01*
X013031Y015231D01*
X013014Y015233D01*
X012997Y015237D01*
X012981Y015244D01*
X012967Y015254D01*
X012954Y015267D01*
X012944Y015281D01*
X012937Y015297D01*
X012933Y015314D01*
X012931Y015331D01*
X012931Y016031D01*
X012933Y016048D01*
X012937Y016065D01*
X012944Y016081D01*
X012954Y016095D01*
X012967Y016108D01*
X012981Y016118D01*
X012997Y016125D01*
X013014Y016129D01*
X013031Y016131D01*
X013781Y015131D02*
X014581Y015131D01*
X014598Y015129D01*
X014615Y015125D01*
X014631Y015118D01*
X014645Y015108D01*
X014658Y015095D01*
X014668Y015081D01*
X014675Y015065D01*
X014679Y015048D01*
X014681Y015031D01*
X014681Y013331D01*
X014679Y013314D01*
X014675Y013297D01*
X014668Y013281D01*
X014658Y013267D01*
X014645Y013254D01*
X014631Y013244D01*
X014615Y013237D01*
X014598Y013233D01*
X014581Y013231D01*
X013781Y013231D01*
X013764Y013233D01*
X013747Y013237D01*
X013731Y013244D01*
X013717Y013254D01*
X013704Y013267D01*
X013694Y013281D01*
X013687Y013297D01*
X013683Y013314D01*
X013681Y013331D01*
X013681Y015031D01*
X013683Y015048D01*
X013687Y015065D01*
X013694Y015081D01*
X013704Y015095D01*
X013717Y015108D01*
X013731Y015118D01*
X013747Y015125D01*
X013764Y015129D01*
X013781Y015131D01*
X014181Y014331D02*
X014181Y014281D01*
X014181Y014081D02*
X014181Y014031D01*
X016981Y014281D02*
X016981Y014431D01*
X017031Y014481D01*
X017031Y016381D01*
X016981Y016431D01*
X016981Y016581D01*
X016983Y016598D01*
X016987Y016615D01*
X016994Y016631D01*
X017004Y016645D01*
X017017Y016658D01*
X017031Y016668D01*
X017047Y016675D01*
X017064Y016679D01*
X017081Y016681D01*
X017781Y016681D01*
X017798Y016679D01*
X017815Y016675D01*
X017831Y016668D01*
X017845Y016658D01*
X017858Y016645D01*
X017868Y016631D01*
X017875Y016615D01*
X017879Y016598D01*
X017881Y016581D01*
X017881Y016431D01*
X017831Y016381D01*
X017831Y014481D01*
X017881Y014431D01*
X017881Y014281D01*
X017879Y014264D01*
X017875Y014247D01*
X017868Y014231D01*
X017858Y014217D01*
X017845Y014204D01*
X017831Y014194D01*
X017815Y014187D01*
X017798Y014183D01*
X017781Y014181D01*
X017081Y014181D01*
X017064Y014183D01*
X017047Y014187D01*
X017031Y014194D01*
X017017Y014204D01*
X017004Y014217D01*
X016994Y014231D01*
X016987Y014247D01*
X016983Y014264D01*
X016981Y014281D01*
X018481Y014281D02*
X018481Y014431D01*
X018531Y014481D01*
X018531Y016381D01*
X018481Y016431D01*
X018481Y016581D01*
X018483Y016598D01*
X018487Y016615D01*
X018494Y016631D01*
X018504Y016645D01*
X018517Y016658D01*
X018531Y016668D01*
X018547Y016675D01*
X018564Y016679D01*
X018581Y016681D01*
X019281Y016681D01*
X019298Y016679D01*
X019315Y016675D01*
X019331Y016668D01*
X019345Y016658D01*
X019358Y016645D01*
X019368Y016631D01*
X019375Y016615D01*
X019379Y016598D01*
X019381Y016581D01*
X019381Y016431D01*
X019331Y016381D01*
X019331Y014481D01*
X019381Y014431D01*
X019381Y014281D01*
X019379Y014264D01*
X019375Y014247D01*
X019368Y014231D01*
X019358Y014217D01*
X019345Y014204D01*
X019331Y014194D01*
X019315Y014187D01*
X019298Y014183D01*
X019281Y014181D01*
X018581Y014181D01*
X018564Y014183D01*
X018547Y014187D01*
X018531Y014194D01*
X018517Y014204D01*
X018504Y014217D01*
X018494Y014231D01*
X018487Y014247D01*
X018483Y014264D01*
X018481Y014281D01*
X015781Y008181D02*
X015779Y008136D01*
X015774Y008090D01*
X015766Y008046D01*
X015754Y008002D01*
X015738Y007959D01*
X015720Y007917D01*
X015698Y007877D01*
X015674Y007839D01*
X015647Y007803D01*
X015617Y007768D01*
X015584Y007737D01*
X015549Y007707D01*
X015781Y008181D02*
X015779Y008226D01*
X015774Y008272D01*
X015766Y008316D01*
X015754Y008360D01*
X015738Y008403D01*
X015720Y008445D01*
X015698Y008485D01*
X015674Y008523D01*
X015647Y008559D01*
X015617Y008594D01*
X015584Y008625D01*
X015549Y008655D01*
X014581Y008181D02*
X014583Y008135D01*
X014588Y008089D01*
X014597Y008043D01*
X014609Y007998D01*
X014625Y007955D01*
X014644Y007913D01*
X014667Y007872D01*
X014692Y007833D01*
X014720Y007797D01*
X014751Y007762D01*
X014785Y007730D01*
X014821Y007701D01*
X014581Y008181D02*
X014583Y008228D01*
X014589Y008276D01*
X014598Y008322D01*
X014611Y008368D01*
X014627Y008412D01*
X014647Y008456D01*
X014671Y008497D01*
X014697Y008536D01*
X014727Y008573D01*
X014760Y008608D01*
X014795Y008640D01*
X014832Y008669D01*
X016231Y007831D02*
X016231Y007681D01*
X016281Y007631D01*
X016281Y005731D01*
X016231Y005681D01*
X016231Y005531D01*
X016233Y005514D01*
X016237Y005497D01*
X016244Y005481D01*
X016254Y005467D01*
X016267Y005454D01*
X016281Y005444D01*
X016297Y005437D01*
X016314Y005433D01*
X016331Y005431D01*
X017031Y005431D01*
X017048Y005433D01*
X017065Y005437D01*
X017081Y005444D01*
X017095Y005454D01*
X017108Y005467D01*
X017118Y005481D01*
X017125Y005497D01*
X017129Y005514D01*
X017131Y005531D01*
X017131Y005681D01*
X017081Y005731D01*
X017081Y007631D01*
X017131Y007681D01*
X017131Y007831D01*
X017129Y007848D01*
X017125Y007865D01*
X017118Y007881D01*
X017108Y007895D01*
X017095Y007908D01*
X017081Y007918D01*
X017065Y007925D01*
X017048Y007929D01*
X017031Y007931D01*
X016331Y007931D01*
X016314Y007929D01*
X016297Y007925D01*
X016281Y007918D01*
X016267Y007908D01*
X016254Y007895D01*
X016244Y007881D01*
X016237Y007865D01*
X016233Y007848D01*
X016231Y007831D01*
X015531Y005931D02*
X014831Y005931D01*
X014814Y005929D01*
X014797Y005925D01*
X014781Y005918D01*
X014767Y005908D01*
X014754Y005895D01*
X014744Y005881D01*
X014737Y005865D01*
X014733Y005848D01*
X014731Y005831D01*
X014731Y005681D01*
X014781Y005631D01*
X014781Y003731D01*
X014731Y003681D01*
X014731Y003531D01*
X014733Y003514D01*
X014737Y003497D01*
X014744Y003481D01*
X014754Y003467D01*
X014767Y003454D01*
X014781Y003444D01*
X014797Y003437D01*
X014814Y003433D01*
X014831Y003431D01*
X015531Y003431D01*
X015548Y003433D01*
X015565Y003437D01*
X015581Y003444D01*
X015595Y003454D01*
X015608Y003467D01*
X015618Y003481D01*
X015625Y003497D01*
X015629Y003514D01*
X015631Y003531D01*
X015631Y003681D01*
X015581Y003731D01*
X015581Y005631D01*
X015631Y005681D01*
X015631Y005831D01*
X015629Y005848D01*
X015625Y005865D01*
X015618Y005881D01*
X015608Y005895D01*
X015595Y005908D01*
X015581Y005918D01*
X015565Y005925D01*
X015548Y005929D01*
X015531Y005931D01*
X016313Y003655D02*
X016278Y003625D01*
X016245Y003594D01*
X016215Y003559D01*
X016188Y003523D01*
X016164Y003485D01*
X016142Y003445D01*
X016124Y003403D01*
X016108Y003360D01*
X016096Y003316D01*
X016088Y003272D01*
X016083Y003226D01*
X016081Y003181D01*
X016083Y003136D01*
X016088Y003090D01*
X016096Y003046D01*
X016108Y003002D01*
X016124Y002959D01*
X016142Y002917D01*
X016164Y002877D01*
X016188Y002839D01*
X016215Y002803D01*
X016245Y002768D01*
X016278Y002737D01*
X016313Y002707D01*
X017281Y003181D02*
X017279Y003227D01*
X017274Y003273D01*
X017265Y003319D01*
X017253Y003364D01*
X017237Y003407D01*
X017218Y003449D01*
X017195Y003490D01*
X017170Y003529D01*
X017142Y003565D01*
X017111Y003600D01*
X017077Y003632D01*
X017041Y003661D01*
X017281Y003181D02*
X017279Y003134D01*
X017273Y003086D01*
X017264Y003040D01*
X017251Y002994D01*
X017235Y002950D01*
X017215Y002906D01*
X017191Y002865D01*
X017165Y002826D01*
X017135Y002789D01*
X017102Y002754D01*
X017067Y002722D01*
X017030Y002693D01*
X006631Y003781D02*
X006631Y004581D01*
X006629Y004598D01*
X006625Y004615D01*
X006618Y004631D01*
X006608Y004645D01*
X006595Y004658D01*
X006581Y004668D01*
X006565Y004675D01*
X006548Y004679D01*
X006531Y004681D01*
X004831Y004681D01*
X004814Y004679D01*
X004797Y004675D01*
X004781Y004668D01*
X004767Y004658D01*
X004754Y004645D01*
X004744Y004631D01*
X004737Y004615D01*
X004733Y004598D01*
X004731Y004581D01*
X004731Y003781D01*
X004733Y003764D01*
X004737Y003747D01*
X004744Y003731D01*
X004754Y003717D01*
X004767Y003704D01*
X004781Y003694D01*
X004797Y003687D01*
X004814Y003683D01*
X004831Y003681D01*
X006531Y003681D01*
X006548Y003683D01*
X006565Y003687D01*
X006581Y003694D01*
X006595Y003704D01*
X006608Y003717D01*
X006618Y003731D01*
X006625Y003747D01*
X006629Y003764D01*
X006631Y003781D01*
X005831Y004181D02*
X005781Y004181D01*
X005581Y004181D02*
X005531Y004181D01*
X004131Y004781D02*
X004131Y005581D01*
X004129Y005598D01*
X004125Y005615D01*
X004118Y005631D01*
X004108Y005645D01*
X004095Y005658D01*
X004081Y005668D01*
X004065Y005675D01*
X004048Y005679D01*
X004031Y005681D01*
X002331Y005681D01*
X002314Y005679D01*
X002297Y005675D01*
X002281Y005668D01*
X002267Y005658D01*
X002254Y005645D01*
X002244Y005631D01*
X002237Y005615D01*
X002233Y005598D01*
X002231Y005581D01*
X002231Y004781D01*
X002233Y004764D01*
X002237Y004747D01*
X002244Y004731D01*
X002254Y004717D01*
X002267Y004704D01*
X002281Y004694D01*
X002297Y004687D01*
X002314Y004683D01*
X002331Y004681D01*
X004031Y004681D01*
X004048Y004683D01*
X004065Y004687D01*
X004081Y004694D01*
X004095Y004704D01*
X004108Y004717D01*
X004118Y004731D01*
X004125Y004747D01*
X004129Y004764D01*
X004131Y004781D01*
X003331Y005181D02*
X003281Y005181D01*
X003081Y005181D02*
X003031Y005181D01*
D14*
X005681Y005681D02*
X005681Y007681D01*
X005683Y007725D01*
X005689Y007768D01*
X005698Y007810D01*
X005711Y007852D01*
X005728Y007892D01*
X005748Y007931D01*
X005771Y007968D01*
X005798Y008002D01*
X005827Y008035D01*
X005860Y008064D01*
X005894Y008091D01*
X005931Y008114D01*
X005970Y008134D01*
X006010Y008151D01*
X006052Y008164D01*
X006094Y008173D01*
X006137Y008179D01*
X006181Y008181D01*
X006225Y008179D01*
X006268Y008173D01*
X006310Y008164D01*
X006352Y008151D01*
X006392Y008134D01*
X006431Y008114D01*
X006468Y008091D01*
X006502Y008064D01*
X006535Y008035D01*
X006564Y008002D01*
X006591Y007968D01*
X006614Y007931D01*
X006634Y007892D01*
X006651Y007852D01*
X006664Y007810D01*
X006673Y007768D01*
X006679Y007725D01*
X006681Y007681D01*
X006681Y005681D01*
X006679Y005637D01*
X006673Y005594D01*
X006664Y005552D01*
X006651Y005510D01*
X006634Y005470D01*
X006614Y005431D01*
X006591Y005394D01*
X006564Y005360D01*
X006535Y005327D01*
X006502Y005298D01*
X006468Y005271D01*
X006431Y005248D01*
X006392Y005228D01*
X006352Y005211D01*
X006310Y005198D01*
X006268Y005189D01*
X006225Y005183D01*
X006181Y005181D01*
X006137Y005183D01*
X006094Y005189D01*
X006052Y005198D01*
X006010Y005211D01*
X005970Y005228D01*
X005931Y005248D01*
X005894Y005271D01*
X005860Y005298D01*
X005827Y005327D01*
X005798Y005360D01*
X005771Y005394D01*
X005748Y005431D01*
X005728Y005470D01*
X005711Y005510D01*
X005698Y005552D01*
X005689Y005594D01*
X005683Y005637D01*
X005681Y005681D01*
X009511Y013606D02*
X009661Y013606D01*
X009736Y013681D01*
X009736Y014057D01*
X009896Y013907D02*
X010046Y014057D01*
X010046Y013606D01*
X009896Y013606D02*
X010196Y013606D01*
X009511Y013606D02*
X009436Y013681D01*
X009436Y014057D01*
X013715Y015531D02*
X013790Y015456D01*
X013940Y015456D01*
X014016Y015531D01*
X014016Y015607D01*
X013940Y015682D01*
X013865Y015682D01*
X013940Y015682D02*
X014016Y015757D01*
X014016Y015832D01*
X013940Y015907D01*
X013790Y015907D01*
X013715Y015832D01*
X014176Y015832D02*
X014251Y015907D01*
X014401Y015907D01*
X014476Y015832D01*
X014476Y015757D01*
X014401Y015682D01*
X014476Y015607D01*
X014476Y015531D01*
X014401Y015456D01*
X014251Y015456D01*
X014176Y015531D01*
X014326Y015682D02*
X014401Y015682D01*
X014636Y015832D02*
X014636Y015531D01*
X014936Y015832D01*
X014936Y015531D01*
X014861Y015456D01*
X014711Y015456D01*
X014636Y015531D01*
X014636Y015832D02*
X014711Y015907D01*
X014861Y015907D01*
X014936Y015832D01*
X017206Y015728D02*
X017206Y015577D01*
X017281Y015502D01*
X017581Y015502D01*
X017281Y015803D01*
X017581Y015803D01*
X017656Y015728D01*
X017656Y015577D01*
X017581Y015502D01*
X017656Y015342D02*
X017656Y015042D01*
X017656Y015192D02*
X017206Y015192D01*
X017356Y015042D01*
X017206Y015728D02*
X017281Y015803D01*
X017206Y015963D02*
X017656Y015963D01*
X017506Y015963D02*
X017356Y016188D01*
X017506Y015963D02*
X017656Y016188D01*
X018706Y015963D02*
X019156Y015963D01*
X019006Y015963D02*
X018856Y016188D01*
X019006Y015963D02*
X019156Y016188D01*
X019081Y015803D02*
X018781Y015803D01*
X019081Y015502D01*
X019156Y015577D01*
X019156Y015728D01*
X019081Y015803D01*
X018781Y015803D02*
X018706Y015728D01*
X018706Y015577D01*
X018781Y015502D01*
X019081Y015502D01*
X019156Y015342D02*
X019156Y015042D01*
X019156Y015192D02*
X018706Y015192D01*
X018856Y015042D01*
X018931Y018181D02*
X017431Y018181D01*
X017387Y018183D01*
X017344Y018189D01*
X017302Y018198D01*
X017260Y018211D01*
X017220Y018228D01*
X017181Y018248D01*
X017144Y018271D01*
X017110Y018298D01*
X017077Y018327D01*
X017048Y018360D01*
X017021Y018394D01*
X016998Y018431D01*
X016978Y018470D01*
X016961Y018510D01*
X016948Y018552D01*
X016939Y018594D01*
X016933Y018637D01*
X016931Y018681D01*
X016933Y018725D01*
X016939Y018768D01*
X016948Y018810D01*
X016961Y018852D01*
X016978Y018892D01*
X016998Y018931D01*
X017021Y018968D01*
X017048Y019002D01*
X017077Y019035D01*
X017110Y019064D01*
X017144Y019091D01*
X017181Y019114D01*
X017220Y019134D01*
X017260Y019151D01*
X017302Y019164D01*
X017344Y019173D01*
X017387Y019179D01*
X017431Y019181D01*
X018931Y019181D01*
X018975Y019179D01*
X019018Y019173D01*
X019060Y019164D01*
X019102Y019151D01*
X019142Y019134D01*
X019181Y019114D01*
X019218Y019091D01*
X019252Y019064D01*
X019285Y019035D01*
X019314Y019002D01*
X019341Y018968D01*
X019364Y018931D01*
X019384Y018892D01*
X019401Y018852D01*
X019414Y018810D01*
X019423Y018768D01*
X019429Y018725D01*
X019431Y018681D01*
X019429Y018637D01*
X019423Y018594D01*
X019414Y018552D01*
X019401Y018510D01*
X019384Y018470D01*
X019364Y018431D01*
X019341Y018394D01*
X019314Y018360D01*
X019285Y018327D01*
X019252Y018298D01*
X019218Y018271D01*
X019181Y018248D01*
X019142Y018228D01*
X019102Y018211D01*
X019060Y018198D01*
X019018Y018189D01*
X018975Y018183D01*
X018931Y018181D01*
X015931Y018181D02*
X014431Y018181D01*
X014387Y018183D01*
X014344Y018189D01*
X014302Y018198D01*
X014260Y018211D01*
X014220Y018228D01*
X014181Y018248D01*
X014144Y018271D01*
X014110Y018298D01*
X014077Y018327D01*
X014048Y018360D01*
X014021Y018394D01*
X013998Y018431D01*
X013978Y018470D01*
X013961Y018510D01*
X013948Y018552D01*
X013939Y018594D01*
X013933Y018637D01*
X013931Y018681D01*
X013933Y018725D01*
X013939Y018768D01*
X013948Y018810D01*
X013961Y018852D01*
X013978Y018892D01*
X013998Y018931D01*
X014021Y018968D01*
X014048Y019002D01*
X014077Y019035D01*
X014110Y019064D01*
X014144Y019091D01*
X014181Y019114D01*
X014220Y019134D01*
X014260Y019151D01*
X014302Y019164D01*
X014344Y019173D01*
X014387Y019179D01*
X014431Y019181D01*
X015931Y019181D01*
X015975Y019179D01*
X016018Y019173D01*
X016060Y019164D01*
X016102Y019151D01*
X016142Y019134D01*
X016181Y019114D01*
X016218Y019091D01*
X016252Y019064D01*
X016285Y019035D01*
X016314Y019002D01*
X016341Y018968D01*
X016364Y018931D01*
X016384Y018892D01*
X016401Y018852D01*
X016414Y018810D01*
X016423Y018768D01*
X016429Y018725D01*
X016431Y018681D01*
X016429Y018637D01*
X016423Y018594D01*
X016414Y018552D01*
X016401Y018510D01*
X016384Y018470D01*
X016364Y018431D01*
X016341Y018394D01*
X016314Y018360D01*
X016285Y018327D01*
X016252Y018298D01*
X016218Y018271D01*
X016181Y018248D01*
X016142Y018228D01*
X016102Y018211D01*
X016060Y018198D01*
X016018Y018189D01*
X015975Y018183D01*
X015931Y018181D01*
X016531Y007037D02*
X016831Y006737D01*
X016906Y006812D01*
X016906Y006962D01*
X016831Y007037D01*
X016531Y007037D01*
X016456Y006962D01*
X016456Y006812D01*
X016531Y006737D01*
X016831Y006737D01*
X016831Y006577D02*
X016756Y006577D01*
X016681Y006502D01*
X016681Y006427D01*
X016681Y006502D02*
X016606Y006577D01*
X016531Y006577D01*
X016456Y006502D01*
X016456Y006352D01*
X016531Y006277D01*
X016531Y006117D02*
X016606Y006117D01*
X016681Y006042D01*
X016756Y006117D01*
X016831Y006117D01*
X016906Y006042D01*
X016906Y005891D01*
X016831Y005816D01*
X016681Y005967D02*
X016681Y006042D01*
X016531Y006117D02*
X016456Y006042D01*
X016456Y005891D01*
X016531Y005816D01*
X016831Y006277D02*
X016906Y006352D01*
X016906Y006502D01*
X016831Y006577D01*
X015406Y005361D02*
X015406Y005211D01*
X015331Y005136D01*
X015031Y005436D01*
X015331Y005436D01*
X015406Y005361D01*
X015331Y005136D02*
X015031Y005136D01*
X014956Y005211D01*
X014956Y005361D01*
X015031Y005436D01*
X015031Y004976D02*
X014956Y004901D01*
X014956Y004751D01*
X015031Y004676D01*
X015031Y004516D02*
X014956Y004440D01*
X014956Y004290D01*
X015031Y004215D01*
X015181Y004365D02*
X015181Y004440D01*
X015256Y004516D01*
X015331Y004516D01*
X015406Y004440D01*
X015406Y004290D01*
X015331Y004215D01*
X015181Y004440D02*
X015106Y004516D01*
X015031Y004516D01*
X015331Y004676D02*
X015406Y004751D01*
X015406Y004901D01*
X015331Y004976D01*
X015256Y004976D01*
X015181Y004901D01*
X015181Y004826D01*
X015181Y004901D02*
X015106Y004976D01*
X015031Y004976D01*
D15*
X015181Y006101D03*
X016681Y005261D03*
X015181Y003261D03*
X016681Y008101D03*
X017431Y014011D03*
X018931Y014011D03*
X018931Y016851D03*
X017431Y016851D03*
D16*
X015601Y015681D03*
X012761Y015681D03*
D17*
X007697Y016681D02*
X007699Y016743D01*
X007705Y016806D01*
X007715Y016867D01*
X007729Y016928D01*
X007746Y016988D01*
X007767Y017047D01*
X007793Y017104D01*
X007821Y017159D01*
X007853Y017213D01*
X007889Y017264D01*
X007927Y017314D01*
X007969Y017360D01*
X008013Y017404D01*
X008061Y017445D01*
X008110Y017483D01*
X008162Y017517D01*
X008216Y017548D01*
X008272Y017576D01*
X008330Y017600D01*
X008389Y017621D01*
X008449Y017637D01*
X008510Y017650D01*
X008572Y017659D01*
X008634Y017664D01*
X008697Y017665D01*
X008759Y017662D01*
X008821Y017655D01*
X008883Y017644D01*
X008943Y017629D01*
X009003Y017611D01*
X009061Y017589D01*
X009118Y017563D01*
X009173Y017533D01*
X009226Y017500D01*
X009277Y017464D01*
X009325Y017425D01*
X009371Y017382D01*
X009414Y017337D01*
X009454Y017289D01*
X009491Y017239D01*
X009525Y017186D01*
X009556Y017132D01*
X009582Y017076D01*
X009606Y017018D01*
X009625Y016958D01*
X009641Y016898D01*
X009653Y016836D01*
X009661Y016775D01*
X009665Y016712D01*
X009665Y016650D01*
X009661Y016587D01*
X009653Y016526D01*
X009641Y016464D01*
X009625Y016404D01*
X009606Y016344D01*
X009582Y016286D01*
X009556Y016230D01*
X009525Y016176D01*
X009491Y016123D01*
X009454Y016073D01*
X009414Y016025D01*
X009371Y015980D01*
X009325Y015937D01*
X009277Y015898D01*
X009226Y015862D01*
X009173Y015829D01*
X009118Y015799D01*
X009061Y015773D01*
X009003Y015751D01*
X008943Y015733D01*
X008883Y015718D01*
X008821Y015707D01*
X008759Y015700D01*
X008697Y015697D01*
X008634Y015698D01*
X008572Y015703D01*
X008510Y015712D01*
X008449Y015725D01*
X008389Y015741D01*
X008330Y015762D01*
X008272Y015786D01*
X008216Y015814D01*
X008162Y015845D01*
X008110Y015879D01*
X008061Y015917D01*
X008013Y015958D01*
X007969Y016002D01*
X007927Y016048D01*
X007889Y016098D01*
X007853Y016149D01*
X007821Y016203D01*
X007793Y016258D01*
X007767Y016315D01*
X007746Y016374D01*
X007729Y016434D01*
X007715Y016495D01*
X007705Y016556D01*
X007699Y016619D01*
X007697Y016681D01*
X008131Y016381D02*
X008131Y015981D01*
X001181Y014431D02*
X001181Y013931D01*
X000931Y013681D01*
X001181Y013431D01*
X001181Y012931D01*
X000931Y012681D01*
X001181Y012431D01*
X001181Y011931D01*
X000931Y011681D01*
X001181Y011431D01*
X001181Y010931D01*
X000931Y010681D01*
X000431Y010681D01*
X000181Y010931D01*
X000181Y011431D01*
X000431Y011681D01*
X000181Y011931D01*
X000181Y012431D01*
X000431Y012681D01*
X000181Y012931D01*
X000181Y013431D01*
X000431Y013681D01*
X000181Y013931D01*
X000181Y014431D01*
X000431Y014681D01*
X000931Y014681D01*
X001181Y014431D01*
X000931Y009681D02*
X000431Y009681D01*
X000181Y009431D01*
X000181Y008931D01*
X000431Y008681D01*
X000181Y008431D01*
X000181Y007931D01*
X000431Y007681D01*
X000181Y007431D01*
X000181Y006931D01*
X000431Y006681D01*
X000181Y006431D01*
X000181Y005931D01*
X000431Y005681D01*
X000931Y005681D01*
X001181Y005931D01*
X001181Y006431D01*
X000931Y006681D01*
X001181Y006931D01*
X001181Y007431D01*
X000931Y007681D01*
X001181Y007931D01*
X001181Y008431D01*
X000931Y008681D01*
X001181Y008931D01*
X001181Y009431D01*
X000931Y009681D01*
X000931Y004681D02*
X000431Y004681D01*
X000181Y004431D01*
X000181Y003931D01*
X000431Y003681D01*
X000181Y003431D01*
X000181Y002931D01*
X000431Y002681D01*
X000181Y002431D01*
X000181Y001931D01*
X000431Y001681D01*
X000181Y001431D01*
X000181Y000931D01*
X000431Y000681D01*
X000931Y000681D01*
X001181Y000931D01*
X001181Y001431D01*
X000931Y001681D01*
X001181Y001931D01*
X001181Y002431D01*
X000931Y002681D01*
X001181Y002931D01*
X001181Y003431D01*
X000931Y003681D01*
X001181Y003931D01*
X001181Y004431D01*
X000931Y004681D01*
X002931Y001681D02*
X003431Y001681D01*
X003681Y001431D01*
X003931Y001681D01*
X004431Y001681D01*
X004681Y001431D01*
X004931Y001681D01*
X005431Y001681D01*
X005681Y001431D01*
X005931Y001681D01*
X006431Y001681D01*
X006681Y001431D01*
X006931Y001681D01*
X007431Y001681D01*
X007681Y001431D01*
X007681Y000931D01*
X007431Y000681D01*
X006931Y000681D01*
X006681Y000931D01*
X006431Y000681D01*
X005931Y000681D01*
X005681Y000931D01*
X005431Y000681D01*
X004931Y000681D01*
X004681Y000931D01*
X004431Y000681D01*
X003931Y000681D01*
X003681Y000931D01*
X003431Y000681D01*
X002931Y000681D01*
X002681Y000931D01*
X002681Y001431D01*
X002931Y001681D01*
X013131Y005481D02*
X013131Y005881D01*
X012697Y006181D02*
X012699Y006243D01*
X012705Y006306D01*
X012715Y006367D01*
X012729Y006428D01*
X012746Y006488D01*
X012767Y006547D01*
X012793Y006604D01*
X012821Y006659D01*
X012853Y006713D01*
X012889Y006764D01*
X012927Y006814D01*
X012969Y006860D01*
X013013Y006904D01*
X013061Y006945D01*
X013110Y006983D01*
X013162Y007017D01*
X013216Y007048D01*
X013272Y007076D01*
X013330Y007100D01*
X013389Y007121D01*
X013449Y007137D01*
X013510Y007150D01*
X013572Y007159D01*
X013634Y007164D01*
X013697Y007165D01*
X013759Y007162D01*
X013821Y007155D01*
X013883Y007144D01*
X013943Y007129D01*
X014003Y007111D01*
X014061Y007089D01*
X014118Y007063D01*
X014173Y007033D01*
X014226Y007000D01*
X014277Y006964D01*
X014325Y006925D01*
X014371Y006882D01*
X014414Y006837D01*
X014454Y006789D01*
X014491Y006739D01*
X014525Y006686D01*
X014556Y006632D01*
X014582Y006576D01*
X014606Y006518D01*
X014625Y006458D01*
X014641Y006398D01*
X014653Y006336D01*
X014661Y006275D01*
X014665Y006212D01*
X014665Y006150D01*
X014661Y006087D01*
X014653Y006026D01*
X014641Y005964D01*
X014625Y005904D01*
X014606Y005844D01*
X014582Y005786D01*
X014556Y005730D01*
X014525Y005676D01*
X014491Y005623D01*
X014454Y005573D01*
X014414Y005525D01*
X014371Y005480D01*
X014325Y005437D01*
X014277Y005398D01*
X014226Y005362D01*
X014173Y005329D01*
X014118Y005299D01*
X014061Y005273D01*
X014003Y005251D01*
X013943Y005233D01*
X013883Y005218D01*
X013821Y005207D01*
X013759Y005200D01*
X013697Y005197D01*
X013634Y005198D01*
X013572Y005203D01*
X013510Y005212D01*
X013449Y005225D01*
X013389Y005241D01*
X013330Y005262D01*
X013272Y005286D01*
X013216Y005314D01*
X013162Y005345D01*
X013110Y005379D01*
X013061Y005417D01*
X013013Y005458D01*
X012969Y005502D01*
X012927Y005548D01*
X012889Y005598D01*
X012853Y005649D01*
X012821Y005703D01*
X012793Y005758D01*
X012767Y005815D01*
X012746Y005874D01*
X012729Y005934D01*
X012715Y005995D01*
X012705Y006056D01*
X012699Y006119D01*
X012697Y006181D01*
X018681Y005931D02*
X018681Y006431D01*
X018931Y006681D01*
X018681Y006931D01*
X018681Y007431D01*
X018931Y007681D01*
X018681Y007931D01*
X018681Y008431D01*
X018931Y008681D01*
X018681Y008931D01*
X018681Y009431D01*
X018931Y009681D01*
X019431Y009681D01*
X019681Y009431D01*
X019681Y008931D01*
X019431Y008681D01*
X019681Y008431D01*
X019681Y007931D01*
X019431Y007681D01*
X019681Y007431D01*
X019681Y006931D01*
X019431Y006681D01*
X019681Y006431D01*
X019681Y005931D01*
X019431Y005681D01*
X018931Y005681D01*
X018681Y005931D01*
X018931Y004681D02*
X018681Y004431D01*
X018681Y003931D01*
X018931Y003681D01*
X018681Y003431D01*
X018681Y002931D01*
X018931Y002681D01*
X018681Y002431D01*
X018681Y001931D01*
X018931Y001681D01*
X018681Y001431D01*
X018681Y000931D01*
X018931Y000681D01*
X019431Y000681D01*
X019681Y000931D01*
X019681Y001431D01*
X019431Y001681D01*
X019681Y001931D01*
X019681Y002431D01*
X019431Y002681D01*
X019681Y002931D01*
X019681Y003431D01*
X019431Y003681D01*
X019681Y003931D01*
X019681Y004431D01*
X019431Y004681D01*
X018931Y004681D01*
D18*
X007141Y015361D03*
D19*
X005931Y015456D03*
X005931Y018906D03*
D20*
X005831Y018181D03*
X005831Y017181D03*
X005831Y016181D03*
D21*
X005931Y016681D03*
X005931Y017681D03*
D22*
X009881Y016781D02*
X010181Y016781D01*
X010481Y016781D01*
X010481Y016581D02*
X010181Y016581D01*
X009881Y016581D01*
X012578Y017486D02*
X012626Y017516D01*
X012671Y017549D01*
X012714Y017585D01*
X012755Y017623D01*
X012792Y017665D01*
X012827Y017709D01*
X012858Y017755D01*
X012887Y017804D01*
X012911Y017854D01*
X012932Y017906D01*
X012950Y017960D01*
X012963Y018014D01*
X012973Y018069D01*
X012979Y018125D01*
X012981Y018181D01*
X012979Y018234D01*
X012974Y018288D01*
X012965Y018340D01*
X012953Y018392D01*
X012937Y018443D01*
X012918Y018493D01*
X012895Y018542D01*
X012869Y018589D01*
X012841Y018634D01*
X012809Y018677D01*
X012775Y018717D01*
X012737Y018756D01*
X012698Y018792D01*
X011381Y018181D02*
X011383Y018127D01*
X011388Y018073D01*
X011397Y018020D01*
X011410Y017967D01*
X011426Y017916D01*
X011446Y017866D01*
X011469Y017817D01*
X011495Y017769D01*
X011524Y017724D01*
X011557Y017681D01*
X011592Y017640D01*
X011630Y017601D01*
X011670Y017565D01*
X011713Y017532D01*
X011758Y017502D01*
X011805Y017475D01*
X011381Y018181D02*
X011383Y018235D01*
X011388Y018288D01*
X011397Y018342D01*
X011410Y018394D01*
X011426Y018445D01*
X011446Y018496D01*
X011468Y018545D01*
X011494Y018592D01*
X011524Y018637D01*
X011556Y018680D01*
X011591Y018721D01*
X011629Y018760D01*
X011669Y018796D01*
X013881Y014281D02*
X014181Y014281D01*
X014481Y014281D01*
X014481Y014081D02*
X014181Y014081D01*
X013881Y014081D01*
X014381Y008181D02*
X014383Y008127D01*
X014388Y008073D01*
X014397Y008020D01*
X014410Y007967D01*
X014426Y007916D01*
X014446Y007866D01*
X014469Y007817D01*
X014495Y007769D01*
X014524Y007724D01*
X014557Y007681D01*
X014592Y007640D01*
X014630Y007601D01*
X014670Y007565D01*
X014713Y007532D01*
X014758Y007502D01*
X014805Y007475D01*
X015578Y007486D02*
X015626Y007516D01*
X015671Y007549D01*
X015714Y007585D01*
X015755Y007623D01*
X015792Y007665D01*
X015827Y007709D01*
X015858Y007755D01*
X015887Y007804D01*
X015911Y007854D01*
X015932Y007906D01*
X015950Y007960D01*
X015963Y008014D01*
X015973Y008069D01*
X015979Y008125D01*
X015981Y008181D01*
X015979Y008234D01*
X015974Y008288D01*
X015965Y008340D01*
X015953Y008392D01*
X015937Y008443D01*
X015918Y008493D01*
X015895Y008542D01*
X015869Y008589D01*
X015841Y008634D01*
X015809Y008677D01*
X015775Y008717D01*
X015737Y008756D01*
X015698Y008792D01*
X014669Y008796D02*
X014629Y008760D01*
X014591Y008721D01*
X014556Y008680D01*
X014524Y008637D01*
X014494Y008592D01*
X014468Y008545D01*
X014446Y008496D01*
X014426Y008445D01*
X014410Y008394D01*
X014397Y008342D01*
X014388Y008288D01*
X014383Y008235D01*
X014381Y008181D01*
X016284Y003876D02*
X016236Y003846D01*
X016191Y003813D01*
X016148Y003777D01*
X016107Y003739D01*
X016070Y003697D01*
X016035Y003653D01*
X016004Y003607D01*
X015975Y003558D01*
X015951Y003508D01*
X015930Y003456D01*
X015912Y003402D01*
X015899Y003348D01*
X015889Y003293D01*
X015883Y003237D01*
X015881Y003181D01*
X015883Y003128D01*
X015888Y003074D01*
X015897Y003022D01*
X015909Y002970D01*
X015925Y002919D01*
X015944Y002869D01*
X015967Y002820D01*
X015993Y002773D01*
X016021Y002728D01*
X016053Y002685D01*
X016087Y002645D01*
X016125Y002606D01*
X016164Y002570D01*
X017481Y003181D02*
X017479Y003235D01*
X017474Y003289D01*
X017465Y003342D01*
X017452Y003395D01*
X017436Y003446D01*
X017416Y003496D01*
X017393Y003545D01*
X017367Y003593D01*
X017338Y003638D01*
X017305Y003681D01*
X017270Y003722D01*
X017232Y003761D01*
X017192Y003797D01*
X017149Y003830D01*
X017104Y003860D01*
X017057Y003887D01*
X017481Y003181D02*
X017479Y003127D01*
X017474Y003074D01*
X017465Y003020D01*
X017452Y002968D01*
X017436Y002917D01*
X017416Y002866D01*
X017394Y002817D01*
X017368Y002770D01*
X017338Y002725D01*
X017306Y002682D01*
X017271Y002641D01*
X017233Y002602D01*
X017193Y002566D01*
X005781Y003881D02*
X005781Y004181D01*
X005781Y004481D01*
X005581Y004481D02*
X005581Y004181D01*
X005581Y003881D01*
X003281Y004881D02*
X003281Y005181D01*
X003281Y005481D01*
X003081Y005481D02*
X003081Y005181D01*
X003081Y004881D01*
D23*
X007043Y000452D02*
X007153Y000452D01*
X007190Y000415D01*
X007190Y000341D01*
X007153Y000305D01*
X007043Y000305D01*
X007043Y000231D02*
X007043Y000452D01*
X007264Y000452D02*
X007337Y000452D01*
X007301Y000452D02*
X007301Y000231D01*
X007337Y000231D02*
X007264Y000231D01*
X007411Y000268D02*
X007411Y000415D01*
X007448Y000452D01*
X007521Y000452D01*
X007558Y000415D01*
X007632Y000452D02*
X007632Y000231D01*
X007632Y000305D02*
X007779Y000452D01*
X007853Y000452D02*
X007926Y000452D01*
X007890Y000452D02*
X007890Y000231D01*
X007926Y000231D02*
X007853Y000231D01*
X007779Y000231D02*
X007669Y000341D01*
X007558Y000268D02*
X007521Y000231D01*
X007448Y000231D01*
X007411Y000268D01*
X008000Y000452D02*
X008147Y000452D01*
X008074Y000452D02*
X008074Y000231D01*
M02*
