  0
SECTION
  2
HEADER
  9
$ACADVER
  1
AC1009
  9
$DWGCODEPAGE
  3
undefined
  9
$INSBASE
 10
0.0
 20
0.0
 30
0.0
  9
$EXTMIN
 10
1.000000000000000E+20
 20
1.000000000000000E+20
 30
1.000000000000000E+20
  9
$EXTMAX
 10
-1.000000000000000E+20
 20
-1.000000000000000E+20
 30
-1.000000000000000E+20
  9
$LIMMIN
 10
0.0
 20
0.0
  9
$LIMMAX
 10
12.0
 20
9.0
  9
$ORTHOMODE
 70
     0
  9
$REGENMODE
 70
     1
  9
$FILLMODE
 70
     1
  9
$QTEXTMODE
 70
     0
  9
$MIRRTEXT
 70
     1
  9
$DRAGMODE
 70
     2
  9
$LTSCALE
 40
1.0
  9
$OSMODE
 70
    37
  9
$ATTMODE
 70
     1
  9
$TEXTSIZE
 40
0.2
  9
$TRACEWID
 40
0.05
  9
$TEXTSTYLE
  7
STANDARD
  9
$CLAYER
  8
0
  9
$CELTYPE
  6
BYLAYER
  9
$CECOLOR
 62
   256
  9
$DIMSCALE
 40
1.0
  9
$DIMASZ
 40
0.18
  9
$DIMEXO
 40
0.0625
  9
$DIMDLI
 40
0.38
  9
$DIMRND
 40
0.0
  9
$DIMDLE
 40
0.0
  9
$DIMEXE
 40
0.18
  9
$DIMTP
 40
0.0
  9
$DIMTM
 40
0.0
  9
$DIMTXT
 40
0.18
  9
$DIMCEN
 40
0.09
  9
$DIMTSZ
 40
0.0
  9
$DIMTOL
 70
     0
  9
$DIMLIM
 70
     0
  9
$DIMTIH
 70
     1
  9
$DIMTOH
 70
     1
  9
$DIMSE1
 70
     0
  9
$DIMSE2
 70
     0
  9
$DIMTAD
 70
     0
  9
$DIMZIN
 70
     0
  9
$DIMBLK
  1

  9
$DIMASO
 70
     1
  9
$DIMSHO
 70
     1
  9
$DIMPOST
  1

  9
$DIMAPOST
  1

  9
$DIMALT
 70
     0
  9
$DIMALTD
 70
     2
  9
$DIMALTF
 40
25.4
  9
$DIMLFAC
 40
1.0
  9
$DIMTOFL
 70
     0
  9
$DIMTVP
 40
0.0
  9
$DIMTIX
 70
     0
  9
$DIMSOXD
 70
     0
  9
$DIMSAH
 70
     0
  9
$DIMBLK1
  1

  9
$DIMBLK2
  1

  9
$DIMSTYLE
  2
STANDARD
  9
$DIMCLRD
 70
     0
  9
$DIMCLRE
 70
     0
  9
$DIMCLRT
 70
     0
  9
$DIMTFAC
 40
1.0
  9
$DIMGAP
 40
0.09
  9
$LUNITS
 70
     2
  9
$LUPREC
 70
     4
  9
$SKETCHINC
 40
0.1
  9
$FILLETRAD
 40
0.5
  9
$AUNITS
 70
     0
  9
$AUPREC
 70
     0
  9
$MENU
  1
.
  9
$ELEVATION
 40
0.0
  9
$PELEVATION
 40
0.0
  9
$THICKNESS
 40
0.0
  9
$LIMCHECK
 70
     0
  9
$CHAMFERA
 40
0.0
  9
$CHAMFERB
 40
0.0
  9
$SKPOLY
 70
     0
  9
$TDCREATE
 40
2457185.126493055
  9
$TDUPDATE
 40
2457185.126493055
  9
$TDINDWG
 40
0.0000000116
  9
$TDUSRTIMER
 40
0.0000000116
  9
$USRTIMER
 70
     1
  9
$ANGBASE
 50
0.0
  9
$ANGDIR
 70
     0
  9
$PDMODE
 70
     0
  9
$PDSIZE
 40
0.0
  9
$PLINEWID
 40
0.0
  9
$COORDS
 70
     1
  9
$SPLFRAME
 70
     0
  9
$SPLINETYPE
 70
     6
  9
$SPLINESEGS
 70
     8
  9
$ATTDIA
 70
     0
  9
$ATTREQ
 70
     1
  9
$HANDLING
 70
     1
  9
$HANDSEED
  5
10000324
  9
$SURFTAB1
 70
     6
  9
$SURFTAB2
 70
     6
  9
$SURFTYPE
 70
     6
  9
$SURFU
 70
     6
  9
$SURFV
 70
     6
  9
$UCSNAME
  2

  9
$UCSORG
 10
0.0
 20
0.0
 30
0.0
  9
$UCSXDIR
 10
1.0
 20
0.0
 30
0.0
  9
$UCSYDIR
 10
0.0
 20
1.0
 30
0.0
  9
$PUCSNAME
  2

  9
$PUCSORG
 10
0.0
 20
0.0
 30
0.0
  9
$PUCSXDIR
 10
1.0
 20
0.0
 30
0.0
  9
$PUCSYDIR
 10
0.0
 20
1.0
 30
0.0
  9
$USERI1
 70
     0
  9
$USERI2
 70
     0
  9
$USERI3
 70
     0
  9
$USERI4
 70
     0
  9
$USERI5
 70
     0
  9
$USERR1
 40
0.0
  9
$USERR2
 40
0.0
  9
$USERR3
 40
0.0
  9
$USERR4
 40
0.0
  9
$USERR5
 40
0.0
  9
$WORLDVIEW
 70
     1
  9
$SHADEDGE
 70
     3
  9
$SHADEDIF
 70
    70
  9
$TILEMODE
 70
     1
  9
$MAXACTVP
 70
    64
  9
$PLIMCHECK
 70
     0
  9
$PEXTMIN
 10
1.000000000000000E+20
 20
1.000000000000000E+20
 30
1.000000000000000E+20
  9
$PEXTMAX
 10
-1.000000000000000E+20
 20
-1.000000000000000E+20
 30
-1.000000000000000E+20
  9
$PLIMMIN
 10
0.0
 20
0.0
  9
$PLIMMAX
 10
12.0
 20
9.0
  9
$UNITMODE
 70
     0
  9
$VISRETAIN
 70
     1
  9
$PLINEGEN
 70
     0
  9
$PSLTSCALE
 70
     1
  0
ENDSEC
  0
SECTION
  2
TABLES
  0
TABLE
  2
VPORT
 70
     1
  0
VPORT
  2
*ACTIVE
 70
     0
 10
0.0
 20
0.0
 11
1.0
 21
1.0
 12
10.42990654205607
 22
4.5
 13
0.0
 23
0.0
 14
0.5
 24
0.5
 15
0.5
 25
0.5
 16
0.0
 26
0.0
 36
1.0
 17
0.0
 27
0.0
 37
0.0
 40
9.0
 41
1.972972972850329
 42
50.0
 43
0.0
 44
0.0
 50
0.0
 51
0.0
 71
     0
 72
   100
 73
     1
 74
     3
 75
     0
 76
     0
 77
     0
 78
     0
  0
ENDTAB
  0
TABLE
  2
LTYPE
 70
     5
  0
LTYPE
  2
CONTINUOUS
 70
     0
  3
Solid line
 72
    65
 73
     0
 40
0.0
  0
LTYPE
  2
HIDDEN
 70
     0
  3
Hidden line ____ ____ ____ ____ 
 72
    83
 73
     2
 40
0.125
 49
0.25
 49
-0.125
  0
LTYPE
  2
PHANTOM
 70
     0
  3
Phantom line ______  __  __  ______  __  __
 72
    83
 73
     6
 40
0.5
 49
0.625
 49
-0.125
 49
0.125
 49
-0.125
 49
0.125
 49
-0.125
  0
LTYPE
  2
CENTER
 70
     0
  3
Center line ____ _ ____ _ ____ _
 72
    83
 73
     4
 40
0.5
 49
0.625
 49
-0.125
 49
0.125
 49
-0.125
  0
LTYPE
  2
DASHED
 70
     0
  3
Dashed line __ __ __ __
 72
    83
 73
     2
 40
0.25
 49
0.5
 49
-0.25
  0
ENDTAB
  0
TABLE
  2
LAYER
 70
     5
  0
LAYER
  2
0
 70
     0
 62
     7
  6
CONTINUOUS
  0
LAYER
  2
HIDDEN
 70
     0
 62
    -7
  6
HIDDEN
  0
LAYER
  2
VISIBLE
 70
     0
 62
     7
  6
CONTINUOUS
  0
LAYER
  2
TANGENT_LINES
 70
     0
 62
     7
  6
CONTINUOUS
  0
LAYER
  2
INVISIBLE_LINES
 70
     0
 62
    -7
  6
CONTINUOUS
  0
ENDTAB
  0
TABLE
  2
STYLE
 70
     2
  0
STYLE
  2
STANDARD
 70
     0
 40
0.0
 41
1.0
 50
0.0
 71
     0
 42
0.2
  3
txt
  4

  0
STYLE
  2
ODATTFSTYLE
 70
     0
 40
0.0
 41
1.0
 50
0.0
 71
     0
 42
0.2
  3
Verdana.ttf
  4

  0
ENDTAB
  0
TABLE
  2
VIEW
 70
     0
  0
ENDTAB
  0
TABLE
  2
UCS
 70
     0
  0
ENDTAB
  0
TABLE
  2
APPID
 70
     1
  0
APPID
  2
ACAD
 70
     0
  0
ENDTAB
  0
TABLE
  2
DIMSTYLE
 70
     1
  0
DIMSTYLE
  2
STANDARD
 70
     0
  3

  4

  5

  6

  7

 40
1.0
 41
0.18
 42
0.0625
 43
0.38
 44
0.18
 45
0.0
 46
0.0
 47
0.0
 48
0.0
140
0.18
141
0.09
142
0.0
143
25.4
144
1.0
145
0.0
146
1.0
147
0.09
 71
     0
 72
     0
 73
     1
 74
     1
 75
     0
 76
     0
 77
     0
 78
     0
170
     0
171
     2
172
     0
173
     0
174
     0
175
     0
176
     0
177
     0
178
     0
  0
ENDTAB
  0
ENDSEC
  0
SECTION
  2
BLOCKS
  0
BLOCK
  8
0
  2
$MODEL_SPACE
 70
     0
 10
0.0
 20
0.0
 30
0.0
  3
$MODEL_SPACE
  1

  0
ENDBLK
  5
21
  8
0
  0
BLOCK
 67
     1
  8
0
  2
$PAPER_SPACE
 70
     0
 10
0.0
 20
0.0
 30
0.0
  3
$PAPER_SPACE
  1

  0
ENDBLK
  5
1D
 67
     1
  8
0
  0
ENDSEC
  0
SECTION
  2
ENTITIES
  0
POLYLINE
  5
F4673
  8
VISIBLE
 66
     1
 10
0.0
 20
0.0
 30
0.0625
 70
     1
  0
VERTEX
  5
100000B5
  8
VISIBLE
 10
-0.1171073568068141
 20
3.007206719917682
 30
0.0625
  0
VERTEX
  5
100000B6
  8
VISIBLE
 10
-0.1219846148572172
 20
2.997599360119297
 30
0.0625
  0
VERTEX
  5
100000B7
  8
VISIBLE
 10
-0.1266744426159412
 20
2.969146486173325
 30
0.0625
  0
VERTEX
  5
100000B8
  8
VISIBLE
 10
-0.1309966126323039
 20
2.922941526068954
 30
0.0625
  0
VERTEX
  5
100000B9
  8
VISIBLE
 10
-0.1347850263364774
 20
2.860760110510955
 30
0.0625
  0
VERTEX
  5
100000BA
  8
VISIBLE
 10
-0.1378940971143772
 20
2.784991836427483
 30
0.0625
  0
VERTEX
  5
100000BB
  8
VISIBLE
 10
-0.1402043451195955
 20
2.698548436100226
 30
0.0625
  0
VERTEX
  5
100000BC
  8
VISIBLE
 10
-0.1416269888168939
 20
2.604751880925745
 30
0.0625
  0
VERTEX
  5
100000BD
  8
VISIBLE
 10
-0.1421073568068129
 20
2.507206719917682
 30
0.0625
  0
VERTEX
  5
100000BE
  8
VISIBLE
 10
-0.1416269888168934
 20
2.409661558909618
 30
0.0625
  0
VERTEX
  5
100000BF
  8
VISIBLE
 10
-0.1402043451195946
 20
2.315865003735137
 30
0.0625
  0
VERTEX
  5
100000C0
  8
VISIBLE
 10
-0.1378940971143759
 20
2.22942160340788
 30
0.0625
  0
VERTEX
  5
100000C1
  8
VISIBLE
 10
-0.1347850263364757
 20
2.153653329324408
 30
0.0625
  0
VERTEX
  5
100000C2
  8
VISIBLE
 10
-0.1309966126323019
 20
2.091471913766409
 30
0.0625
  0
VERTEX
  5
100000C3
  8
VISIBLE
 10
-0.126674442615939
 20
2.045266953662038
 30
0.0625
  0
VERTEX
  5
100000C4
  8
VISIBLE
 10
-0.1219846148572149
 20
2.016814079716066
 30
0.0625
  0
VERTEX
  5
100000C5
  8
VISIBLE
 10
-0.1171073568068117
 20
2.007206719917682
 30
0.0625
  0
VERTEX
  5
100000C6
  8
VISIBLE
 10
-0.1122300987564085
 20
2.016814079716066
 30
0.0625
  0
VERTEX
  5
100000C7
  8
VISIBLE
 10
-0.1075402709976845
 20
2.045266953662038
 30
0.0625
  0
VERTEX
  5
100000C8
  8
VISIBLE
 10
-0.1032181009813218
 20
2.091471913766409
 30
0.0625
  0
VERTEX
  5
100000C9
  8
VISIBLE
 10
-0.0994296872771483
 20
2.153653329324408
 30
0.0625
  0
VERTEX
  5
100000CA
  8
VISIBLE
 10
-0.0963206164992485
 20
2.229421603407881
 30
0.0625
  0
VERTEX
  5
100000CB
  8
VISIBLE
 10
-0.0940103684940302
 20
2.315865003735138
 30
0.0625
  0
VERTEX
  5
100000CC
  8
VISIBLE
 10
-0.0925877247967319
 20
2.409661558909618
 30
0.0625
  0
VERTEX
  5
100000CD
  8
VISIBLE
 10
-0.0921073568068129
 20
2.507206719917683
 30
0.0625
  0
VERTEX
  5
100000CE
  8
VISIBLE
 10
-0.0925877247967324
 20
2.604751880925747
 30
0.0625
  0
VERTEX
  5
100000CF
  8
VISIBLE
 10
-0.0940103684940312
 20
2.698548436100228
 30
0.0625
  0
VERTEX
  5
100000D0
  8
VISIBLE
 10
-0.0963206164992499
 20
2.784991836427484
 30
0.0625
  0
VERTEX
  5
100000D1
  8
VISIBLE
 10
-0.0994296872771501
 20
2.860760110510956
 30
0.0625
  0
VERTEX
  5
100000D2
  8
VISIBLE
 10
-0.1032181009813239
 20
2.922941526068955
 30
0.0625
  0
VERTEX
  5
100000D3
  8
VISIBLE
 10
-0.1075402709976868
 20
2.969146486173326
 30
0.0625
  0
VERTEX
  5
100000D4
  8
VISIBLE
 10
-0.1122300987564109
 20
2.997599360119297
 30
0.0625
  0
SEQEND
  5
10000309
  8
VISIBLE
  0
POLYLINE
  5
F4674
  8
VISIBLE
 66
     1
 10
0.0
 20
0.0
 30
0.0625
 70
     1
  0
VERTEX
  5
100000D5
  8
VISIBLE
 10
0.0188776825632646
 20
3.007206719917682
 30
0.0625
  0
VERTEX
  5
100000D6
  8
VISIBLE
 10
0.0140004245128614
 20
2.997599360119297
 30
0.0625
  0
VERTEX
  5
100000D7
  8
VISIBLE
 10
0.0093105967541375
 20
2.969146486173325
 30
0.0625
  0
VERTEX
  5
100000D8
  8
VISIBLE
 10
0.0049884267377748
 20
2.922941526068954
 30
0.0625
  0
VERTEX
  5
100000D9
  8
VISIBLE
 10
0.0012000130336013
 20
2.860760110510955
 30
0.0625
  0
VERTEX
  5
100000DA
  8
VISIBLE
 10
-0.0019090577442985
 20
2.784991836427483
 30
0.0625
  0
VERTEX
  5
100000DB
  8
VISIBLE
 10
-0.0042193057495168
 20
2.698548436100226
 30
0.0625
  0
VERTEX
  5
100000DC
  8
VISIBLE
 10
-0.0056419494468152
 20
2.604751880925745
 30
0.0625
  0
VERTEX
  5
100000DD
  8
VISIBLE
 10
-0.0061223174367342
 20
2.507206719917682
 30
0.0625
  0
VERTEX
  5
100000DE
  8
VISIBLE
 10
-0.0056419494468147
 20
2.409661558909618
 30
0.0625
  0
VERTEX
  5
100000DF
  8
VISIBLE
 10
-0.0042193057495159
 20
2.315865003735137
 30
0.0625
  0
VERTEX
  5
100000E0
  8
VISIBLE
 10
-0.0019090577442972
 20
2.22942160340788
 30
0.0625
  0
VERTEX
  5
100000E1
  8
VISIBLE
 10
0.001200013033603
 20
2.153653329324408
 30
0.0625
  0
VERTEX
  5
100000E2
  8
VISIBLE
 10
0.0049884267377767
 20
2.091471913766409
 30
0.0625
  0
VERTEX
  5
100000E3
  8
VISIBLE
 10
0.0093105967541397
 20
2.045266953662038
 30
0.0625
  0
VERTEX
  5
100000E4
  8
VISIBLE
 10
0.0140004245128638
 20
2.016814079716066
 30
0.0625
  0
VERTEX
  5
100000E5
  8
VISIBLE
 10
0.018877682563267
 20
2.007206719917682
 30
0.0625
  0
VERTEX
  5
100000E6
  8
VISIBLE
 10
0.0237549406136702
 20
2.016814079716066
 30
0.0625
  0
VERTEX
  5
100000E7
  8
VISIBLE
 10
0.0284447683723942
 20
2.045266953662038
 30
0.0625
  0
VERTEX
  5
100000E8
  8
VISIBLE
 10
0.0327669383887569
 20
2.091471913766409
 30
0.0625
  0
VERTEX
  5
100000E9
  8
VISIBLE
 10
0.0365553520929304
 20
2.153653329324408
 30
0.0625
  0
VERTEX
  5
100000EA
  8
VISIBLE
 10
0.0396644228708301
 20
2.229421603407881
 30
0.0625
  0
VERTEX
  5
100000EB
  8
VISIBLE
 10
0.0419746708760485
 20
2.315865003735138
 30
0.0625
  0
VERTEX
  5
100000EC
  8
VISIBLE
 10
0.0433973145733468
 20
2.409661558909618
 30
0.0625
  0
VERTEX
  5
100000ED
  8
VISIBLE
 10
0.0438776825632658
 20
2.507206719917683
 30
0.0625
  0
VERTEX
  5
100000EE
  8
VISIBLE
 10
0.0433973145733463
 20
2.604751880925747
 30
0.0625
  0
VERTEX
  5
100000EF
  8
VISIBLE
 10
0.0419746708760475
 20
2.698548436100228
 30
0.0625
  0
VERTEX
  5
100000F0
  8
VISIBLE
 10
0.0396644228708288
 20
2.784991836427484
 30
0.0625
  0
VERTEX
  5
100000F1
  8
VISIBLE
 10
0.0365553520929286
 20
2.860760110510956
 30
0.0625
  0
VERTEX
  5
100000F2
  8
VISIBLE
 10
0.0327669383887548
 20
2.922941526068955
 30
0.0625
  0
VERTEX
  5
100000F3
  8
VISIBLE
 10
0.0284447683723919
 20
2.969146486173326
 30
0.0625
  0
VERTEX
  5
100000F4
  8
VISIBLE
 10
0.0237549406136678
 20
2.997599360119297
 30
0.0625
  0
SEQEND
  5
1000030A
  8
VISIBLE
  0
POLYLINE
  5
F4675
  8
VISIBLE
 66
     1
 10
0.0
 20
0.0
 30
0.0625
 70
     1
  0
VERTEX
  5
100000F5
  8
VISIBLE
 10
0.1548627219333433
 20
3.007206719917682
 30
0.0625
  0
VERTEX
  5
100000F6
  8
VISIBLE
 10
0.1499854638829402
 20
2.997599360119297
 30
0.0625
  0
VERTEX
  5
100000F7
  8
VISIBLE
 10
0.1452956361242162
 20
2.969146486173325
 30
0.0625
  0
VERTEX
  5
100000F8
  8
VISIBLE
 10
0.1409734661078535
 20
2.922941526068954
 30
0.0625
  0
VERTEX
  5
100000F9
  8
VISIBLE
 10
0.13718505240368
 20
2.860760110510955
 30
0.0625
  0
VERTEX
  5
100000FA
  8
VISIBLE
 10
0.1340759816257802
 20
2.784991836427483
 30
0.0625
  0
VERTEX
  5
100000FB
  8
VISIBLE
 10
0.1317657336205619
 20
2.698548436100226
 30
0.0625
  0
VERTEX
  5
100000FC
  8
VISIBLE
 10
0.1303430899232635
 20
2.604751880925745
 30
0.0625
  0
VERTEX
  5
100000FD
  8
VISIBLE
 10
0.1298627219333445
 20
2.507206719917682
 30
0.0625
  0
VERTEX
  5
100000FE
  8
VISIBLE
 10
0.130343089923264
 20
2.409661558909618
 30
0.0625
  0
VERTEX
  5
100000FF
  8
VISIBLE
 10
0.1317657336205628
 20
2.315865003735137
 30
0.0625
  0
VERTEX
  5
10000100
  8
VISIBLE
 10
0.1340759816257815
 20
2.22942160340788
 30
0.0625
  0
VERTEX
  5
10000101
  8
VISIBLE
 10
0.1371850524036816
 20
2.153653329324408
 30
0.0625
  0
VERTEX
  5
10000102
  8
VISIBLE
 10
0.1409734661078555
 20
2.091471913766409
 30
0.0625
  0
VERTEX
  5
10000103
  8
VISIBLE
 10
0.1452956361242184
 20
2.045266953662038
 30
0.0625
  0
VERTEX
  5
10000104
  8
VISIBLE
 10
0.1499854638829425
 20
2.016814079716066
 30
0.0625
  0
VERTEX
  5
10000105
  8
VISIBLE
 10
0.1548627219333457
 20
2.007206719917682
 30
0.0625
  0
VERTEX
  5
10000106
  8
VISIBLE
 10
0.1597399799837489
 20
2.016814079716066
 30
0.0625
  0
VERTEX
  5
10000107
  8
VISIBLE
 10
0.1644298077424729
 20
2.045266953662038
 30
0.0625
  0
VERTEX
  5
10000108
  8
VISIBLE
 10
0.1687519777588356
 20
2.091471913766409
 30
0.0625
  0
VERTEX
  5
10000109
  8
VISIBLE
 10
0.1725403914630091
 20
2.153653329324408
 30
0.0625
  0
VERTEX
  5
1000010A
  8
VISIBLE
 10
0.1756494622409089
 20
2.229421603407881
 30
0.0625
  0
VERTEX
  5
1000010B
  8
VISIBLE
 10
0.1779597102461272
 20
2.315865003735138
 30
0.0625
  0
VERTEX
  5
1000010C
  8
VISIBLE
 10
0.1793823539434255
 20
2.409661558909618
 30
0.0625
  0
VERTEX
  5
1000010D
  8
VISIBLE
 10
0.1798627219333445
 20
2.507206719917683
 30
0.0625
  0
VERTEX
  5
1000010E
  8
VISIBLE
 10
0.1793823539434251
 20
2.604751880925747
 30
0.0625
  0
VERTEX
  5
1000010F
  8
VISIBLE
 10
0.1779597102461262
 20
2.698548436100228
 30
0.0625
  0
VERTEX
  5
10000110
  8
VISIBLE
 10
0.1756494622409074
 20
2.784991836427484
 30
0.0625
  0
VERTEX
  5
10000111
  8
VISIBLE
 10
0.1725403914630073
 20
2.860760110510956
 30
0.0625
  0
VERTEX
  5
10000112
  8
VISIBLE
 10
0.1687519777588335
 20
2.922941526068955
 30
0.0625
  0
VERTEX
  5
10000113
  8
VISIBLE
 10
0.1644298077424706
 20
2.969146486173326
 30
0.0625
  0
VERTEX
  5
10000114
  8
VISIBLE
 10
0.1597399799837465
 20
2.997599360119297
 30
0.0625
  0
SEQEND
  5
1000030B
  8
VISIBLE
  0
POLYLINE
  5
F4676
  8
VISIBLE
 66
     1
 10
0.0
 20
0.0
 30
0.0625
 70
     1
  0
VERTEX
  5
10000115
  8
VISIBLE
 10
0.290847761303422
 20
3.007206719917682
 30
0.0625
  0
VERTEX
  5
10000116
  8
VISIBLE
 10
0.2859705032530188
 20
2.997599360119297
 30
0.0625
  0
VERTEX
  5
10000117
  8
VISIBLE
 10
0.2812806754942949
 20
2.969146486173325
 30
0.0625
  0
VERTEX
  5
10000118
  8
VISIBLE
 10
0.2769585054779322
 20
2.922941526068954
 30
0.0625
  0
VERTEX
  5
10000119
  8
VISIBLE
 10
0.2731700917737587
 20
2.860760110510955
 30
0.0625
  0
VERTEX
  5
1000011A
  8
VISIBLE
 10
0.2700610209958589
 20
2.784991836427483
 30
0.0625
  0
VERTEX
  5
1000011B
  8
VISIBLE
 10
0.2677507729906406
 20
2.698548436100226
 30
0.0625
  0
VERTEX
  5
1000011C
  8
VISIBLE
 10
0.2663281292933422
 20
2.604751880925745
 30
0.0625
  0
VERTEX
  5
1000011D
  8
VISIBLE
 10
0.2658477613034232
 20
2.507206719917682
 30
0.0625
  0
VERTEX
  5
1000011E
  8
VISIBLE
 10
0.2663281292933427
 20
2.409661558909618
 30
0.0625
  0
VERTEX
  5
1000011F
  8
VISIBLE
 10
0.2677507729906415
 20
2.315865003735137
 30
0.0625
  0
VERTEX
  5
10000120
  8
VISIBLE
 10
0.2700610209958602
 20
2.22942160340788
 30
0.0625
  0
VERTEX
  5
10000121
  8
VISIBLE
 10
0.2731700917737603
 20
2.153653329324408
 30
0.0625
  0
VERTEX
  5
10000122
  8
VISIBLE
 10
0.2769585054779342
 20
2.091471913766409
 30
0.0625
  0
VERTEX
  5
10000123
  8
VISIBLE
 10
0.2812806754942971
 20
2.045266953662038
 30
0.0625
  0
VERTEX
  5
10000124
  8
VISIBLE
 10
0.2859705032530212
 20
2.016814079716066
 30
0.0625
  0
VERTEX
  5
10000125
  8
VISIBLE
 10
0.2908477613034244
 20
2.007206719917682
 30
0.0625
  0
VERTEX
  5
10000126
  8
VISIBLE
 10
0.2957250193538276
 20
2.016814079716066
 30
0.0625
  0
VERTEX
  5
10000127
  8
VISIBLE
 10
0.3004148471125516
 20
2.045266953662038
 30
0.0625
  0
VERTEX
  5
10000128
  8
VISIBLE
 10
0.3047370171289143
 20
2.091471913766409
 30
0.0625
  0
VERTEX
  5
10000129
  8
VISIBLE
 10
0.3085254308330878
 20
2.153653329324408
 30
0.0625
  0
VERTEX
  5
1000012A
  8
VISIBLE
 10
0.3116345016109875
 20
2.229421603407881
 30
0.0625
  0
VERTEX
  5
1000012B
  8
VISIBLE
 10
0.3139447496162058
 20
2.315865003735138
 30
0.0625
  0
VERTEX
  5
1000012C
  8
VISIBLE
 10
0.3153673933135042
 20
2.409661558909618
 30
0.0625
  0
VERTEX
  5
1000012D
  8
VISIBLE
 10
0.3158477613034232
 20
2.507206719917683
 30
0.0625
  0
VERTEX
  5
1000012E
  8
VISIBLE
 10
0.3153673933135038
 20
2.604751880925747
 30
0.0625
  0
VERTEX
  5
1000012F
  8
VISIBLE
 10
0.3139447496162049
 20
2.698548436100228
 30
0.0625
  0
VERTEX
  5
10000130
  8
VISIBLE
 10
0.3116345016109862
 20
2.784991836427484
 30
0.0625
  0
VERTEX
  5
10000131
  8
VISIBLE
 10
0.308525430833086
 20
2.860760110510956
 30
0.0625
  0
VERTEX
  5
10000132
  8
VISIBLE
 10
0.3047370171289122
 20
2.922941526068955
 30
0.0625
  0
VERTEX
  5
10000133
  8
VISIBLE
 10
0.3004148471125493
 20
2.969146486173326
 30
0.0625
  0
VERTEX
  5
10000134
  8
VISIBLE
 10
0.2957250193538252
 20
2.997599360119297
 30
0.0625
  0
SEQEND
  5
1000030C
  8
VISIBLE
  0
POLYLINE
  5
F4677
  8
VISIBLE
 66
     1
 10
0.0
 20
0.0
 30
0.0625
 70
     1
  0
VERTEX
  5
10000135
  8
VISIBLE
 10
0.4268328006735007
 20
3.007206719917682
 30
0.0625
  0
VERTEX
  5
10000136
  8
VISIBLE
 10
0.4219555426230974
 20
2.997599360119297
 30
0.0625
  0
VERTEX
  5
10000137
  8
VISIBLE
 10
0.4172657148643735
 20
2.969146486173325
 30
0.0625
  0
VERTEX
  5
10000138
  8
VISIBLE
 10
0.4129435448480108
 20
2.922941526068954
 30
0.0625
  0
VERTEX
  5
10000139
  8
VISIBLE
 10
0.4091551311438373
 20
2.860760110510955
 30
0.0625
  0
VERTEX
  5
1000013A
  8
VISIBLE
 10
0.4060460603659375
 20
2.784991836427483
 30
0.0625
  0
VERTEX
  5
1000013B
  8
VISIBLE
 10
0.4037358123607192
 20
2.698548436100226
 30
0.0625
  0
VERTEX
  5
1000013C
  8
VISIBLE
 10
0.4023131686634208
 20
2.604751880925745
 30
0.0625
  0
VERTEX
  5
1000013D
  8
VISIBLE
 10
0.4018328006735018
 20
2.507206719917682
 30
0.0625
  0
VERTEX
  5
1000013E
  8
VISIBLE
 10
0.4023131686634213
 20
2.409661558909618
 30
0.0625
  0
VERTEX
  5
1000013F
  8
VISIBLE
 10
0.4037358123607201
 20
2.315865003735137
 30
0.0625
  0
VERTEX
  5
10000140
  8
VISIBLE
 10
0.4060460603659388
 20
2.22942160340788
 30
0.0625
  0
VERTEX
  5
10000141
  8
VISIBLE
 10
0.4091551311438389
 20
2.153653329324408
 30
0.0625
  0
VERTEX
  5
10000142
  8
VISIBLE
 10
0.4129435448480128
 20
2.091471913766409
 30
0.0625
  0
VERTEX
  5
10000143
  8
VISIBLE
 10
0.4172657148643757
 20
2.045266953662038
 30
0.0625
  0
VERTEX
  5
10000144
  8
VISIBLE
 10
0.4219555426230998
 20
2.016814079716066
 30
0.0625
  0
VERTEX
  5
10000145
  8
VISIBLE
 10
0.426832800673503
 20
2.007206719917682
 30
0.0625
  0
VERTEX
  5
10000146
  8
VISIBLE
 10
0.4317100587239062
 20
2.016814079716066
 30
0.0625
  0
VERTEX
  5
10000147
  8
VISIBLE
 10
0.4363998864826302
 20
2.045266953662038
 30
0.0625
  0
VERTEX
  5
10000148
  8
VISIBLE
 10
0.4407220564989929
 20
2.091471913766409
 30
0.0625
  0
VERTEX
  5
10000149
  8
VISIBLE
 10
0.4445104702031664
 20
2.153653329324408
 30
0.0625
  0
VERTEX
  5
1000014A
  8
VISIBLE
 10
0.4476195409810662
 20
2.229421603407881
 30
0.0625
  0
VERTEX
  5
1000014B
  8
VISIBLE
 10
0.4499297889862844
 20
2.315865003735138
 30
0.0625
  0
VERTEX
  5
1000014C
  8
VISIBLE
 10
0.4513524326835828
 20
2.409661558909618
 30
0.0625
  0
VERTEX
  5
1000014D
  8
VISIBLE
 10
0.4518328006735018
 20
2.507206719917683
 30
0.0625
  0
VERTEX
  5
1000014E
  8
VISIBLE
 10
0.4513524326835824
 20
2.604751880925747
 30
0.0625
  0
VERTEX
  5
1000014F
  8
VISIBLE
 10
0.4499297889862836
 20
2.698548436100228
 30
0.0625
  0
VERTEX
  5
10000150
  8
VISIBLE
 10
0.4476195409810648
 20
2.784991836427484
 30
0.0625
  0
VERTEX
  5
10000151
  8
VISIBLE
 10
0.4445104702031646
 20
2.860760110510956
 30
0.0625
  0
VERTEX
  5
10000152
  8
VISIBLE
 10
0.4407220564989908
 20
2.922941526068955
 30
0.0625
  0
VERTEX
  5
10000153
  8
VISIBLE
 10
0.4363998864826279
 20
2.969146486173326
 30
0.0625
  0
VERTEX
  5
10000154
  8
VISIBLE
 10
0.4317100587239038
 20
2.997599360119297
 30
0.0625
  0
SEQEND
  5
1000030D
  8
VISIBLE
  0
POLYLINE
  5
F4678
  8
VISIBLE
 66
     1
 10
0.0
 20
0.0
 30
0.0625
 70
     1
  0
VERTEX
  5
10000155
  8
VISIBLE
 10
0.5628178400435793
 20
3.007206719917682
 30
0.0625
  0
VERTEX
  5
10000156
  8
VISIBLE
 10
0.5579405819931761
 20
2.997599360119297
 30
0.0625
  0
VERTEX
  5
10000157
  8
VISIBLE
 10
0.5532507542344521
 20
2.969146486173325
 30
0.0625
  0
VERTEX
  5
10000158
  8
VISIBLE
 10
0.5489285842180894
 20
2.922941526068954
 30
0.0625
  0
VERTEX
  5
10000159
  8
VISIBLE
 10
0.545140170513916
 20
2.860760110510955
 30
0.0625
  0
VERTEX
  5
1000015A
  8
VISIBLE
 10
0.5420310997360162
 20
2.784991836427483
 30
0.0625
  0
VERTEX
  5
1000015B
  8
VISIBLE
 10
0.5397208517307979
 20
2.698548436100226
 30
0.0625
  0
VERTEX
  5
1000015C
  8
VISIBLE
 10
0.5382982080334995
 20
2.604751880925745
 30
0.0625
  0
VERTEX
  5
1000015D
  8
VISIBLE
 10
0.5378178400435805
 20
2.507206719917682
 30
0.0625
  0
VERTEX
  5
1000015E
  8
VISIBLE
 10
0.5382982080334999
 20
2.409661558909618
 30
0.0625
  0
VERTEX
  5
1000015F
  8
VISIBLE
 10
0.5397208517307988
 20
2.315865003735137
 30
0.0625
  0
VERTEX
  5
10000160
  8
VISIBLE
 10
0.5420310997360175
 20
2.22942160340788
 30
0.0625
  0
VERTEX
  5
10000161
  8
VISIBLE
 10
0.5451401705139177
 20
2.153653329324408
 30
0.0625
  0
VERTEX
  5
10000162
  8
VISIBLE
 10
0.5489285842180914
 20
2.091471913766409
 30
0.0625
  0
VERTEX
  5
10000163
  8
VISIBLE
 10
0.5532507542344544
 20
2.045266953662038
 30
0.0625
  0
VERTEX
  5
10000164
  8
VISIBLE
 10
0.5579405819931785
 20
2.016814079716066
 30
0.0625
  0
VERTEX
  5
10000165
  8
VISIBLE
 10
0.5628178400435817
 20
2.007206719917682
 30
0.0625
  0
VERTEX
  5
10000166
  8
VISIBLE
 10
0.567695098093985
 20
2.016814079716066
 30
0.0625
  0
VERTEX
  5
10000167
  8
VISIBLE
 10
0.5723849258527088
 20
2.045266953662038
 30
0.0625
  0
VERTEX
  5
10000168
  8
VISIBLE
 10
0.5767070958690715
 20
2.091471913766409
 30
0.0625
  0
VERTEX
  5
10000169
  8
VISIBLE
 10
0.5804955095732451
 20
2.153653329324408
 30
0.0625
  0
VERTEX
  5
1000016A
  8
VISIBLE
 10
0.5836045803511448
 20
2.229421603407881
 30
0.0625
  0
VERTEX
  5
1000016B
  8
VISIBLE
 10
0.5859148283563631
 20
2.315865003735138
 30
0.0625
  0
VERTEX
  5
1000016C
  8
VISIBLE
 10
0.5873374720536615
 20
2.409661558909618
 30
0.0625
  0
VERTEX
  5
1000016D
  8
VISIBLE
 10
0.5878178400435805
 20
2.507206719917683
 30
0.0625
  0
VERTEX
  5
1000016E
  8
VISIBLE
 10
0.587337472053661
 20
2.604751880925747
 30
0.0625
  0
VERTEX
  5
1000016F
  8
VISIBLE
 10
0.5859148283563622
 20
2.698548436100228
 30
0.0625
  0
VERTEX
  5
10000170
  8
VISIBLE
 10
0.5836045803511434
 20
2.784991836427484
 30
0.0625
  0
VERTEX
  5
10000171
  8
VISIBLE
 10
0.5804955095732433
 20
2.860760110510956
 30
0.0625
  0
VERTEX
  5
10000172
  8
VISIBLE
 10
0.5767070958690694
 20
2.922941526068955
 30
0.0625
  0
VERTEX
  5
10000173
  8
VISIBLE
 10
0.5723849258527065
 20
2.969146486173326
 30
0.0625
  0
VERTEX
  5
10000174
  8
VISIBLE
 10
0.5676950980939823
 20
2.997599360119297
 30
0.0625
  0
SEQEND
  5
1000030E
  8
VISIBLE
  0
POLYLINE
  5
F4679
  8
VISIBLE
 66
     1
 10
0.0
 20
0.0
 30
0.0625
 70
     1
  0
VERTEX
  5
10000175
  8
VISIBLE
 10
0.6988028794136579
 20
3.007206719917682
 30
0.0625
  0
VERTEX
  5
10000176
  8
VISIBLE
 10
0.6939256213632548
 20
2.997599360119297
 30
0.0625
  0
VERTEX
  5
10000177
  8
VISIBLE
 10
0.6892357936045308
 20
2.969146486173325
 30
0.0625
  0
VERTEX
  5
10000178
  8
VISIBLE
 10
0.6849136235881681
 20
2.922941526068954
 30
0.0625
  0
VERTEX
  5
10000179
  8
VISIBLE
 10
0.6811252098839946
 20
2.860760110510955
 30
0.0625
  0
VERTEX
  5
1000017A
  8
VISIBLE
 10
0.6780161391060948
 20
2.784991836427483
 30
0.0625
  0
VERTEX
  5
1000017B
  8
VISIBLE
 10
0.6757058911008765
 20
2.698548436100226
 30
0.0625
  0
VERTEX
  5
1000017C
  8
VISIBLE
 10
0.6742832474035781
 20
2.604751880925745
 30
0.0625
  0
VERTEX
  5
1000017D
  8
VISIBLE
 10
0.6738028794136591
 20
2.507206719917682
 30
0.0625
  0
VERTEX
  5
1000017E
  8
VISIBLE
 10
0.6742832474035786
 20
2.409661558909618
 30
0.0625
  0
VERTEX
  5
1000017F
  8
VISIBLE
 10
0.6757058911008774
 20
2.315865003735137
 30
0.0625
  0
VERTEX
  5
10000180
  8
VISIBLE
 10
0.6780161391060961
 20
2.22942160340788
 30
0.0625
  0
VERTEX
  5
10000181
  8
VISIBLE
 10
0.6811252098839964
 20
2.153653329324408
 30
0.0625
  0
VERTEX
  5
10000182
  8
VISIBLE
 10
0.6849136235881701
 20
2.091471913766409
 30
0.0625
  0
VERTEX
  5
10000183
  8
VISIBLE
 10
0.689235793604533
 20
2.045266953662038
 30
0.0625
  0
VERTEX
  5
10000184
  8
VISIBLE
 10
0.6939256213632572
 20
2.016814079716066
 30
0.0625
  0
VERTEX
  5
10000185
  8
VISIBLE
 10
0.6988028794136604
 20
2.007206719917682
 30
0.0625
  0
VERTEX
  5
10000186
  8
VISIBLE
 10
0.7036801374640635
 20
2.016814079716066
 30
0.0625
  0
VERTEX
  5
10000187
  8
VISIBLE
 10
0.7083699652227875
 20
2.045266953662038
 30
0.0625
  0
VERTEX
  5
10000188
  8
VISIBLE
 10
0.7126921352391502
 20
2.091471913766409
 30
0.0625
  0
VERTEX
  5
10000189
  8
VISIBLE
 10
0.7164805489433238
 20
2.153653329324408
 30
0.0625
  0
VERTEX
  5
1000018A
  8
VISIBLE
 10
0.7195896197212235
 20
2.229421603407881
 30
0.0625
  0
VERTEX
  5
1000018B
  8
VISIBLE
 10
0.7218998677264418
 20
2.315865003735138
 30
0.0625
  0
VERTEX
  5
1000018C
  8
VISIBLE
 10
0.7233225114237402
 20
2.409661558909618
 30
0.0625
  0
VERTEX
  5
1000018D
  8
VISIBLE
 10
0.7238028794136592
 20
2.507206719917683
 30
0.0625
  0
VERTEX
  5
1000018E
  8
VISIBLE
 10
0.7233225114237397
 20
2.604751880925747
 30
0.0625
  0
VERTEX
  5
1000018F
  8
VISIBLE
 10
0.7218998677264409
 20
2.698548436100228
 30
0.0625
  0
VERTEX
  5
10000190
  8
VISIBLE
 10
0.719589619721222
 20
2.784991836427484
 30
0.0625
  0
VERTEX
  5
10000191
  8
VISIBLE
 10
0.7164805489433219
 20
2.860760110510956
 30
0.0625
  0
VERTEX
  5
10000192
  8
VISIBLE
 10
0.7126921352391481
 20
2.922941526068955
 30
0.0625
  0
VERTEX
  5
10000193
  8
VISIBLE
 10
0.7083699652227852
 20
2.969146486173326
 30
0.0625
  0
VERTEX
  5
10000194
  8
VISIBLE
 10
0.703680137464061
 20
2.997599360119297
 30
0.0625
  0
SEQEND
  5
1000030F
  8
VISIBLE
  0
POLYLINE
  5
F467A
  8
VISIBLE
 66
     1
 10
0.0
 20
0.0
 30
0.0625
 70
     1
  0
VERTEX
  5
10000195
  8
VISIBLE
 10
0.8347879187837366
 20
3.007206719917681
 30
0.0625
  0
VERTEX
  5
10000196
  8
VISIBLE
 10
0.8299106607333334
 20
2.997599360119296
 30
0.0625
  0
VERTEX
  5
10000197
  8
VISIBLE
 10
0.8252208329746095
 20
2.969146486173325
 30
0.0625
  0
VERTEX
  5
10000198
  8
VISIBLE
 10
0.8208986629582468
 20
2.922941526068954
 30
0.0625
  0
VERTEX
  5
10000199
  8
VISIBLE
 10
0.8171102492540733
 20
2.860760110510955
 30
0.0625
  0
VERTEX
  5
1000019A
  8
VISIBLE
 10
0.8140011784761735
 20
2.784991836427482
 30
0.0625
  0
VERTEX
  5
1000019B
  8
VISIBLE
 10
0.8116909304709552
 20
2.698548436100226
 30
0.0625
  0
VERTEX
  5
1000019C
  8
VISIBLE
 10
0.8102682867736568
 20
2.604751880925745
 30
0.0625
  0
VERTEX
  5
1000019D
  8
VISIBLE
 10
0.8097879187837378
 20
2.507206719917681
 30
0.0625
  0
VERTEX
  5
1000019E
  8
VISIBLE
 10
0.8102682867736573
 20
2.409661558909617
 30
0.0625
  0
VERTEX
  5
1000019F
  8
VISIBLE
 10
0.8116909304709561
 20
2.315865003735136
 30
0.0625
  0
VERTEX
  5
100001A0
  8
VISIBLE
 10
0.8140011784761748
 20
2.22942160340788
 30
0.0625
  0
VERTEX
  5
100001A1
  8
VISIBLE
 10
0.817110249254075
 20
2.153653329324407
 30
0.0625
  0
VERTEX
  5
100001A2
  8
VISIBLE
 10
0.8208986629582488
 20
2.091471913766408
 30
0.0625
  0
VERTEX
  5
100001A3
  8
VISIBLE
 10
0.8252208329746117
 20
2.045266953662038
 30
0.0625
  0
VERTEX
  5
100001A4
  8
VISIBLE
 10
0.8299106607333359
 20
2.016814079716066
 30
0.0625
  0
VERTEX
  5
100001A5
  8
VISIBLE
 10
0.834787918783739
 20
2.007206719917681
 30
0.0625
  0
VERTEX
  5
100001A6
  8
VISIBLE
 10
0.8396651768341423
 20
2.016814079716066
 30
0.0625
  0
VERTEX
  5
100001A7
  8
VISIBLE
 10
0.8443550045928662
 20
2.045266953662038
 30
0.0625
  0
VERTEX
  5
100001A8
  8
VISIBLE
 10
0.8486771746092289
 20
2.091471913766409
 30
0.0625
  0
VERTEX
  5
100001A9
  8
VISIBLE
 10
0.8524655883134025
 20
2.153653329324408
 30
0.0625
  0
VERTEX
  5
100001AA
  8
VISIBLE
 10
0.8555746590913021
 20
2.22942160340788
 30
0.0625
  0
VERTEX
  5
100001AB
  8
VISIBLE
 10
0.8578849070965204
 20
2.315865003735137
 30
0.0625
  0
VERTEX
  5
100001AC
  8
VISIBLE
 10
0.8593075507938188
 20
2.409661558909618
 30
0.0625
  0
VERTEX
  5
100001AD
  8
VISIBLE
 10
0.8597879187837378
 20
2.507206719917682
 30
0.0625
  0
VERTEX
  5
100001AE
  8
VISIBLE
 10
0.8593075507938184
 20
2.604751880925746
 30
0.0625
  0
VERTEX
  5
100001AF
  8
VISIBLE
 10
0.8578849070965195
 20
2.698548436100227
 30
0.0625
  0
VERTEX
  5
100001B0
  8
VISIBLE
 10
0.8555746590913007
 20
2.784991836427483
 30
0.0625
  0
VERTEX
  5
100001B1
  8
VISIBLE
 10
0.8524655883134006
 20
2.860760110510956
 30
0.0625
  0
VERTEX
  5
100001B2
  8
VISIBLE
 10
0.8486771746092268
 20
2.922941526068955
 30
0.0625
  0
VERTEX
  5
100001B3
  8
VISIBLE
 10
0.8443550045928638
 20
2.969146486173325
 30
0.0625
  0
VERTEX
  5
100001B4
  8
VISIBLE
 10
0.8396651768341397
 20
2.997599360119297
 30
0.0625
  0
SEQEND
  5
10000310
  8
VISIBLE
  0
POLYLINE
  5
F467B
  8
VISIBLE
 66
     1
 10
0.0
 20
0.0
 30
0.0625
  0
VERTEX
  5
100001B5
  8
VISIBLE
 10
0.8832729581538317
 20
3.132206719917682
 30
0.0625
  0
VERTEX
  5
100001B6
  8
VISIBLE
 10
0.8837533261437479
 20
3.024907042808812
 30
0.0625
  0
VERTEX
  5
100001B7
  8
VISIBLE
 10
0.8851759698410437
 20
2.921730832116882
 30
0.0625
  0
VERTEX
  5
100001B8
  8
VISIBLE
 10
0.8874862178462596
 20
2.826643091756901
 30
0.0625
  0
VERTEX
  5
100001B9
  8
VISIBLE
 10
0.8905952886241574
 20
2.74329799026508
 30
0.0625
  0
VERTEX
  5
100001BA
  8
VISIBLE
 10
0.8943837023283291
 20
2.674898433151282
 30
0.0625
  0
VERTEX
  5
100001BB
  8
VISIBLE
 10
0.8987058723446905
 20
2.624072977036474
 30
0.0625
  0
VERTEX
  5
100001BC
  8
VISIBLE
 10
0.9033957001034136
 20
2.592774815695905
 30
0.0625
  0
VERTEX
  5
100001BD
  8
VISIBLE
 10
0.9082729581538166
 20
2.582206719917681
 30
0.0625
  0
VERTEX
  5
100001BE
  8
VISIBLE
 10
0.9131502162042201
 20
2.592774815695905
 30
0.0625
  0
VERTEX
  5
100001BF
  8
VISIBLE
 10
0.9178400439629449
 20
2.624072977036473
 30
0.0625
  0
VERTEX
  5
100001C0
  8
VISIBLE
 10
0.9221622139793092
 20
2.674898433151282
 30
0.0625
  0
VERTEX
  5
100001C1
  8
VISIBLE
 10
0.9259506276834848
 20
2.743297990265081
 30
0.0625
  0
VERTEX
  5
100001C2
  8
VISIBLE
 10
0.9290596984613869
 20
2.826643091756901
 30
0.0625
  0
VERTEX
  5
100001C3
  8
VISIBLE
 10
0.9313699464666081
 20
2.921730832116883
 30
0.0625
  0
VERTEX
  5
100001C4
  8
VISIBLE
 10
0.9327925901639095
 20
3.024907042808812
 30
0.0625
  0
VERTEX
  5
100001C5
  8
VISIBLE
 10
0.9332729581538317
 20
3.132206719917682
 30
0.0625
  0
SEQEND
  5
10000311
  8
VISIBLE
  0
LINE
  5
F467C
  8
VISIBLE
 10
0.8832729581538317
 20
3.132206719917682
 30
0.0625
 11
0.797287918783753
 21
3.132206719917682
 31
0.0625
  0
POLYLINE
  5
F467D
  8
VISIBLE
 66
     1
 10
0.0
 20
0.0
 30
0.0625
  0
VERTEX
  5
100001C6
  8
VISIBLE
 10
0.747287918783753
 20
3.132206719917682
 30
0.0625
  0
VERTEX
  5
100001C7
  8
VISIBLE
 10
0.7477682867736692
 20
3.024907042808812
 30
0.0625
  0
VERTEX
  5
100001C8
  8
VISIBLE
 10
0.7491909304709651
 20
2.921730832116882
 30
0.0625
  0
VERTEX
  5
100001C9
  8
VISIBLE
 10
0.7515011784761809
 20
2.826643091756901
 30
0.0625
  0
VERTEX
  5
100001CA
  8
VISIBLE
 10
0.7546102492540787
 20
2.74329799026508
 30
0.0625
  0
VERTEX
  5
100001CB
  8
VISIBLE
 10
0.7583986629582504
 20
2.674898433151282
 30
0.0625
  0
VERTEX
  5
100001CC
  8
VISIBLE
 10
0.7627208329746118
 20
2.624072977036474
 30
0.0625
  0
VERTEX
  5
100001CD
  8
VISIBLE
 10
0.767410660733335
 20
2.592774815695905
 30
0.0625
  0
VERTEX
  5
100001CE
  8
VISIBLE
 10
0.7722879187837379
 20
2.582206719917681
 30
0.0625
  0
VERTEX
  5
100001CF
  8
VISIBLE
 10
0.7771651768341414
 20
2.592774815695905
 30
0.0625
  0
VERTEX
  5
100001D0
  8
VISIBLE
 10
0.7818550045928663
 20
2.624072977036473
 30
0.0625
  0
VERTEX
  5
100001D1
  8
VISIBLE
 10
0.7861771746092305
 20
2.674898433151282
 30
0.0625
  0
VERTEX
  5
100001D2
  8
VISIBLE
 10
0.7899655883134061
 20
2.743297990265081
 30
0.0625
  0
VERTEX
  5
100001D3
  8
VISIBLE
 10
0.7930746590913083
 20
2.826643091756901
 30
0.0625
  0
VERTEX
  5
100001D4
  8
VISIBLE
 10
0.7953849070965294
 20
2.921730832116883
 30
0.0625
  0
VERTEX
  5
100001D5
  8
VISIBLE
 10
0.7968075507938308
 20
3.024907042808812
 30
0.0625
  0
VERTEX
  5
100001D6
  8
VISIBLE
 10
0.797287918783753
 20
3.132206719917682
 30
0.0625
  0
SEQEND
  5
10000312
  8
VISIBLE
  0
LINE
  5
F467E
  8
VISIBLE
 10
0.747287918783753
 20
3.132206719917682
 30
0.0625
 11
0.6613028794136744
 21
3.132206719917682
 31
0.0625
  0
POLYLINE
  5
F467F
  8
VISIBLE
 66
     1
 10
0.0
 20
0.0
 30
0.0625
  0
VERTEX
  5
100001D7
  8
VISIBLE
 10
0.6113028794136743
 20
3.132206719917682
 30
0.0625
  0
VERTEX
  5
100001D8
  8
VISIBLE
 10
0.6117832474035906
 20
3.024907042808811
 30
0.0625
  0
VERTEX
  5
100001D9
  8
VISIBLE
 10
0.6132058911008864
 20
2.921730832116882
 30
0.0625
  0
VERTEX
  5
100001DA
  8
VISIBLE
 10
0.6155161391061023
 20
2.8266430917569
 30
0.0625
  0
VERTEX
  5
100001DB
  8
VISIBLE
 10
0.618625209884
 20
2.74329799026508
 30
0.0625
  0
VERTEX
  5
100001DC
  8
VISIBLE
 10
0.6224136235881718
 20
2.674898433151281
 30
0.0625
  0
VERTEX
  5
100001DD
  8
VISIBLE
 10
0.6267357936045331
 20
2.624072977036474
 30
0.0625
  0
VERTEX
  5
100001DE
  8
VISIBLE
 10
0.6314256213632563
 20
2.592774815695905
 30
0.0625
  0
VERTEX
  5
100001DF
  8
VISIBLE
 10
0.6363028794136593
 20
2.582206719917681
 30
0.0625
  0
VERTEX
  5
100001E0
  8
VISIBLE
 10
0.6411801374640628
 20
2.592774815695905
 30
0.0625
  0
VERTEX
  5
100001E1
  8
VISIBLE
 10
0.6458699652227877
 20
2.624072977036474
 30
0.0625
  0
VERTEX
  5
100001E2
  8
VISIBLE
 10
0.650192135239152
 20
2.674898433151282
 30
0.0625
  0
VERTEX
  5
100001E3
  8
VISIBLE
 10
0.6539805489433275
 20
2.743297990265081
 30
0.0625
  0
VERTEX
  5
100001E4
  8
VISIBLE
 10
0.6570896197212296
 20
2.826643091756901
 30
0.0625
  0
VERTEX
  5
100001E5
  8
VISIBLE
 10
0.6593998677264508
 20
2.921730832116883
 30
0.0625
  0
VERTEX
  5
100001E6
  8
VISIBLE
 10
0.6608225114237521
 20
3.024907042808812
 30
0.0625
  0
VERTEX
  5
100001E7
  8
VISIBLE
 10
0.6613028794136744
 20
3.132206719917682
 30
0.0625
  0
SEQEND
  5
10000313
  8
VISIBLE
  0
LINE
  5
F4680
  8
VISIBLE
 10
0.6113028794136743
 20
3.132206719917682
 30
0.0625
 11
0.5253178400435957
 21
3.132206719917682
 31
0.0625
  0
POLYLINE
  5
F4681
  8
VISIBLE
 66
     1
 10
0.0
 20
0.0
 30
0.0625
  0
VERTEX
  5
100001E8
  8
VISIBLE
 10
0.4753178400435957
 20
3.132206719917682
 30
0.0625
  0
VERTEX
  5
100001E9
  8
VISIBLE
 10
0.4757982080335119
 20
3.024907042808812
 30
0.0625
  0
VERTEX
  5
100001EA
  8
VISIBLE
 10
0.4772208517308077
 20
2.921730832116882
 30
0.0625
  0
VERTEX
  5
100001EB
  8
VISIBLE
 10
0.4795310997360236
 20
2.826643091756901
 30
0.0625
  0
VERTEX
  5
100001EC
  8
VISIBLE
 10
0.4826401705139214
 20
2.74329799026508
 30
0.0625
  0
VERTEX
  5
100001ED
  8
VISIBLE
 10
0.4864285842180931
 20
2.674898433151282
 30
0.0625
  0
VERTEX
  5
100001EE
  8
VISIBLE
 10
0.4907507542344545
 20
2.624072977036474
 30
0.0625
  0
VERTEX
  5
100001EF
  8
VISIBLE
 10
0.4954405819931776
 20
2.592774815695905
 30
0.0625
  0
VERTEX
  5
100001F0
  8
VISIBLE
 10
0.5003178400435806
 20
2.582206719917681
 30
0.0625
  0
VERTEX
  5
100001F1
  8
VISIBLE
 10
0.5051950980939841
 20
2.592774815695905
 30
0.0625
  0
VERTEX
  5
100001F2
  8
VISIBLE
 10
0.509884925852709
 20
2.624072977036473
 30
0.0625
  0
VERTEX
  5
100001F3
  8
VISIBLE
 10
0.5142070958690732
 20
2.674898433151282
 30
0.0625
  0
VERTEX
  5
100001F4
  8
VISIBLE
 10
0.5179955095732488
 20
2.743297990265081
 30
0.0625
  0
VERTEX
  5
100001F5
  8
VISIBLE
 10
0.5211045803511509
 20
2.826643091756901
 30
0.0625
  0
VERTEX
  5
100001F6
  8
VISIBLE
 10
0.5234148283563721
 20
2.921730832116883
 30
0.0625
  0
VERTEX
  5
100001F7
  8
VISIBLE
 10
0.5248374720536735
 20
3.024907042808812
 30
0.0625
  0
VERTEX
  5
100001F8
  8
VISIBLE
 10
0.5253178400435957
 20
3.132206719917682
 30
0.0625
  0
SEQEND
  5
10000314
  8
VISIBLE
  0
LINE
  5
F4682
  8
VISIBLE
 10
0.4753178400435957
 20
3.132206719917682
 30
0.0625
 11
0.3893328006735171
 21
3.132206719917682
 31
0.0625
  0
POLYLINE
  5
F4683
  8
VISIBLE
 66
     1
 10
0.0
 20
0.0
 30
0.0625
  0
VERTEX
  5
100001F9
  8
VISIBLE
 10
0.339332800673517
 20
3.132206719917682
 30
0.0625
  0
VERTEX
  5
100001FA
  8
VISIBLE
 10
0.3398131686634333
 20
3.024907042808812
 30
0.0625
  0
VERTEX
  5
100001FB
  8
VISIBLE
 10
0.3412358123607291
 20
2.921730832116882
 30
0.0625
  0
VERTEX
  5
100001FC
  8
VISIBLE
 10
0.343546060365945
 20
2.826643091756901
 30
0.0625
  0
VERTEX
  5
100001FD
  8
VISIBLE
 10
0.3466551311438427
 20
2.74329799026508
 30
0.0625
  0
VERTEX
  5
100001FE
  8
VISIBLE
 10
0.3504435448480144
 20
2.674898433151282
 30
0.0625
  0
VERTEX
  5
100001FF
  8
VISIBLE
 10
0.3547657148643758
 20
2.624072977036474
 30
0.0625
  0
VERTEX
  5
10000200
  8
VISIBLE
 10
0.359455542623099
 20
2.592774815695905
 30
0.0625
  0
VERTEX
  5
10000201
  8
VISIBLE
 10
0.3643328006735019
 20
2.582206719917681
 30
0.0625
  0
VERTEX
  5
10000202
  8
VISIBLE
 10
0.3692100587239054
 20
2.592774815695905
 30
0.0625
  0
VERTEX
  5
10000203
  8
VISIBLE
 10
0.3738998864826303
 20
2.624072977036473
 30
0.0625
  0
VERTEX
  5
10000204
  8
VISIBLE
 10
0.3782220564989945
 20
2.674898433151282
 30
0.0625
  0
VERTEX
  5
10000205
  8
VISIBLE
 10
0.3820104702031701
 20
2.743297990265081
 30
0.0625
  0
VERTEX
  5
10000206
  8
VISIBLE
 10
0.3851195409810723
 20
2.826643091756901
 30
0.0625
  0
VERTEX
  5
10000207
  8
VISIBLE
 10
0.3874297889862935
 20
2.921730832116883
 30
0.0625
  0
VERTEX
  5
10000208
  8
VISIBLE
 10
0.3888524326835949
 20
3.024907042808812
 30
0.0625
  0
VERTEX
  5
10000209
  8
VISIBLE
 10
0.3893328006735171
 20
3.132206719917682
 30
0.0625
  0
SEQEND
  5
10000315
  8
VISIBLE
  0
LINE
  5
F4684
  8
VISIBLE
 10
0.339332800673517
 20
3.132206719917682
 30
0.0625
 11
0.2533477613034384
 21
3.132206719917682
 31
0.0625
  0
POLYLINE
  5
F4685
  8
VISIBLE
 66
     1
 10
0.0
 20
0.0
 30
0.0625
  0
VERTEX
  5
1000020A
  8
VISIBLE
 10
0.2033477613034384
 20
3.132206719917682
 30
0.0625
  0
VERTEX
  5
1000020B
  8
VISIBLE
 10
0.2038281292933547
 20
3.024907042808812
 30
0.0625
  0
VERTEX
  5
1000020C
  8
VISIBLE
 10
0.2052507729906504
 20
2.921730832116882
 30
0.0625
  0
VERTEX
  5
1000020D
  8
VISIBLE
 10
0.2075610209958664
 20
2.826643091756901
 30
0.0625
  0
VERTEX
  5
1000020E
  8
VISIBLE
 10
0.210670091773764
 20
2.74329799026508
 30
0.0625
  0
VERTEX
  5
1000020F
  8
VISIBLE
 10
0.2144585054779358
 20
2.674898433151282
 30
0.0625
  0
VERTEX
  5
10000210
  8
VISIBLE
 10
0.2187806754942972
 20
2.624072977036474
 30
0.0625
  0
VERTEX
  5
10000211
  8
VISIBLE
 10
0.2234705032530204
 20
2.592774815695905
 30
0.0625
  0
VERTEX
  5
10000212
  8
VISIBLE
 10
0.2283477613034233
 20
2.582206719917681
 30
0.0625
  0
VERTEX
  5
10000213
  8
VISIBLE
 10
0.2332250193538268
 20
2.592774815695905
 30
0.0625
  0
VERTEX
  5
10000214
  8
VISIBLE
 10
0.2379148471125517
 20
2.624072977036473
 30
0.0625
  0
VERTEX
  5
10000215
  8
VISIBLE
 10
0.242237017128916
 20
2.674898433151282
 30
0.0625
  0
VERTEX
  5
10000216
  8
VISIBLE
 10
0.2460254308330914
 20
2.743297990265081
 30
0.0625
  0
VERTEX
  5
10000217
  8
VISIBLE
 10
0.2491345016109937
 20
2.826643091756901
 30
0.0625
  0
VERTEX
  5
10000218
  8
VISIBLE
 10
0.2514447496162148
 20
2.921730832116883
 30
0.0625
  0
VERTEX
  5
10000219
  8
VISIBLE
 10
0.2528673933135163
 20
3.024907042808812
 30
0.0625
  0
VERTEX
  5
1000021A
  8
VISIBLE
 10
0.2533477613034384
 20
3.132206719917682
 30
0.0625
  0
SEQEND
  5
10000316
  8
VISIBLE
  0
LINE
  5
F4686
  8
VISIBLE
 10
0.2033477613034384
 20
3.132206719917682
 30
0.0625
 11
0.1173627219333597
 21
3.132206719917682
 31
0.0625
  0
POLYLINE
  5
F4687
  8
VISIBLE
 66
     1
 10
0.0
 20
0.0
 30
0.0625
  0
VERTEX
  5
1000021B
  8
VISIBLE
 10
0.0673627219333597
 20
3.132206719917682
 30
0.0625
  0
VERTEX
  5
1000021C
  8
VISIBLE
 10
0.067843089923276
 20
3.024907042808811
 30
0.0625
  0
VERTEX
  5
1000021D
  8
VISIBLE
 10
0.0692657336205718
 20
2.921730832116882
 30
0.0625
  0
VERTEX
  5
1000021E
  8
VISIBLE
 10
0.0715759816257877
 20
2.8266430917569
 30
0.0625
  0
VERTEX
  5
1000021F
  8
VISIBLE
 10
0.0746850524036853
 20
2.74329799026508
 30
0.0625
  0
VERTEX
  5
10000220
  8
VISIBLE
 10
0.0784734661078571
 20
2.674898433151281
 30
0.0625
  0
VERTEX
  5
10000221
  8
VISIBLE
 10
0.0827956361242185
 20
2.624072977036474
 30
0.0625
  0
VERTEX
  5
10000222
  8
VISIBLE
 10
0.0874854638829417
 20
2.592774815695905
 30
0.0625
  0
VERTEX
  5
10000223
  8
VISIBLE
 10
0.0923627219333446
 20
2.582206719917681
 30
0.0625
  0
VERTEX
  5
10000224
  8
VISIBLE
 10
0.0972399799837481
 20
2.592774815695905
 30
0.0625
  0
VERTEX
  5
10000225
  8
VISIBLE
 10
0.1019298077424731
 20
2.624072977036474
 30
0.0625
  0
VERTEX
  5
10000226
  8
VISIBLE
 10
0.1062519777588372
 20
2.674898433151282
 30
0.0625
  0
VERTEX
  5
10000227
  8
VISIBLE
 10
0.1100403914630128
 20
2.743297990265081
 30
0.0625
  0
VERTEX
  5
10000228
  8
VISIBLE
 10
0.113149462240915
 20
2.826643091756901
 30
0.0625
  0
VERTEX
  5
10000229
  8
VISIBLE
 10
0.1154597102461361
 20
2.921730832116883
 30
0.0625
  0
VERTEX
  5
1000022A
  8
VISIBLE
 10
0.1168823539434375
 20
3.024907042808812
 30
0.0625
  0
VERTEX
  5
1000022B
  8
VISIBLE
 10
0.1173627219333597
 20
3.132206719917682
 30
0.0625
  0
SEQEND
  5
10000317
  8
VISIBLE
  0
LINE
  5
F4688
  8
VISIBLE
 10
0.0673627219333597
 20
3.132206719917682
 30
0.0625
 11
-0.018622317436719
 21
3.132206719917682
 31
0.0625
  0
POLYLINE
  5
F4689
  8
VISIBLE
 66
     1
 10
0.0
 20
0.0
 30
0.0625
  0
VERTEX
  5
1000022C
  8
VISIBLE
 10
-0.068622317436719
 20
3.132206719917682
 30
0.0625
  0
VERTEX
  5
1000022D
  8
VISIBLE
 10
-0.0681419494468027
 20
3.024907042808811
 30
0.0625
  0
VERTEX
  5
1000022E
  8
VISIBLE
 10
-0.0667193057495069
 20
2.921730832116882
 30
0.0625
  0
VERTEX
  5
1000022F
  8
VISIBLE
 10
-0.064409057744291
 20
2.8266430917569
 30
0.0625
  0
VERTEX
  5
10000230
  8
VISIBLE
 10
-0.0612999869663933
 20
2.74329799026508
 30
0.0625
  0
VERTEX
  5
10000231
  8
VISIBLE
 10
-0.0575115732622216
 20
2.674898433151281
 30
0.0625
  0
VERTEX
  5
10000232
  8
VISIBLE
 10
-0.0531894032458602
 20
2.624072977036474
 30
0.0625
  0
VERTEX
  5
10000233
  8
VISIBLE
 10
-0.048499575487137
 20
2.592774815695905
 30
0.0625
  0
VERTEX
  5
10000234
  8
VISIBLE
 10
-0.043622317436734
 20
2.582206719917681
 30
0.0625
  0
VERTEX
  5
10000235
  8
VISIBLE
 10
-0.0387450593863305
 20
2.592774815695905
 30
0.0625
  0
VERTEX
  5
10000236
  8
VISIBLE
 10
-0.0340552316276056
 20
2.624072977036474
 30
0.0625
  0
VERTEX
  5
10000237
  8
VISIBLE
 10
-0.0297330616112414
 20
2.674898433151282
 30
0.0625
  0
VERTEX
  5
10000238
  8
VISIBLE
 10
-0.0259446479070659
 20
2.743297990265081
 30
0.0625
  0
VERTEX
  5
10000239
  8
VISIBLE
 10
-0.0228355771291637
 20
2.826643091756901
 30
0.0625
  0
VERTEX
  5
1000023A
  8
VISIBLE
 10
-0.0205253291239426
 20
2.921730832116883
 30
0.0625
  0
VERTEX
  5
1000023B
  8
VISIBLE
 10
-0.0191026854266411
 20
3.024907042808812
 30
0.0625
  0
VERTEX
  5
1000023C
  8
VISIBLE
 10
-0.018622317436719
 20
3.132206719917682
 30
0.0625
  0
SEQEND
  5
10000318
  8
VISIBLE
  0
LINE
  5
F468A
  8
VISIBLE
 10
-0.068622317436719
 20
3.132206719917682
 30
0.0625
 11
-0.1546073568067977
 21
3.132206719917682
 31
0.0625
  0
POLYLINE
  5
F468B
  8
VISIBLE
 66
     1
 10
0.0
 20
0.0
 30
0.0625
  0
VERTEX
  5
1000023D
  8
VISIBLE
 10
-0.2046073568067978
 20
3.132206719917682
 30
0.0625
  0
VERTEX
  5
1000023E
  8
VISIBLE
 10
-0.2041269888168815
 20
3.024907042808811
 30
0.0625
  0
VERTEX
  5
1000023F
  8
VISIBLE
 10
-0.2027043451195857
 20
2.921730832116882
 30
0.0625
  0
VERTEX
  5
10000240
  8
VISIBLE
 10
-0.2003940971143698
 20
2.8266430917569
 30
0.0625
  0
VERTEX
  5
10000241
  8
VISIBLE
 10
-0.1972850263364722
 20
2.74329799026508
 30
0.0625
  0
VERTEX
  5
10000242
  8
VISIBLE
 10
-0.1934966126323004
 20
2.674898433151281
 30
0.0625
  0
VERTEX
  5
10000243
  8
VISIBLE
 10
-0.189174442615939
 20
2.624072977036473
 30
0.0625
  0
VERTEX
  5
10000244
  8
VISIBLE
 10
-0.1844846148572158
 20
2.592774815695904
 30
0.0625
  0
VERTEX
  5
10000245
  8
VISIBLE
 10
-0.1796073568068128
 20
2.582206719917681
 30
0.0625
  0
VERTEX
  5
10000246
  8
VISIBLE
 10
-0.1747300987564094
 20
2.592774815695905
 30
0.0625
  0
VERTEX
  5
10000247
  8
VISIBLE
 10
-0.1700402709976845
 20
2.624072977036473
 30
0.0625
  0
VERTEX
  5
10000248
  8
VISIBLE
 10
-0.1657181009813202
 20
2.674898433151281
 30
0.0625
  0
VERTEX
  5
10000249
  8
VISIBLE
 10
-0.1619296872771447
 20
2.743297990265081
 30
0.0625
  0
VERTEX
  5
1000024A
  8
VISIBLE
 10
-0.1588206164992425
 20
2.826643091756901
 30
0.0625
  0
VERTEX
  5
1000024B
  8
VISIBLE
 10
-0.1565103684940214
 20
2.921730832116883
 30
0.0625
  0
VERTEX
  5
1000024C
  8
VISIBLE
 10
-0.1550877247967199
 20
3.024907042808811
 30
0.0625
  0
VERTEX
  5
1000024D
  8
VISIBLE
 10
-0.1546073568067978
 20
3.132206719917681
 30
0.0625
  0
SEQEND
  5
10000319
  8
VISIBLE
  0
LINE
  5
F468C
  8
VISIBLE
 10
-0.2046073568067977
 20
3.132206719917682
 30
0.0625
 11
-1.004227041846185
 21
3.132206719917682
 31
0.0625
  0
LINE
  5
F468D
  8
VISIBLE
 10
-1.004227041846185
 20
3.132206719917682
 30
0.0625
 11
-1.004227041846185
 21
2.782206719917682
 31
0.0625
  0
LINE
  5
F468E
  8
VISIBLE
 10
-1.004227041846185
 20
2.782206719917682
 30
0.0625
 11
-0.879227041846185
 21
2.782206719917682
 31
0.0625
  0
LINE
  5
F468F
  8
VISIBLE
 10
-0.879227041846185
 20
2.782206719917682
 30
0.0625
 11
-0.8792270418461852
 21
2.582206719917681
 31
0.0625
  0
LINE
  5
F4690
  8
VISIBLE
 10
-0.8792270418461852
 20
2.582206719917681
 30
0.0625
 11
-0.6651879857018492
 21
2.582206719917681
 31
0.0625
  0
LINE
  5
F4691
  8
VISIBLE
 10
-0.6651879857018492
 20
2.663706719917682
 30
0.0625
 11
-0.6651879857018492
 21
2.582206719917681
 31
0.0625
  0
LINE
  5
F4692
  8
VISIBLE
 10
-0.6651879857018492
 20
2.663706719917682
 30
0.0625
 11
-0.5511044961895761
 21
2.663706719917682
 31
0.0625
  0
LINE
  5
F4693
  8
VISIBLE
 10
-0.5511044961895761
 20
2.663706719917682
 30
0.0625
 11
-0.5511044961895761
 21
2.582206719917681
 31
0.0625
  0
LINE
  5
F4694
  8
VISIBLE
 10
-0.5511044961895761
 20
2.582206719917681
 30
0.0625
 11
-0.4912270418461852
 21
2.582206719917681
 31
0.0625
  0
LINE
  5
F4695
  8
VISIBLE
 10
-0.4912270418461852
 20
2.582206719917681
 30
0.0625
 11
-0.4912270418461852
 21
2.432206719917681
 31
0.0625
  0
LINE
  5
F4696
  8
VISIBLE
 10
-0.5511044961895761
 20
2.432206719917681
 30
0.0625
 11
-0.4912270418461852
 21
2.432206719917681
 31
0.0625
  0
LINE
  5
F4697
  8
VISIBLE
 10
-0.5511044961895761
 20
2.432206719917681
 30
0.0625
 11
-0.5511044961895761
 21
2.350706719917683
 31
0.0625
  0
LINE
  5
F4698
  8
VISIBLE
 10
-0.6651879857018494
 20
2.350706719917683
 30
0.0625
 11
-0.5511044961895761
 21
2.350706719917683
 31
0.0625
  0
LINE
  5
F4699
  8
VISIBLE
 10
-0.6651879857018494
 20
2.432206719917681
 30
0.0625
 11
-0.6651879857018494
 21
2.350706719917683
 31
0.0625
  0
LINE
  5
F469A
  8
VISIBLE
 10
-0.8792270418461852
 20
2.432206719917681
 30
0.0625
 11
-0.6651879857018494
 21
2.432206719917681
 31
0.0625
  0
LINE
  5
F469B
  8
VISIBLE
 10
-0.8792270418461852
 20
2.432206719917681
 30
0.0625
 11
-0.8792270418461854
 21
2.232206719917682
 31
0.0625
  0
LINE
  5
F469C
  8
VISIBLE
 10
-1.004227041846185
 20
2.232206719917682
 30
0.0625
 11
-0.8792270418461854
 21
2.232206719917682
 31
0.0625
  0
LINE
  5
F469D
  8
VISIBLE
 10
-1.004227041846185
 20
2.232206719917682
 30
0.0625
 11
-1.004227041846186
 21
1.882206719917682
 31
0.0625
  0
LINE
  5
F469E
  8
VISIBLE
 10
-1.004227041846186
 20
1.882206719917682
 30
0.0625
 11
-0.2046073568067977
 21
1.882206719917682
 31
0.0625
  0
POLYLINE
  5
F469F
  8
VISIBLE
 66
     1
 10
0.0
 20
0.0
 30
0.0625
  0
VERTEX
  5
1000024E
  8
VISIBLE
 10
-0.1546073568067977
 20
1.882206719917682
 30
0.0625
  0
VERTEX
  5
1000024F
  8
VISIBLE
 10
-0.1550877247967198
 20
1.989506397026552
 30
0.0625
  0
VERTEX
  5
10000250
  8
VISIBLE
 10
-0.1565103684940213
 20
2.092682607718481
 30
0.0625
  0
VERTEX
  5
10000251
  8
VISIBLE
 10
-0.1588206164992424
 20
2.187770348078462
 30
0.0625
  0
VERTEX
  5
10000252
  8
VISIBLE
 10
-0.1619296872771447
 20
2.271115449570282
 30
0.0625
  0
VERTEX
  5
10000253
  8
VISIBLE
 10
-0.1657181009813202
 20
2.339515006684081
 30
0.0625
  0
VERTEX
  5
10000254
  8
VISIBLE
 10
-0.1700402709976844
 20
2.390340462798889
 30
0.0625
  0
VERTEX
  5
10000255
  8
VISIBLE
 10
-0.1747300987564093
 20
2.421638624139457
 30
0.0625
  0
VERTEX
  5
10000256
  8
VISIBLE
 10
-0.1796073568068128
 20
2.432206719917681
 30
0.0625
  0
VERTEX
  5
10000257
  8
VISIBLE
 10
-0.1844846148572157
 20
2.421638624139458
 30
0.0625
  0
VERTEX
  5
10000258
  8
VISIBLE
 10
-0.1891744426159389
 20
2.390340462798888
 30
0.0625
  0
VERTEX
  5
10000259
  8
VISIBLE
 10
-0.1934966126323003
 20
2.339515006684081
 30
0.0625
  0
VERTEX
  5
1000025A
  8
VISIBLE
 10
-0.197285026336472
 20
2.271115449570282
 30
0.0625
  0
VERTEX
  5
1000025B
  8
VISIBLE
 10
-0.2003940971143697
 20
2.187770348078463
 30
0.0625
  0
VERTEX
  5
1000025C
  8
VISIBLE
 10
-0.2027043451195856
 20
2.092682607718481
 30
0.0625
  0
VERTEX
  5
1000025D
  8
VISIBLE
 10
-0.2041269888168813
 20
1.989506397026553
 30
0.0625
  0
VERTEX
  5
1000025E
  8
VISIBLE
 10
-0.2046073568067976
 20
1.882206719917682
 30
0.0625
  0
SEQEND
  5
1000031A
  8
VISIBLE
  0
LINE
  5
F46A0
  8
VISIBLE
 10
-0.1546073568067977
 20
1.882206719917682
 30
0.0625
 11
-0.068622317436719
 21
1.882206719917682
 31
0.0625
  0
POLYLINE
  5
F46A1
  8
VISIBLE
 66
     1
 10
0.0
 20
0.0
 30
0.0625
  0
VERTEX
  5
1000025F
  8
VISIBLE
 10
-0.018622317436719
 20
1.882206719917682
 30
0.0625
  0
VERTEX
  5
10000260
  8
VISIBLE
 10
-0.0191026854266412
 20
1.989506397026553
 30
0.0625
  0
VERTEX
  5
10000261
  8
VISIBLE
 10
-0.0205253291239426
 20
2.092682607718481
 30
0.0625
  0
VERTEX
  5
10000262
  8
VISIBLE
 10
-0.0228355771291637
 20
2.187770348078462
 30
0.0625
  0
VERTEX
  5
10000263
  8
VISIBLE
 10
-0.025944647907066
 20
2.271115449570282
 30
0.0625
  0
VERTEX
  5
10000264
  8
VISIBLE
 10
-0.0297330616112415
 20
2.339515006684081
 30
0.0625
  0
VERTEX
  5
10000265
  8
VISIBLE
 10
-0.0340552316276057
 20
2.390340462798889
 30
0.0625
  0
VERTEX
  5
10000266
  8
VISIBLE
 10
-0.0387450593863306
 20
2.421638624139458
 30
0.0625
  0
VERTEX
  5
10000267
  8
VISIBLE
 10
-0.0436223174367341
 20
2.432206719917681
 30
0.0625
  0
VERTEX
  5
10000268
  8
VISIBLE
 10
-0.048499575487137
 20
2.421638624139458
 30
0.0625
  0
VERTEX
  5
10000269
  8
VISIBLE
 10
-0.0531894032458602
 20
2.390340462798888
 30
0.0625
  0
VERTEX
  5
1000026A
  8
VISIBLE
 10
-0.0575115732622216
 20
2.33951500668408
 30
0.0625
  0
VERTEX
  5
1000026B
  8
VISIBLE
 10
-0.0612999869663933
 20
2.271115449570282
 30
0.0625
  0
VERTEX
  5
1000026C
  8
VISIBLE
 10
-0.064409057744291
 20
2.187770348078462
 30
0.0625
  0
VERTEX
  5
1000026D
  8
VISIBLE
 10
-0.0667193057495069
 20
2.092682607718481
 30
0.0625
  0
VERTEX
  5
1000026E
  8
VISIBLE
 10
-0.0681419494468027
 20
1.989506397026552
 30
0.0625
  0
VERTEX
  5
1000026F
  8
VISIBLE
 10
-0.068622317436719
 20
1.882206719917682
 30
0.0625
  0
SEQEND
  5
1000031B
  8
VISIBLE
  0
LINE
  5
F46A2
  8
VISIBLE
 10
-0.018622317436719
 20
1.882206719917682
 30
0.0625
 11
0.0673627219333597
 21
1.882206719917682
 31
0.0625
  0
POLYLINE
  5
F46A3
  8
VISIBLE
 66
     1
 10
0.0
 20
0.0
 30
0.0625
  0
VERTEX
  5
10000270
  8
VISIBLE
 10
0.1173627219333597
 20
1.882206719917682
 30
0.0625
  0
VERTEX
  5
10000271
  8
VISIBLE
 10
0.1168823539434375
 20
1.989506397026553
 30
0.0625
  0
VERTEX
  5
10000272
  8
VISIBLE
 10
0.1154597102461361
 20
2.092682607718481
 30
0.0625
  0
VERTEX
  5
10000273
  8
VISIBLE
 10
0.1131494622409149
 20
2.187770348078462
 30
0.0625
  0
VERTEX
  5
10000274
  8
VISIBLE
 10
0.1100403914630127
 20
2.271115449570282
 30
0.0625
  0
VERTEX
  5
10000275
  8
VISIBLE
 10
0.1062519777588372
 20
2.339515006684081
 30
0.0625
  0
VERTEX
  5
10000276
  8
VISIBLE
 10
0.101929807742473
 20
2.390340462798889
 30
0.0625
  0
VERTEX
  5
10000277
  8
VISIBLE
 10
0.0972399799837481
 20
2.421638624139458
 30
0.0625
  0
VERTEX
  5
10000278
  8
VISIBLE
 10
0.0923627219333446
 20
2.432206719917681
 30
0.0625
  0
VERTEX
  5
10000279
  8
VISIBLE
 10
0.0874854638829417
 20
2.421638624139458
 30
0.0625
  0
VERTEX
  5
1000027A
  8
VISIBLE
 10
0.0827956361242185
 20
2.390340462798888
 30
0.0625
  0
VERTEX
  5
1000027B
  8
VISIBLE
 10
0.0784734661078571
 20
2.33951500668408
 30
0.0625
  0
VERTEX
  5
1000027C
  8
VISIBLE
 10
0.0746850524036854
 20
2.271115449570282
 30
0.0625
  0
VERTEX
  5
1000027D
  8
VISIBLE
 10
0.0715759816257877
 20
2.187770348078462
 30
0.0625
  0
VERTEX
  5
1000027E
  8
VISIBLE
 10
0.0692657336205718
 20
2.092682607718481
 30
0.0625
  0
VERTEX
  5
1000027F
  8
VISIBLE
 10
0.067843089923276
 20
1.989506397026552
 30
0.0625
  0
VERTEX
  5
10000280
  8
VISIBLE
 10
0.0673627219333597
 20
1.882206719917682
 30
0.0625
  0
SEQEND
  5
1000031C
  8
VISIBLE
  0
LINE
  5
F46A4
  8
VISIBLE
 10
0.1173627219333597
 20
1.882206719917682
 30
0.0625
 11
0.2033477613034384
 21
1.882206719917682
 31
0.0625
  0
POLYLINE
  5
F46A5
  8
VISIBLE
 66
     1
 10
0.0
 20
0.0
 30
0.0625
  0
VERTEX
  5
10000281
  8
VISIBLE
 10
0.2533477613034384
 20
1.882206719917682
 30
0.0625
  0
VERTEX
  5
10000282
  8
VISIBLE
 10
0.2528673933135163
 20
1.989506397026553
 30
0.0625
  0
VERTEX
  5
10000283
  8
VISIBLE
 10
0.2514447496162148
 20
2.092682607718481
 30
0.0625
  0
VERTEX
  5
10000284
  8
VISIBLE
 10
0.2491345016109937
 20
2.187770348078462
 30
0.0625
  0
VERTEX
  5
10000285
  8
VISIBLE
 10
0.2460254308330914
 20
2.271115449570282
 30
0.0625
  0
VERTEX
  5
10000286
  8
VISIBLE
 10
0.2422370171289159
 20
2.339515006684081
 30
0.0625
  0
VERTEX
  5
10000287
  8
VISIBLE
 10
0.2379148471125517
 20
2.390340462798889
 30
0.0625
  0
VERTEX
  5
10000288
  8
VISIBLE
 10
0.2332250193538268
 20
2.421638624139458
 30
0.0625
  0
VERTEX
  5
10000289
  8
VISIBLE
 10
0.2283477613034233
 20
2.432206719917681
 30
0.0625
  0
VERTEX
  5
1000028A
  8
VISIBLE
 10
0.2234705032530204
 20
2.421638624139458
 30
0.0625
  0
VERTEX
  5
1000028B
  8
VISIBLE
 10
0.2187806754942972
 20
2.390340462798888
 30
0.0625
  0
VERTEX
  5
1000028C
  8
VISIBLE
 10
0.2144585054779358
 20
2.33951500668408
 30
0.0625
  0
VERTEX
  5
1000028D
  8
VISIBLE
 10
0.2106700917737641
 20
2.271115449570282
 30
0.0625
  0
VERTEX
  5
1000028E
  8
VISIBLE
 10
0.2075610209958664
 20
2.187770348078462
 30
0.0625
  0
VERTEX
  5
1000028F
  8
VISIBLE
 10
0.2052507729906505
 20
2.092682607718481
 30
0.0625
  0
VERTEX
  5
10000290
  8
VISIBLE
 10
0.2038281292933547
 20
1.989506397026552
 30
0.0625
  0
VERTEX
  5
10000291
  8
VISIBLE
 10
0.2033477613034384
 20
1.882206719917682
 30
0.0625
  0
SEQEND
  5
1000031D
  8
VISIBLE
  0
LINE
  5
F46A6
  8
VISIBLE
 10
0.2533477613034384
 20
1.882206719917682
 30
0.0625
 11
0.339332800673517
 21
1.882206719917682
 31
0.0625
  0
POLYLINE
  5
F46A7
  8
VISIBLE
 66
     1
 10
0.0
 20
0.0
 30
0.0625
  0
VERTEX
  5
10000292
  8
VISIBLE
 10
0.3893328006735171
 20
1.882206719917682
 30
0.0625
  0
VERTEX
  5
10000293
  8
VISIBLE
 10
0.3888524326835949
 20
1.989506397026553
 30
0.0625
  0
VERTEX
  5
10000294
  8
VISIBLE
 10
0.3874297889862934
 20
2.092682607718481
 30
0.0625
  0
VERTEX
  5
10000295
  8
VISIBLE
 10
0.3851195409810723
 20
2.187770348078462
 30
0.0625
  0
VERTEX
  5
10000296
  8
VISIBLE
 10
0.38201047020317
 20
2.271115449570282
 30
0.0625
  0
VERTEX
  5
10000297
  8
VISIBLE
 10
0.3782220564989945
 20
2.339515006684081
 30
0.0625
  0
VERTEX
  5
10000298
  8
VISIBLE
 10
0.3738998864826303
 20
2.390340462798889
 30
0.0625
  0
VERTEX
  5
10000299
  8
VISIBLE
 10
0.3692100587239054
 20
2.421638624139458
 30
0.0625
  0
VERTEX
  5
1000029A
  8
VISIBLE
 10
0.3643328006735019
 20
2.432206719917681
 30
0.0625
  0
VERTEX
  5
1000029B
  8
VISIBLE
 10
0.359455542623099
 20
2.421638624139458
 30
0.0625
  0
VERTEX
  5
1000029C
  8
VISIBLE
 10
0.3547657148643758
 20
2.390340462798888
 30
0.0625
  0
VERTEX
  5
1000029D
  8
VISIBLE
 10
0.3504435448480144
 20
2.33951500668408
 30
0.0625
  0
VERTEX
  5
1000029E
  8
VISIBLE
 10
0.3466551311438427
 20
2.271115449570282
 30
0.0625
  0
VERTEX
  5
1000029F
  8
VISIBLE
 10
0.343546060365945
 20
2.187770348078462
 30
0.0625
  0
VERTEX
  5
100002A0
  8
VISIBLE
 10
0.3412358123607291
 20
2.092682607718481
 30
0.0625
  0
VERTEX
  5
100002A1
  8
VISIBLE
 10
0.3398131686634334
 20
1.989506397026552
 30
0.0625
  0
VERTEX
  5
100002A2
  8
VISIBLE
 10
0.339332800673517
 20
1.882206719917682
 30
0.0625
  0
SEQEND
  5
1000031E
  8
VISIBLE
  0
LINE
  5
F46A8
  8
VISIBLE
 10
0.3893328006735171
 20
1.882206719917682
 30
0.0625
 11
0.4753178400435958
 21
1.882206719917682
 31
0.0625
  0
POLYLINE
  5
F46A9
  8
VISIBLE
 66
     1
 10
0.0
 20
0.0
 30
0.0625
  0
VERTEX
  5
100002A3
  8
VISIBLE
 10
0.5253178400435957
 20
1.882206719917682
 30
0.0625
  0
VERTEX
  5
100002A4
  8
VISIBLE
 10
0.5248374720536735
 20
1.989506397026553
 30
0.0625
  0
VERTEX
  5
100002A5
  8
VISIBLE
 10
0.5234148283563721
 20
2.092682607718481
 30
0.0625
  0
VERTEX
  5
100002A6
  8
VISIBLE
 10
0.5211045803511509
 20
2.187770348078463
 30
0.0625
  0
VERTEX
  5
100002A7
  8
VISIBLE
 10
0.5179955095732487
 20
2.271115449570283
 30
0.0625
  0
VERTEX
  5
100002A8
  8
VISIBLE
 10
0.5142070958690732
 20
2.339515006684081
 30
0.0625
  0
VERTEX
  5
100002A9
  8
VISIBLE
 10
0.509884925852709
 20
2.390340462798889
 30
0.0625
  0
VERTEX
  5
100002AA
  8
VISIBLE
 10
0.505195098093984
 20
2.421638624139458
 30
0.0625
  0
VERTEX
  5
100002AB
  8
VISIBLE
 10
0.5003178400435806
 20
2.432206719917681
 30
0.0625
  0
VERTEX
  5
100002AC
  8
VISIBLE
 10
0.4954405819931776
 20
2.421638624139458
 30
0.0625
  0
VERTEX
  5
100002AD
  8
VISIBLE
 10
0.4907507542344545
 20
2.390340462798888
 30
0.0625
  0
VERTEX
  5
100002AE
  8
VISIBLE
 10
0.4864285842180931
 20
2.33951500668408
 30
0.0625
  0
VERTEX
  5
100002AF
  8
VISIBLE
 10
0.4826401705139214
 20
2.271115449570282
 30
0.0625
  0
VERTEX
  5
100002B0
  8
VISIBLE
 10
0.4795310997360236
 20
2.187770348078462
 30
0.0625
  0
VERTEX
  5
100002B1
  8
VISIBLE
 10
0.4772208517308077
 20
2.092682607718481
 30
0.0625
  0
VERTEX
  5
100002B2
  8
VISIBLE
 10
0.4757982080335119
 20
1.989506397026552
 30
0.0625
  0
VERTEX
  5
100002B3
  8
VISIBLE
 10
0.4753178400435957
 20
1.882206719917682
 30
0.0625
  0
SEQEND
  5
1000031F
  8
VISIBLE
  0
LINE
  5
F46AA
  8
VISIBLE
 10
0.5253178400435958
 20
1.882206719917682
 30
0.0625
 11
0.6113028794136743
 21
1.882206719917682
 31
0.0625
  0
POLYLINE
  5
F46AB
  8
VISIBLE
 66
     1
 10
0.0
 20
0.0
 30
0.0625
  0
VERTEX
  5
100002B4
  8
VISIBLE
 10
0.6613028794136744
 20
1.882206719917682
 30
0.0625
  0
VERTEX
  5
100002B5
  8
VISIBLE
 10
0.6608225114237521
 20
1.989506397026553
 30
0.0625
  0
VERTEX
  5
100002B6
  8
VISIBLE
 10
0.6593998677264508
 20
2.092682607718481
 30
0.0625
  0
VERTEX
  5
100002B7
  8
VISIBLE
 10
0.6570896197212296
 20
2.187770348078462
 30
0.0625
  0
VERTEX
  5
100002B8
  8
VISIBLE
 10
0.6539805489433274
 20
2.271115449570282
 30
0.0625
  0
VERTEX
  5
100002B9
  8
VISIBLE
 10
0.6501921352391519
 20
2.339515006684081
 30
0.0625
  0
VERTEX
  5
100002BA
  8
VISIBLE
 10
0.6458699652227876
 20
2.390340462798889
 30
0.0625
  0
VERTEX
  5
100002BB
  8
VISIBLE
 10
0.6411801374640627
 20
2.421638624139458
 30
0.0625
  0
VERTEX
  5
100002BC
  8
VISIBLE
 10
0.6363028794136593
 20
2.432206719917681
 30
0.0625
  0
VERTEX
  5
100002BD
  8
VISIBLE
 10
0.6314256213632563
 20
2.421638624139458
 30
0.0625
  0
VERTEX
  5
100002BE
  8
VISIBLE
 10
0.6267357936045331
 20
2.390340462798888
 30
0.0625
  0
VERTEX
  5
100002BF
  8
VISIBLE
 10
0.6224136235881718
 20
2.33951500668408
 30
0.0625
  0
VERTEX
  5
100002C0
  8
VISIBLE
 10
0.618625209884
 20
2.271115449570282
 30
0.0625
  0
VERTEX
  5
100002C1
  8
VISIBLE
 10
0.6155161391061024
 20
2.187770348078462
 30
0.0625
  0
VERTEX
  5
100002C2
  8
VISIBLE
 10
0.6132058911008864
 20
2.092682607718481
 30
0.0625
  0
VERTEX
  5
100002C3
  8
VISIBLE
 10
0.6117832474035906
 20
1.989506397026552
 30
0.0625
  0
VERTEX
  5
100002C4
  8
VISIBLE
 10
0.6113028794136743
 20
1.882206719917682
 30
0.0625
  0
SEQEND
  5
10000320
  8
VISIBLE
  0
LINE
  5
F46AC
  8
VISIBLE
 10
0.6613028794136744
 20
1.882206719917682
 30
0.0625
 11
0.747287918783753
 21
1.882206719917682
 31
0.0625
  0
POLYLINE
  5
F46AD
  8
VISIBLE
 66
     1
 10
0.0
 20
0.0
 30
0.0625
  0
VERTEX
  5
100002C5
  8
VISIBLE
 10
0.797287918783753
 20
1.882206719917682
 30
0.0625
  0
VERTEX
  5
100002C6
  8
VISIBLE
 10
0.7968075507938308
 20
1.989506397026553
 30
0.0625
  0
VERTEX
  5
100002C7
  8
VISIBLE
 10
0.7953849070965294
 20
2.092682607718481
 30
0.0625
  0
VERTEX
  5
100002C8
  8
VISIBLE
 10
0.7930746590913083
 20
2.187770348078462
 30
0.0625
  0
VERTEX
  5
100002C9
  8
VISIBLE
 10
0.789965588313406
 20
2.271115449570282
 30
0.0625
  0
VERTEX
  5
100002CA
  8
VISIBLE
 10
0.7861771746092305
 20
2.339515006684081
 30
0.0625
  0
VERTEX
  5
100002CB
  8
VISIBLE
 10
0.7818550045928663
 20
2.390340462798889
 30
0.0625
  0
VERTEX
  5
100002CC
  8
VISIBLE
 10
0.7771651768341413
 20
2.421638624139458
 30
0.0625
  0
VERTEX
  5
100002CD
  8
VISIBLE
 10
0.7722879187837379
 20
2.432206719917681
 30
0.0625
  0
VERTEX
  5
100002CE
  8
VISIBLE
 10
0.767410660733335
 20
2.421638624139458
 30
0.0625
  0
VERTEX
  5
100002CF
  8
VISIBLE
 10
0.7627208329746118
 20
2.390340462798888
 30
0.0625
  0
VERTEX
  5
100002D0
  8
VISIBLE
 10
0.7583986629582504
 20
2.33951500668408
 30
0.0625
  0
VERTEX
  5
100002D1
  8
VISIBLE
 10
0.7546102492540787
 20
2.271115449570282
 30
0.0625
  0
VERTEX
  5
100002D2
  8
VISIBLE
 10
0.7515011784761809
 20
2.187770348078462
 30
0.0625
  0
VERTEX
  5
100002D3
  8
VISIBLE
 10
0.7491909304709651
 20
2.092682607718481
 30
0.0625
  0
VERTEX
  5
100002D4
  8
VISIBLE
 10
0.7477682867736692
 20
1.989506397026552
 30
0.0625
  0
VERTEX
  5
100002D5
  8
VISIBLE
 10
0.747287918783753
 20
1.882206719917682
 30
0.0625
  0
SEQEND
  5
10000321
  8
VISIBLE
  0
LINE
  5
F46AE
  8
VISIBLE
 10
0.797287918783753
 20
1.882206719917682
 30
0.0625
 11
0.8832729581538317
 21
1.882206719917682
 31
0.0625
  0
POLYLINE
  5
F46AF
  8
VISIBLE
 66
     1
 10
0.0
 20
0.0
 30
0.0625
  0
VERTEX
  5
100002D6
  8
VISIBLE
 10
0.9332729581538317
 20
1.882206719917682
 30
0.0625
  0
VERTEX
  5
100002D7
  8
VISIBLE
 10
0.9327925901639095
 20
1.989506397026552
 30
0.0625
  0
VERTEX
  5
100002D8
  8
VISIBLE
 10
0.9313699464666081
 20
2.092682607718481
 30
0.0625
  0
VERTEX
  5
100002D9
  8
VISIBLE
 10
0.9290596984613869
 20
2.187770348078462
 30
0.0625
  0
VERTEX
  5
100002DA
  8
VISIBLE
 10
0.9259506276834847
 20
2.271115449570282
 30
0.0625
  0
VERTEX
  5
100002DB
  8
VISIBLE
 10
0.9221622139793092
 20
2.339515006684081
 30
0.0625
  0
VERTEX
  5
100002DC
  8
VISIBLE
 10
0.9178400439629449
 20
2.390340462798889
 30
0.0625
  0
VERTEX
  5
100002DD
  8
VISIBLE
 10
0.91315021620422
 20
2.421638624139457
 30
0.0625
  0
VERTEX
  5
100002DE
  8
VISIBLE
 10
0.9082729581538166
 20
2.432206719917681
 30
0.0625
  0
VERTEX
  5
100002DF
  8
VISIBLE
 10
0.9033957001034136
 20
2.421638624139458
 30
0.0625
  0
VERTEX
  5
100002E0
  8
VISIBLE
 10
0.8987058723446905
 20
2.390340462798888
 30
0.0625
  0
VERTEX
  5
100002E1
  8
VISIBLE
 10
0.8943837023283291
 20
2.339515006684081
 30
0.0625
  0
VERTEX
  5
100002E2
  8
VISIBLE
 10
0.8905952886241574
 20
2.271115449570282
 30
0.0625
  0
VERTEX
  5
100002E3
  8
VISIBLE
 10
0.8874862178462597
 20
2.187770348078463
 30
0.0625
  0
VERTEX
  5
100002E4
  8
VISIBLE
 10
0.8851759698410437
 20
2.092682607718481
 30
0.0625
  0
VERTEX
  5
100002E5
  8
VISIBLE
 10
0.8837533261437479
 20
1.989506397026553
 30
0.0625
  0
VERTEX
  5
100002E6
  8
VISIBLE
 10
0.8832729581538317
 20
1.882206719917682
 30
0.0625
  0
SEQEND
  5
10000322
  8
VISIBLE
  0
LINE
  5
F46B0
  8
VISIBLE
 10
0.9332729581538317
 20
1.882206719917682
 30
0.0625
 11
1.120772958153815
 21
1.88220671991768
 31
0.0625
  0
LINE
  5
F46B1
  8
VISIBLE
 10
1.120772958153815
 20
1.88220671991768
 30
0.0625
 11
1.120772958153815
 21
3.132206719917681
 31
0.0625
  0
LINE
  5
F46B2
  8
VISIBLE
 10
1.120772958153815
 20
3.132206719917681
 30
0.0625
 11
0.9332729581538317
 21
3.132206719917682
 31
0.0625
  0
POLYLINE
  5
F46B3
  8
VISIBLE
 66
     1
 10
0.0
 20
0.0
 30
0.0625
 70
     1
  0
VERTEX
  5
100002E7
  8
VISIBLE
 10
0.9707729581538153
 20
3.007206719917682
 30
0.0625
  0
VERTEX
  5
100002E8
  8
VISIBLE
 10
0.9658957001034121
 20
2.997599360119297
 30
0.0625
  0
VERTEX
  5
100002E9
  8
VISIBLE
 10
0.9612058723446881
 20
2.969146486173325
 30
0.0625
  0
VERTEX
  5
100002EA
  8
VISIBLE
 10
0.9568837023283254
 20
2.922941526068954
 30
0.0625
  0
VERTEX
  5
100002EB
  8
VISIBLE
 10
0.9530952886241519
 20
2.860760110510955
 30
0.0625
  0
VERTEX
  5
100002EC
  8
VISIBLE
 10
0.9499862178462521
 20
2.784991836427483
 30
0.0625
  0
VERTEX
  5
100002ED
  8
VISIBLE
 10
0.9476759698410339
 20
2.698548436100226
 30
0.0625
  0
VERTEX
  5
100002EE
  8
VISIBLE
 10
0.9462533261437355
 20
2.604751880925745
 30
0.0625
  0
VERTEX
  5
100002EF
  8
VISIBLE
 10
0.9457729581538165
 20
2.507206719917682
 30
0.0625
  0
VERTEX
  5
100002F0
  8
VISIBLE
 10
0.9462533261437359
 20
2.409661558909618
 30
0.0625
  0
VERTEX
  5
100002F1
  8
VISIBLE
 10
0.9476759698410347
 20
2.315865003735137
 30
0.0625
  0
VERTEX
  5
100002F2
  8
VISIBLE
 10
0.9499862178462535
 20
2.22942160340788
 30
0.0625
  0
VERTEX
  5
100002F3
  8
VISIBLE
 10
0.9530952886241537
 20
2.153653329324408
 30
0.0625
  0
VERTEX
  5
100002F4
  8
VISIBLE
 10
0.9568837023283274
 20
2.091471913766409
 30
0.0625
  0
VERTEX
  5
100002F5
  8
VISIBLE
 10
0.9612058723446903
 20
2.045266953662038
 30
0.0625
  0
VERTEX
  5
100002F6
  8
VISIBLE
 10
0.9658957001034145
 20
2.016814079716066
 30
0.0625
  0
VERTEX
  5
100002F7
  8
VISIBLE
 10
0.9707729581538177
 20
2.007206719917682
 30
0.0625
  0
VERTEX
  5
100002F8
  8
VISIBLE
 10
0.9756502162042209
 20
2.016814079716066
 30
0.0625
  0
VERTEX
  5
100002F9
  8
VISIBLE
 10
0.9803400439629448
 20
2.045266953662038
 30
0.0625
  0
VERTEX
  5
100002FA
  8
VISIBLE
 10
0.9846622139793075
 20
2.091471913766409
 30
0.0625
  0
VERTEX
  5
100002FB
  8
VISIBLE
 10
0.9884506276834811
 20
2.153653329324408
 30
0.0625
  0
VERTEX
  5
100002FC
  8
VISIBLE
 10
0.9915596984613808
 20
2.229421603407881
 30
0.0625
  0
VERTEX
  5
100002FD
  8
VISIBLE
 10
0.9938699464665991
 20
2.315865003735138
 30
0.0625
  0
VERTEX
  5
100002FE
  8
VISIBLE
 10
0.9952925901638975
 20
2.409661558909618
 30
0.0625
  0
VERTEX
  5
100002FF
  8
VISIBLE
 10
0.9957729581538165
 20
2.507206719917683
 30
0.0625
  0
VERTEX
  5
10000300
  8
VISIBLE
 10
0.995292590163897
 20
2.604751880925747
 30
0.0625
  0
VERTEX
  5
10000301
  8
VISIBLE
 10
0.9938699464665982
 20
2.698548436100228
 30
0.0625
  0
VERTEX
  5
10000302
  8
VISIBLE
 10
0.9915596984613794
 20
2.784991836427484
 30
0.0625
  0
VERTEX
  5
10000303
  8
VISIBLE
 10
0.9884506276834792
 20
2.860760110510956
 30
0.0625
  0
VERTEX
  5
10000304
  8
VISIBLE
 10
0.9846622139793054
 20
2.922941526068955
 30
0.0625
  0
VERTEX
  5
10000305
  8
VISIBLE
 10
0.9803400439629425
 20
2.969146486173326
 30
0.0625
  0
VERTEX
  5
10000306
  8
VISIBLE
 10
0.9756502162042183
 20
2.997599360119297
 30
0.0625
  0
SEQEND
  5
10000323
  8
VISIBLE
  0
ENDSEC
  0
EOF
