  0
SECTION
  2
HEADER
  9
$ACADVER
  1
AC1009
  9
$DWGCODEPAGE
  3
undefined
  9
$INSBASE
 10
0.0
 20
0.0
 30
0.0
  9
$EXTMIN
 10
1.000000000000000E+20
 20
1.000000000000000E+20
 30
1.000000000000000E+20
  9
$EXTMAX
 10
-1.000000000000000E+20
 20
-1.000000000000000E+20
 30
-1.000000000000000E+20
  9
$LIMMIN
 10
0.0
 20
0.0
  9
$LIMMAX
 10
12.0
 20
9.0
  9
$ORTHOMODE
 70
     0
  9
$REGENMODE
 70
     1
  9
$FILLMODE
 70
     1
  9
$QTEXTMODE
 70
     0
  9
$MIRRTEXT
 70
     1
  9
$DRAGMODE
 70
     2
  9
$LTSCALE
 40
1.0
  9
$OSMODE
 70
    37
  9
$ATTMODE
 70
     1
  9
$TEXTSIZE
 40
0.2
  9
$TRACEWID
 40
0.05
  9
$TEXTSTYLE
  7
STANDARD
  9
$CLAYER
  8
0
  9
$CELTYPE
  6
BYLAYER
  9
$CECOLOR
 62
   256
  9
$DIMSCALE
 40
1.0
  9
$DIMASZ
 40
0.18
  9
$DIMEXO
 40
0.0625
  9
$DIMDLI
 40
0.38
  9
$DIMRND
 40
0.0
  9
$DIMDLE
 40
0.0
  9
$DIMEXE
 40
0.18
  9
$DIMTP
 40
0.0
  9
$DIMTM
 40
0.0
  9
$DIMTXT
 40
0.18
  9
$DIMCEN
 40
0.09
  9
$DIMTSZ
 40
0.0
  9
$DIMTOL
 70
     0
  9
$DIMLIM
 70
     0
  9
$DIMTIH
 70
     1
  9
$DIMTOH
 70
     1
  9
$DIMSE1
 70
     0
  9
$DIMSE2
 70
     0
  9
$DIMTAD
 70
     0
  9
$DIMZIN
 70
     0
  9
$DIMBLK
  1

  9
$DIMASO
 70
     1
  9
$DIMSHO
 70
     1
  9
$DIMPOST
  1

  9
$DIMAPOST
  1

  9
$DIMALT
 70
     0
  9
$DIMALTD
 70
     2
  9
$DIMALTF
 40
25.4
  9
$DIMLFAC
 40
1.0
  9
$DIMTOFL
 70
     0
  9
$DIMTVP
 40
0.0
  9
$DIMTIX
 70
     0
  9
$DIMSOXD
 70
     0
  9
$DIMSAH
 70
     0
  9
$DIMBLK1
  1

  9
$DIMBLK2
  1

  9
$DIMSTYLE
  2
STANDARD
  9
$DIMCLRD
 70
     0
  9
$DIMCLRE
 70
     0
  9
$DIMCLRT
 70
     0
  9
$DIMTFAC
 40
1.0
  9
$DIMGAP
 40
0.09
  9
$LUNITS
 70
     2
  9
$LUPREC
 70
     4
  9
$SKETCHINC
 40
0.1
  9
$FILLETRAD
 40
0.5
  9
$AUNITS
 70
     0
  9
$AUPREC
 70
     0
  9
$MENU
  1
.
  9
$ELEVATION
 40
0.0
  9
$PELEVATION
 40
0.0
  9
$THICKNESS
 40
0.0
  9
$LIMCHECK
 70
     0
  9
$CHAMFERA
 40
0.0
  9
$CHAMFERB
 40
0.0
  9
$SKPOLY
 70
     0
  9
$TDCREATE
 40
2457185.174375
  9
$TDUPDATE
 40
2457185.174375
  9
$TDINDWG
 40
0.0000000116
  9
$TDUSRTIMER
 40
0.0000000116
  9
$USRTIMER
 70
     1
  9
$ANGBASE
 50
0.0
  9
$ANGDIR
 70
     0
  9
$PDMODE
 70
     0
  9
$PDSIZE
 40
0.0
  9
$PLINEWID
 40
0.0
  9
$COORDS
 70
     1
  9
$SPLFRAME
 70
     0
  9
$SPLINETYPE
 70
     6
  9
$SPLINESEGS
 70
     8
  9
$ATTDIA
 70
     0
  9
$ATTREQ
 70
     1
  9
$HANDLING
 70
     1
  9
$HANDSEED
  5
10000199
  9
$SURFTAB1
 70
     6
  9
$SURFTAB2
 70
     6
  9
$SURFTYPE
 70
     6
  9
$SURFU
 70
     6
  9
$SURFV
 70
     6
  9
$UCSNAME
  2

  9
$UCSORG
 10
0.0
 20
0.0
 30
0.0
  9
$UCSXDIR
 10
1.0
 20
0.0
 30
0.0
  9
$UCSYDIR
 10
0.0
 20
1.0
 30
0.0
  9
$PUCSNAME
  2

  9
$PUCSORG
 10
0.0
 20
0.0
 30
0.0
  9
$PUCSXDIR
 10
1.0
 20
0.0
 30
0.0
  9
$PUCSYDIR
 10
0.0
 20
1.0
 30
0.0
  9
$USERI1
 70
     0
  9
$USERI2
 70
     0
  9
$USERI3
 70
     0
  9
$USERI4
 70
     0
  9
$USERI5
 70
     0
  9
$USERR1
 40
0.0
  9
$USERR2
 40
0.0
  9
$USERR3
 40
0.0
  9
$USERR4
 40
0.0
  9
$USERR5
 40
0.0
  9
$WORLDVIEW
 70
     1
  9
$SHADEDGE
 70
     3
  9
$SHADEDIF
 70
    70
  9
$TILEMODE
 70
     1
  9
$MAXACTVP
 70
    64
  9
$PLIMCHECK
 70
     0
  9
$PEXTMIN
 10
1.000000000000000E+20
 20
1.000000000000000E+20
 30
1.000000000000000E+20
  9
$PEXTMAX
 10
-1.000000000000000E+20
 20
-1.000000000000000E+20
 30
-1.000000000000000E+20
  9
$PLIMMIN
 10
0.0
 20
0.0
  9
$PLIMMAX
 10
12.0
 20
9.0
  9
$UNITMODE
 70
     0
  9
$VISRETAIN
 70
     1
  9
$PLINEGEN
 70
     0
  9
$PSLTSCALE
 70
     1
  0
ENDSEC
  0
SECTION
  2
TABLES
  0
TABLE
  2
VPORT
 70
     1
  0
VPORT
  2
*ACTIVE
 70
     0
 10
0.0
 20
0.0
 11
1.0
 21
1.0
 12
10.42990654205607
 22
4.5
 13
0.0
 23
0.0
 14
0.5
 24
0.5
 15
0.5
 25
0.5
 16
0.0
 26
0.0
 36
1.0
 17
0.0
 27
0.0
 37
0.0
 40
9.0
 41
1.972972972850329
 42
50.0
 43
0.0
 44
0.0
 50
0.0
 51
0.0
 71
     0
 72
   100
 73
     1
 74
     3
 75
     0
 76
     0
 77
     0
 78
     0
  0
ENDTAB
  0
TABLE
  2
LTYPE
 70
     5
  0
LTYPE
  2
CONTINUOUS
 70
     0
  3
Solid line
 72
    65
 73
     0
 40
0.0
  0
LTYPE
  2
HIDDEN
 70
     0
  3
Hidden line ____ ____ ____ ____ 
 72
    83
 73
     2
 40
0.125
 49
0.25
 49
-0.125
  0
LTYPE
  2
PHANTOM
 70
     0
  3
Phantom line ______  __  __  ______  __  __
 72
    83
 73
     6
 40
0.5
 49
0.625
 49
-0.125
 49
0.125
 49
-0.125
 49
0.125
 49
-0.125
  0
LTYPE
  2
CENTER
 70
     0
  3
Center line ____ _ ____ _ ____ _
 72
    83
 73
     4
 40
0.5
 49
0.625
 49
-0.125
 49
0.125
 49
-0.125
  0
LTYPE
  2
DASHED
 70
     0
  3
Dashed line __ __ __ __
 72
    83
 73
     2
 40
0.25
 49
0.5
 49
-0.25
  0
ENDTAB
  0
TABLE
  2
LAYER
 70
     5
  0
LAYER
  2
0
 70
     0
 62
     7
  6
CONTINUOUS
  0
LAYER
  2
HIDDEN
 70
     0
 62
    -7
  6
HIDDEN
  0
LAYER
  2
VISIBLE
 70
     0
 62
     7
  6
CONTINUOUS
  0
LAYER
  2
TANGENT_LINES
 70
     0
 62
     7
  6
CONTINUOUS
  0
LAYER
  2
INVISIBLE_LINES
 70
     0
 62
    -7
  6
CONTINUOUS
  0
ENDTAB
  0
TABLE
  2
STYLE
 70
     2
  0
STYLE
  2
STANDARD
 70
     0
 40
0.0
 41
1.0
 50
0.0
 71
     0
 42
0.2
  3
txt
  4

  0
STYLE
  2
ODATTFSTYLE
 70
     0
 40
0.0
 41
1.0
 50
0.0
 71
     0
 42
0.2
  3
Verdana.ttf
  4

  0
ENDTAB
  0
TABLE
  2
VIEW
 70
     0
  0
ENDTAB
  0
TABLE
  2
UCS
 70
     0
  0
ENDTAB
  0
TABLE
  2
APPID
 70
     1
  0
APPID
  2
ACAD
 70
     0
  0
ENDTAB
  0
TABLE
  2
DIMSTYLE
 70
     1
  0
DIMSTYLE
  2
STANDARD
 70
     0
  3

  4

  5

  6

  7

 40
1.0
 41
0.18
 42
0.0625
 43
0.38
 44
0.18
 45
0.0
 46
0.0
 47
0.0
 48
0.0
140
0.18
141
0.09
142
0.0
143
25.4
144
1.0
145
0.0
146
1.0
147
0.09
 71
     0
 72
     0
 73
     1
 74
     1
 75
     0
 76
     0
 77
     0
 78
     0
170
     0
171
     2
172
     0
173
     0
174
     0
175
     0
176
     0
177
     0
178
     0
  0
ENDTAB
  0
ENDSEC
  0
SECTION
  2
BLOCKS
  0
BLOCK
  8
0
  2
$MODEL_SPACE
 70
     0
 10
0.0
 20
0.0
 30
0.0
  3
$MODEL_SPACE
  1

  0
ENDBLK
  5
21
  8
0
  0
BLOCK
 67
     1
  8
0
  2
$PAPER_SPACE
 70
     0
 10
0.0
 20
0.0
 30
0.0
  3
$PAPER_SPACE
  1

  0
ENDBLK
  5
1D
 67
     1
  8
0
  0
ENDSEC
  0
SECTION
  2
ENTITIES
  0
LINE
  5
F4D6A
  8
VISIBLE
 10
-3.25
 20
0.5000000000000001
 30
0.125
 11
-3.25
 21
-0.5000000000000001
 31
0.125
  0
LINE
  5
F4D6B
  8
VISIBLE
 10
-3.125000000000001
 20
0.5000000000000001
 30
0.125
 11
-3.25
 21
0.5000000000000001
 31
0.125
  0
LINE
  5
F4D6C
  8
VISIBLE
 10
-3.125000000000001
 20
0.5000000000000001
 30
0.125
 11
-3.125000000000001
 21
-0.5000000000000001
 31
0.125
  0
LINE
  5
F4D6D
  8
VISIBLE
 10
-3.125000000000001
 20
-0.5000000000000001
 30
0.125
 11
-3.25
 21
-0.5000000000000001
 31
0.125
  0
LINE
  5
F4D6E
  8
VISIBLE
 10
-4.150000000000001
 20
-0.7500000000000029
 30
0.125
 11
-4.08166632639171
 21
-0.7500000000000029
 31
0.125
  0
ARC
  5
F4D6F
  8
VISIBLE
 10
0.0
 20
0.0
 30
0.125
 40
4.150000000000001
 50
190.4118690164701
 51
214.5881309835299
  0
LINE
  5
F4D70
  8
TANGENT_LINES
 10
-3.464823227814084
 20
-2.404163056034262
 30
0.125
 11
-3.416504023822274
 21
-2.355843852042453
 31
0.125
  0
LINE
  5
F4D71
  8
VISIBLE
 10
-3.464823227814084
 20
-2.404163056034262
 30
0.125
 11
-3.199658184869128
 21
-2.669328098979218
 31
0.125
  0
LINE
  5
F4D72
  8
VISIBLE
 10
-3.199658184869128
 20
-2.669328098979218
 30
0.125
 11
-3.288046532517447
 21
-2.757716446627537
 31
0.125
  0
LINE
  5
F4D73
  8
VISIBLE
 10
-3.288046532517447
 20
-2.757716446627537
 30
0.125
 11
-3.051385875199969
 21
-2.994377103945014
 31
0.125
  0
ARC
  5
F4D74
  8
VISIBLE
 10
-2.983283509826044
 20
-2.983283509826046
 30
0.125
 40
0.069
 50
260.7480169402422
 51
189.2519830597586
  0
LINE
  5
F4D75
  8
VISIBLE
 10
-2.994377103945011
 20
-3.051385875199972
 30
0.125
 11
-2.757716446627537
 21
-3.288046532517447
 31
0.125
  0
LINE
  5
F4D76
  8
VISIBLE
 10
-2.757716446627537
 20
-3.288046532517447
 30
0.125
 11
-2.669328098979218
 21
-3.199658184869128
 31
0.125
  0
LINE
  5
F4D77
  8
VISIBLE
 10
-2.669328098979218
 20
-3.199658184869128
 30
0.125
 11
-2.40416305603426
 21
-3.464823227814085
 31
0.125
  0
LINE
  5
F4D78
  8
VISIBLE
 10
-2.40416305603426
 20
-3.464823227814085
 30
0.125
 11
-2.355843852042451
 21
-3.416504023822275
 31
0.125
  0
ARC
  5
F4D79
  8
VISIBLE
 10
0.0
 20
0.0
 30
0.125
 40
4.150000000000001
 50
235.4118690164701
 51
259.5881309835299
  0
LINE
  5
F4D7A
  8
VISIBLE
 10
-0.7500000000000004
 20
-4.150000000000001
 30
0.125
 11
-0.7500000000000002
 21
-4.081666326391711
 31
0.125
  0
LINE
  5
F4D7B
  8
VISIBLE
 10
-0.7500000000000004
 20
-4.150000000000001
 30
0.125
 11
-0.3750000000000005
 21
-4.150000000000001
 31
0.125
  0
LINE
  5
F4D7C
  8
VISIBLE
 10
-0.3750000000000005
 20
-4.150000000000001
 30
0.125
 11
-0.3750000000000004
 21
-4.275000000000002
 31
0.125
  0
LINE
  5
F4D7D
  8
VISIBLE
 10
-0.3750000000000004
 20
-4.275000000000002
 30
0.125
 11
-0.0403112887414911
 21
-4.275000000000002
 31
0.125
  0
ARC
  5
F4D7E
  8
VISIBLE
 10
0.0000000000000014
 20
-4.219000000000001
 30
0.125
 40
0.069
 50
305.7480169402403
 51
234.2519830597598
  0
LINE
  5
F4D7F
  8
VISIBLE
 10
0.040311288741494
 20
-4.275000000000002
 30
0.125
 11
0.3749999999999997
 21
-4.275000000000001
 31
0.125
  0
LINE
  5
F4D80
  8
VISIBLE
 10
0.3749999999999997
 20
-4.275000000000001
 30
0.125
 11
0.3749999999999997
 21
-4.150000000000001
 31
0.125
  0
LINE
  5
F4D81
  8
VISIBLE
 10
0.3749999999999997
 20
-4.150000000000001
 30
0.125
 11
0.7500000000000027
 21
-4.150000000000001
 31
0.125
  0
LINE
  5
F4D82
  8
VISIBLE
 10
0.7500000000000027
 20
-4.150000000000001
 30
0.125
 11
0.7500000000000027
 21
-4.08166632639171
 31
0.125
  0
ARC
  5
F4D83
  8
VISIBLE
 10
0.0
 20
0.0
 30
0.125
 40
4.150000000000001
 50
280.4118690164701
 51
304.5881309835299
  0
LINE
  5
F4D84
  8
VISIBLE
 10
2.404163056034263
 20
-3.464823227814084
 30
0.125
 11
2.355843852042454
 21
-3.416504023822273
 31
0.125
  0
LINE
  5
F4D85
  8
VISIBLE
 10
2.404163056034263
 20
-3.464823227814084
 30
0.125
 11
2.669328098979218
 21
-3.199658184869128
 31
0.125
  0
LINE
  5
F4D86
  8
VISIBLE
 10
2.669328098979218
 20
-3.199658184869128
 30
0.125
 11
2.757716446627537
 21
-3.288046532517447
 31
0.125
  0
LINE
  5
F4D87
  8
VISIBLE
 10
2.757716446627537
 20
-3.288046532517447
 30
0.125
 11
2.994377103945015
 21
-3.051385875199969
 31
0.125
  0
ARC
  5
F4D88
  8
VISIBLE
 10
2.983283509826047
 20
-2.983283509826044
 30
0.125
 40
0.069
 50
350.748016940241
 51
279.251983059759
  0
LINE
  5
F4D89
  8
VISIBLE
 10
3.051385875199972
 20
-2.994377103945012
 30
0.125
 11
3.288046532517447
 21
-2.757716446627536
 31
0.125
  0
LINE
  5
F4D8A
  8
VISIBLE
 10
3.288046532517447
 20
-2.757716446627536
 30
0.125
 11
3.199658184869129
 21
-2.669328098979217
 31
0.125
  0
LINE
  5
F4D8B
  8
VISIBLE
 10
3.199658184869129
 20
-2.669328098979217
 30
0.125
 11
3.464823227814084
 21
-2.404163056034262
 31
0.125
  0
LINE
  5
F4D8C
  8
VISIBLE
 10
3.464823227814084
 20
-2.404163056034262
 30
0.125
 11
3.416504023822273
 21
-2.355843852042455
 31
0.125
  0
ARC
  5
F4D8D
  8
VISIBLE
 10
0.0
 20
0.0
 30
0.125
 40
4.150000000000001
 50
325.4118690164701
 51
349.5881309835299
  0
LINE
  5
F4D8E
  8
VISIBLE
 10
4.150000000000001
 20
-0.7499999999999997
 30
0.125
 11
4.081666326391711
 21
-0.7499999999999997
 31
0.125
  0
LINE
  5
F4D8F
  8
VISIBLE
 10
4.150000000000001
 20
-0.7499999999999997
 30
0.125
 11
4.150000000000001
 21
-0.3749999999999997
 31
0.125
  0
LINE
  5
F4D90
  8
VISIBLE
 10
4.150000000000001
 20
-0.3749999999999997
 30
0.125
 11
4.275000000000002
 21
-0.3749999999999996
 31
0.125
  0
LINE
  5
F4D91
  8
VISIBLE
 10
4.275000000000002
 20
-0.3749999999999996
 30
0.125
 11
4.275000000000002
 21
-0.0403112887414906
 31
0.125
  0
ARC
  5
F4D92
  8
VISIBLE
 10
4.219000000000001
 20
0.0000000000000019
 30
0.125
 40
0.069
 50
35.74801694024031
 51
324.2519830597597
  0
LINE
  5
F4D93
  8
VISIBLE
 10
4.275000000000002
 20
0.0403112887414945
 30
0.125
 11
4.275000000000001
 21
0.3750000000000002
 31
0.125
  0
LINE
  5
F4D94
  8
VISIBLE
 10
4.275000000000001
 20
0.3750000000000002
 30
0.125
 11
4.150000000000001
 21
0.3750000000000002
 31
0.125
  0
LINE
  5
F4D95
  8
VISIBLE
 10
4.150000000000001
 20
0.3750000000000002
 30
0.125
 11
4.150000000000001
 21
0.7500000000000032
 31
0.125
  0
LINE
  5
F4D96
  8
VISIBLE
 10
4.150000000000001
 20
0.7500000000000032
 30
0.125
 11
4.08166632639171
 21
0.7500000000000032
 31
0.125
  0
ARC
  5
F4D97
  8
VISIBLE
 10
0.0
 20
0.0
 30
0.125
 40
4.150000000000001
 50
10.41186901647013
 51
34.58813098352991
  0
LINE
  5
F4D98
  8
VISIBLE
 10
3.464823227814084
 20
2.404163056034263
 30
0.125
 11
3.416504023822273
 21
2.355843852042453
 31
0.125
  0
LINE
  5
F4D99
  8
VISIBLE
 10
3.464823227814084
 20
2.404163056034263
 30
0.125
 11
3.199658184869128
 21
2.669328098979218
 31
0.125
  0
LINE
  5
F4D9A
  8
VISIBLE
 10
3.199658184869128
 20
2.669328098979218
 30
0.125
 11
3.288046532517447
 21
2.757716446627537
 31
0.125
  0
LINE
  5
F4D9B
  8
VISIBLE
 10
3.288046532517447
 20
2.757716446627537
 30
0.125
 11
3.051385875199969
 21
2.994377103945015
 31
0.125
  0
ARC
  5
F4D9C
  8
VISIBLE
 10
2.983283509826044
 20
2.983283509826047
 30
0.125
 40
0.069
 50
80.74801694024109
 51
9.25198305975938
  0
LINE
  5
F4D9D
  8
VISIBLE
 10
2.994377103945012
 20
3.051385875199972
 30
0.125
 11
2.757716446627536
 21
3.288046532517447
 31
0.125
  0
LINE
  5
F4D9E
  8
VISIBLE
 10
2.757716446627536
 20
3.288046532517447
 30
0.125
 11
2.669328098979218
 21
3.199658184869128
 31
0.125
  0
LINE
  5
F4D9F
  8
VISIBLE
 10
2.669328098979218
 20
3.199658184869128
 30
0.125
 11
2.40416305603426
 21
3.464823227814086
 31
0.125
  0
LINE
  5
F4DA0
  8
VISIBLE
 10
2.40416305603426
 20
3.464823227814086
 30
0.125
 11
2.35584385204245
 21
3.416504023822275
 31
0.125
  0
ARC
  5
F4DA1
  8
VISIBLE
 10
0.0
 20
0.0
 30
0.125
 40
4.150000000000001
 50
55.41186901647013
 51
79.58813098352992
  0
LINE
  5
F4DA2
  8
VISIBLE
 10
0.7499999999999997
 20
4.150000000000001
 30
0.125
 11
0.7499999999999997
 21
4.081666326391711
 31
0.125
  0
LINE
  5
F4DA3
  8
VISIBLE
 10
0.7499999999999997
 20
4.150000000000001
 30
0.125
 11
0.3749999999999997
 21
4.150000000000001
 31
0.125
  0
LINE
  5
F4DA4
  8
VISIBLE
 10
0.3749999999999997
 20
4.150000000000001
 30
0.125
 11
0.3749999999999996
 21
4.275000000000002
 31
0.125
  0
LINE
  5
F4DA5
  8
VISIBLE
 10
0.3749999999999996
 20
4.275000000000002
 30
0.125
 11
0.0403112887414905
 21
4.275000000000002
 31
0.125
  0
ARC
  5
F4DA6
  8
VISIBLE
 10
-0.0000000000000019
 20
4.219000000000001
 30
0.125
 40
0.069
 50
125.7480169402403
 51
54.25198305975979
  0
LINE
  5
F4DA7
  8
VISIBLE
 10
-0.0403112887414945
 20
4.275000000000002
 30
0.125
 11
-0.3750000000000002
 21
4.275000000000001
 31
0.125
  0
LINE
  5
F4DA8
  8
VISIBLE
 10
-0.3750000000000002
 20
4.275000000000001
 30
0.125
 11
-0.3750000000000002
 21
4.150000000000001
 31
0.125
  0
LINE
  5
F4DA9
  8
VISIBLE
 10
-0.3750000000000002
 20
4.150000000000001
 30
0.125
 11
-0.7500000000000032
 21
4.150000000000001
 31
0.125
  0
LINE
  5
F4DAA
  8
VISIBLE
 10
-0.7500000000000032
 20
4.150000000000001
 30
0.125
 11
-0.7500000000000032
 21
4.08166632639171
 31
0.125
  0
ARC
  5
F4DAB
  8
VISIBLE
 10
0.0
 20
0.0
 30
0.125
 40
4.150000000000001
 50
100.4118690164701
 51
124.5881309835299
  0
LINE
  5
F4DAC
  8
VISIBLE
 10
-2.404163056034262
 20
3.464823227814084
 30
0.125
 11
-2.355843852042453
 21
3.416504023822274
 31
0.125
  0
LINE
  5
F4DAD
  8
VISIBLE
 10
-2.404163056034262
 20
3.464823227814084
 30
0.125
 11
-2.669328098979218
 21
3.199658184869128
 31
0.125
  0
LINE
  5
F4DAE
  8
VISIBLE
 10
-2.669328098979218
 20
3.199658184869128
 30
0.125
 11
-2.757716446627537
 21
3.288046532517447
 31
0.125
  0
LINE
  5
F4DAF
  8
VISIBLE
 10
-2.757716446627537
 20
3.288046532517447
 30
0.125
 11
-2.994377103945014
 21
3.051385875199969
 31
0.125
  0
ARC
  5
F4DB0
  8
VISIBLE
 10
-2.983283509826046
 20
2.983283509826044
 30
0.125
 40
0.069
 50
170.7480169402422
 51
99.25198305975862
  0
LINE
  5
F4DB1
  8
VISIBLE
 10
-3.051385875199972
 20
2.994377103945011
 30
0.125
 11
-3.288046532517447
 21
2.757716446627537
 31
0.125
  0
LINE
  5
F4DB2
  8
VISIBLE
 10
-3.288046532517447
 20
2.757716446627537
 30
0.125
 11
-3.199658184869128
 21
2.669328098979218
 31
0.125
  0
LINE
  5
F4DB3
  8
VISIBLE
 10
-3.199658184869128
 20
2.669328098979218
 30
0.125
 11
-3.464823227814085
 21
2.40416305603426
 31
0.125
  0
LINE
  5
F4DB4
  8
VISIBLE
 10
-3.464823227814085
 20
2.40416305603426
 30
0.125
 11
-3.416504023822275
 21
2.355843852042451
 31
0.125
  0
ARC
  5
F4DB5
  8
VISIBLE
 10
0.0
 20
0.0
 30
0.125
 40
4.150000000000001
 50
145.4118690164701
 51
169.5881309835299
  0
LINE
  5
F4DB6
  8
VISIBLE
 10
-4.150000000000001
 20
0.7499999999999999
 30
0.125
 11
-4.081666326391711
 21
0.7499999999999999
 31
0.125
  0
LINE
  5
F4DB7
  8
VISIBLE
 10
-4.150000000000001
 20
0.7499999999999999
 30
0.125
 11
-4.150000000000001
 21
0.3750000000000002
 31
0.125
  0
LINE
  5
F4DB8
  8
VISIBLE
 10
-4.150000000000001
 20
0.3750000000000002
 30
0.125
 11
-4.275000000000003
 21
0.3749999999999998
 31
0.125
  0
LINE
  5
F4DB9
  8
VISIBLE
 10
-4.275000000000003
 20
0.3749999999999998
 30
0.125
 11
-4.275000000000002
 21
0.0403112887414908
 31
0.125
  0
ARC
  5
F4DBA
  8
VISIBLE
 10
-4.219000000000002
 20
-0.0000000000000016
 30
0.125
 40
0.069
 50
215.7480169402407
 51
144.2519830597593
  0
LINE
  5
F4DBB
  8
VISIBLE
 10
-4.275000000000002
 20
-0.0403112887414942
 30
0.125
 11
-4.275000000000002
 21
-0.3749999999999999
 31
0.125
  0
LINE
  5
F4DBC
  8
VISIBLE
 10
-4.275000000000002
 20
-0.3749999999999999
 30
0.125
 11
-4.150000000000002
 21
-0.3749999999999999
 31
0.125
  0
LINE
  5
F4DBD
  8
VISIBLE
 10
-4.150000000000002
 20
-0.3749999999999999
 30
0.125
 11
-4.150000000000001
 21
-0.7500000000000029
 31
0.125
  0
LINE
  5
F4DBE
  8
VISIBLE
 10
-3.3
 20
-1.675
 30
0.125
 11
-3.700000000000001
 21
-1.675
 31
0.125
  0
LINE
  5
F4DBF
  8
VISIBLE
 10
-3.700000000000001
 20
1.675
 30
0.125
 11
-3.700000000000001
 21
-1.675
 31
0.125
  0
LINE
  5
F4DC0
  8
VISIBLE
 10
-3.3
 20
1.675
 30
0.125
 11
-3.700000000000001
 21
1.675
 31
0.125
  0
LINE
  5
F4DC1
  8
VISIBLE
 10
-3.3
 20
1.675
 30
0.125
 11
-3.3
 21
-1.675
 31
0.125
  0
LINE
  5
F4DC2
  8
VISIBLE
 10
-1.250000000000004
 20
0.3499999999999995
 30
0.125
 11
-1.250000000000004
 21
-3.150000000000001
 31
0.125
  0
ARC
  5
F4DC3
  8
VISIBLE
 10
-1.000000000000004
 20
0.3499999999999995
 30
0.125
 40
0.2499999999999999
 50
90.0
 51
180.0
  0
LINE
  5
F4DC4
  8
VISIBLE
 10
0.9999999999999958
 20
0.6
 30
0.125
 11
-1.000000000000004
 21
0.5999999999999994
 31
0.125
  0
ARC
  5
F4DC5
  8
VISIBLE
 10
0.9999999999999958
 20
0.3499999999999996
 30
0.125
 40
0.2500000000000003
 50
0.0
 51
90.0
  0
LINE
  5
F4DC6
  8
VISIBLE
 10
1.249999999999996
 20
0.3499999999999997
 30
0.125
 11
1.249999999999996
 21
-3.150000000000001
 31
0.125
  0
ARC
  5
F4DC7
  8
VISIBLE
 10
0.999999999999996
 20
-3.150000000000001
 30
0.125
 40
0.2500000000000001
 50
270.0
 51
0.0
  0
LINE
  5
F4DC8
  8
VISIBLE
 10
0.999999999999996
 20
-3.400000000000001
 30
0.125
 11
-1.000000000000004
 21
-3.400000000000002
 31
0.125
  0
ARC
  5
F4DC9
  8
VISIBLE
 10
-1.000000000000004
 20
-3.150000000000001
 30
0.125
 40
0.2500000000000006
 50
180.0
 51
270.0
  0
LINE
  5
F4DCA
  8
VISIBLE
 10
-1.624999999999999
 20
0.3344005911369011
 30
0.125
 11
-1.625
 21
-0.6655994088630991
 31
0.125
  0
LINE
  5
F4DCB
  8
VISIBLE
 10
-1.624999999999999
 20
0.3344005911369011
 30
0.125
 11
-1.499999999999999
 21
0.3344005911369011
 31
0.125
  0
LINE
  5
F4DCC
  8
VISIBLE
 10
-1.499999999999999
 20
0.3344005911369011
 30
0.125
 11
-1.5
 21
-0.6655994088630991
 31
0.125
  0
LINE
  5
F4DCD
  8
VISIBLE
 10
-1.625
 20
-0.6655994088630991
 30
0.125
 11
-1.5
 21
-0.6655994088630991
 31
0.125
  0
LINE
  5
F4DCE
  8
VISIBLE
 10
-2.15
 20
-0.6811988177261975
 30
0.125
 11
-2.15
 21
-0.806198817726198
 31
0.125
  0
LINE
  5
F4DCF
  8
VISIBLE
 10
-1.75
 20
-0.6811988177261981
 30
0.125
 11
-2.15
 21
-0.6811988177261975
 31
0.125
  0
LINE
  5
F4DD0
  8
VISIBLE
 10
-1.75
 20
-0.6811988177261981
 30
0.125
 11
-1.75
 21
-0.8061988177261974
 31
0.125
  0
LINE
  5
F4DD1
  8
VISIBLE
 10
-1.75
 20
-0.8061988177261974
 30
0.125
 11
-2.15
 21
-0.806198817726198
 31
0.125
  0
LINE
  5
F4DD2
  8
VISIBLE
 10
-1.75
 20
-3.150000000000001
 30
0.125
 11
-2.15
 21
-3.150000000000001
 31
0.125
  0
LINE
  5
F4DD3
  8
VISIBLE
 10
-1.75
 20
-3.150000000000001
 30
0.125
 11
-1.75
 21
-3.275000000000001
 31
0.125
  0
LINE
  5
F4DD4
  8
VISIBLE
 10
-1.75
 20
-3.275000000000001
 30
0.125
 11
-2.15
 21
-3.275000000000001
 31
0.125
  0
LINE
  5
F4DD5
  8
VISIBLE
 10
-2.15
 20
-3.150000000000001
 30
0.125
 11
-2.15
 21
-3.275000000000001
 31
0.125
  0
LINE
  5
F4DD6
  8
VISIBLE
 10
-1.75
 20
-2.118801182273803
 30
0.125
 11
-1.75
 21
-1.993801182273804
 31
0.125
  0
LINE
  5
F4DD7
  8
VISIBLE
 10
-1.75
 20
-2.118801182273803
 30
0.125
 11
-2.15
 21
-2.118801182273804
 31
0.125
  0
LINE
  5
F4DD8
  8
VISIBLE
 10
-2.15
 20
-2.118801182273804
 30
0.125
 11
-2.15
 21
-1.993801182273803
 31
0.125
  0
LINE
  5
F4DD9
  8
VISIBLE
 10
-1.75
 20
-1.993801182273804
 30
0.125
 11
-2.15
 21
-1.993801182273803
 31
0.125
  0
LINE
  5
F4DDA
  8
VISIBLE
 10
-1.625
 20
-3.134400591136902
 30
0.125
 11
-1.5
 21
-3.134400591136902
 31
0.125
  0
LINE
  5
F4DDB
  8
VISIBLE
 10
-1.625
 20
-3.134400591136902
 30
0.125
 11
-1.625
 21
-2.134400591136902
 31
0.125
  0
LINE
  5
F4DDC
  8
VISIBLE
 10
-1.625
 20
-2.134400591136902
 30
0.125
 11
-1.5
 21
-2.134400591136902
 31
0.125
  0
LINE
  5
F4DDD
  8
VISIBLE
 10
-1.5
 20
-3.134400591136902
 30
0.125
 11
-1.5
 21
-2.134400591136902
 31
0.125
  0
LINE
  5
F4DDE
  8
VISIBLE
 10
1.5
 20
0.3344005911369006
 30
0.125
 11
1.5
 21
-0.6655994088631004
 31
0.125
  0
LINE
  5
F4DDF
  8
VISIBLE
 10
1.625
 20
0.3344005911369006
 30
0.125
 11
1.5
 21
0.3344005911369006
 31
0.125
  0
LINE
  5
F4DE0
  8
VISIBLE
 10
1.625
 20
0.3344005911369006
 30
0.125
 11
1.625000000000001
 21
-0.6655994088631004
 31
0.125
  0
LINE
  5
F4DE1
  8
VISIBLE
 10
1.625000000000001
 20
-0.6655994088631004
 30
0.125
 11
1.5
 21
-0.6655994088631004
 31
0.125
  0
LINE
  5
F4DE2
  8
VISIBLE
 10
1.75
 20
-2.118801182273803
 30
0.125
 11
1.75
 21
-1.993801182273803
 31
0.125
  0
LINE
  5
F4DE3
  8
VISIBLE
 10
1.75
 20
-1.993801182273803
 30
0.125
 11
2.15
 21
-1.993801182273803
 31
0.125
  0
LINE
  5
F4DE4
  8
VISIBLE
 10
2.15
 20
-2.118801182273804
 30
0.125
 11
2.15
 21
-1.993801182273803
 31
0.125
  0
LINE
  5
F4DE5
  8
VISIBLE
 10
1.75
 20
-2.118801182273803
 30
0.125
 11
2.15
 21
-2.118801182273804
 31
0.125
  0
LINE
  5
F4DE6
  8
VISIBLE
 10
3.3
 20
1.675000000000001
 30
0.125
 11
3.3
 21
-1.674999999999999
 31
0.125
  0
LINE
  5
F4DE7
  8
VISIBLE
 10
3.3
 20
1.675000000000001
 30
0.125
 11
3.700000000000001
 21
1.675
 31
0.125
  0
LINE
  5
F4DE8
  8
VISIBLE
 10
3.700000000000001
 20
1.675
 30
0.125
 11
3.700000000000001
 21
-1.675
 31
0.125
  0
LINE
  5
F4DE9
  8
VISIBLE
 10
3.3
 20
-1.674999999999999
 30
0.125
 11
3.700000000000001
 21
-1.675
 31
0.125
  0
LINE
  5
F4DEA
  8
VISIBLE
 10
3.25
 20
0.5
 30
0.125
 11
3.25
 21
-0.5000000000000001
 31
0.125
  0
LINE
  5
F4DEB
  8
VISIBLE
 10
3.125000000000001
 20
-0.5000000000000001
 30
0.125
 11
3.25
 21
-0.5000000000000001
 31
0.125
  0
LINE
  5
F4DEC
  8
VISIBLE
 10
3.125000000000001
 20
0.5
 30
0.125
 11
3.125000000000001
 21
-0.5000000000000001
 31
0.125
  0
LINE
  5
F4DED
  8
VISIBLE
 10
3.125000000000001
 20
0.5
 30
0.125
 11
3.25
 21
0.5
 31
0.125
  0
LINE
  5
F4DEE
  8
VISIBLE
 10
1.75
 20
-0.6811988177261985
 30
0.125
 11
2.15
 21
-0.6811988177261992
 31
0.125
  0
LINE
  5
F4DEF
  8
VISIBLE
 10
2.15
 20
-0.6811988177261992
 30
0.125
 11
2.15
 21
-0.8061988177261996
 31
0.125
  0
LINE
  5
F4DF0
  8
VISIBLE
 10
1.75
 20
-0.8061988177261991
 30
0.125
 11
2.15
 21
-0.8061988177261996
 31
0.125
  0
LINE
  5
F4DF1
  8
VISIBLE
 10
1.75
 20
-0.6811988177261985
 30
0.125
 11
1.75
 21
-0.8061988177261991
 31
0.125
  0
LINE
  5
F4DF2
  8
VISIBLE
 10
1.750000000000001
 20
0.4749999999999986
 30
0.125
 11
2.150000000000001
 21
0.4749999999999986
 31
0.125
  0
LINE
  5
F4DF3
  8
VISIBLE
 10
2.150000000000001
 20
0.3499999999999982
 30
0.125
 11
2.150000000000001
 21
0.4749999999999986
 31
0.125
  0
LINE
  5
F4DF4
  8
VISIBLE
 10
1.750000000000001
 20
0.3499999999999978
 30
0.125
 11
2.150000000000001
 21
0.3499999999999982
 31
0.125
  0
LINE
  5
F4DF5
  8
VISIBLE
 10
1.750000000000001
 20
0.3499999999999978
 30
0.125
 11
1.750000000000001
 21
0.4749999999999986
 31
0.125
  0
LINE
  5
F4DF6
  8
VISIBLE
 10
1.125
 20
3.675000000000001
 30
0.125
 11
0.1249999999999999
 21
3.675000000000001
 31
0.125
  0
LINE
  5
F4DF7
  8
VISIBLE
 10
0.1249999999999999
 20
3.675000000000001
 30
0.125
 11
0.1249999999999999
 21
3.8
 31
0.125
  0
LINE
  5
F4DF8
  8
VISIBLE
 10
1.125
 20
3.8
 30
0.125
 11
0.1249999999999999
 21
3.8
 31
0.125
  0
LINE
  5
F4DF9
  8
VISIBLE
 10
1.125
 20
3.675000000000001
 30
0.125
 11
1.125
 21
3.8
 31
0.125
  0
LINE
  5
F4DFA
  8
VISIBLE
 10
1.25
 20
3.125000000000001
 30
0.125
 11
1.25
 21
2.525
 31
0.125
  0
LINE
  5
F4DFB
  8
VISIBLE
 10
1.25
 20
3.125000000000001
 30
0.125
 11
1.375
 21
3.125000000000001
 31
0.125
  0
LINE
  5
F4DFC
  8
VISIBLE
 10
1.375
 20
3.125000000000001
 30
0.125
 11
1.375
 21
2.525
 31
0.125
  0
LINE
  5
F4DFD
  8
VISIBLE
 10
1.25
 20
2.525
 30
0.125
 11
1.375
 21
2.525
 31
0.125
  0
LINE
  5
F4DFE
  8
VISIBLE
 10
-2.149999999999999
 20
0.3500000000000004
 30
0.125
 11
-2.149999999999999
 21
0.4750000000000008
 31
0.125
  0
LINE
  5
F4DFF
  8
VISIBLE
 10
-1.749999999999999
 20
0.4750000000000006
 30
0.125
 11
-2.149999999999999
 21
0.4750000000000008
 31
0.125
  0
LINE
  5
F4E00
  8
VISIBLE
 10
-1.749999999999999
 20
0.3500000000000004
 30
0.125
 11
-1.749999999999999
 21
0.4750000000000006
 31
0.125
  0
LINE
  5
F4E01
  8
VISIBLE
 10
-1.749999999999999
 20
0.3500000000000004
 30
0.125
 11
-2.149999999999999
 21
0.3500000000000004
 31
0.125
  0
LINE
  5
F4E02
  8
VISIBLE
 10
-1.25
 20
3.125000000000001
 30
0.125
 11
-1.375000000000008
 21
3.125000000000001
 31
0.125
  0
LINE
  5
F4E03
  8
VISIBLE
 10
-1.25
 20
3.125000000000001
 30
0.125
 11
-1.25
 21
2.525
 31
0.125
  0
LINE
  5
F4E04
  8
VISIBLE
 10
-1.25
 20
2.525
 30
0.125
 11
-1.375000000000008
 21
2.525
 31
0.125
  0
LINE
  5
F4E05
  8
VISIBLE
 10
-1.375000000000008
 20
3.125000000000001
 30
0.125
 11
-1.375000000000008
 21
2.525
 31
0.125
  0
LINE
  5
F4E06
  8
VISIBLE
 10
-1.125
 20
3.675000000000001
 30
0.125
 11
-0.1249999999999999
 21
3.675000000000001
 31
0.125
  0
LINE
  5
F4E07
  8
VISIBLE
 10
-1.125
 20
3.675000000000001
 30
0.125
 11
-1.125
 21
3.8
 31
0.125
  0
LINE
  5
F4E08
  8
VISIBLE
 10
-1.125
 20
3.8
 30
0.125
 11
-0.1249999999999999
 21
3.8
 31
0.125
  0
LINE
  5
F4E09
  8
VISIBLE
 10
-0.1249999999999999
 20
3.675000000000001
 30
0.125
 11
-0.1249999999999999
 21
3.8
 31
0.125
  0
LINE
  5
F4E0A
  8
VISIBLE
 10
1.174999999999999
 20
3.6
 30
0.125
 11
1.175
 21
1.25
 31
0.125
  0
LINE
  5
F4E0B
  8
VISIBLE
 10
1.175
 20
1.25
 30
0.125
 11
-1.175000000000001
 21
1.25
 31
0.125
  0
LINE
  5
F4E0C
  8
VISIBLE
 10
-1.175000000000001
 20
3.6
 30
0.125
 11
-1.175000000000001
 21
1.25
 31
0.125
  0
LINE
  5
F4E0D
  8
VISIBLE
 10
1.174999999999999
 20
3.6
 30
0.125
 11
-1.175000000000001
 21
3.6
 31
0.125
  0
CIRCLE
  5
F4E0E
  8
VISIBLE
 10
-2.875000000000001
 20
0.000000000000001
 30
0.125
 40
0.065
  0
CIRCLE
  5
F4E0F
  8
VISIBLE
 10
-2.875000000000001
 20
0.2500000000000003
 30
0.125
 40
0.065
  0
CIRCLE
  5
F4E10
  8
VISIBLE
 10
-2.875000000000001
 20
-0.25
 30
0.125
 40
0.065
  0
CIRCLE
  5
F4E11
  8
VISIBLE
 10
-2.875000000000001
 20
0.000000000000001
 30
-0.125
 40
0.065
210
0.0
220
0.0
230
-1.0
  0
CIRCLE
  5
F4E12
  8
VISIBLE
 10
-2.875000000000001
 20
-0.25
 30
-0.125
 40
0.065
210
0.0
220
0.0
230
-1.0
  0
CIRCLE
  5
F4E13
  8
VISIBLE
 10
-2.875000000000001
 20
0.2500000000000003
 30
-0.125
 40
0.065
210
0.0
220
0.0
230
-1.0
  0
LINE
  5
F4E14
  8
VISIBLE
 10
1.75
 20
-3.150000000000002
 30
0.125
 11
1.75
 21
-3.275000000000001
 31
0.125
  0
LINE
  5
F4E15
  8
VISIBLE
 10
1.75
 20
-3.150000000000002
 30
0.125
 11
2.15
 21
-3.150000000000001
 31
0.125
  0
LINE
  5
F4E16
  8
VISIBLE
 10
2.15
 20
-3.150000000000001
 30
0.125
 11
2.15
 21
-3.275000000000002
 31
0.125
  0
LINE
  5
F4E17
  8
VISIBLE
 10
1.75
 20
-3.275000000000001
 30
0.125
 11
2.15
 21
-3.275000000000002
 31
0.125
  0
LINE
  5
F4E18
  8
VISIBLE
 10
1.625
 20
-3.134400591136902
 30
0.125
 11
1.625000000000001
 21
-2.134400591136902
 31
0.125
  0
LINE
  5
F4E19
  8
VISIBLE
 10
1.625
 20
-3.134400591136902
 30
0.125
 11
1.5
 21
-3.134400591136902
 31
0.125
  0
LINE
  5
F4E1A
  8
VISIBLE
 10
1.5
 20
-3.134400591136902
 30
0.125
 11
1.5
 21
-2.134400591136902
 31
0.125
  0
LINE
  5
F4E1B
  8
VISIBLE
 10
1.625000000000001
 20
-2.134400591136902
 30
0.125
 11
1.5
 21
-2.134400591136902
 31
0.125
  0
ENDSEC
  0
EOF
