  0
SECTION
  2
HEADER
  9
$ACADVER
  1
AC1009
  9
$DWGCODEPAGE
  3
undefined
  9
$INSBASE
 10
0.0
 20
0.0
 30
0.0
  9
$EXTMIN
 10
1.000000000000000E+20
 20
1.000000000000000E+20
 30
1.000000000000000E+20
  9
$EXTMAX
 10
-1.000000000000000E+20
 20
-1.000000000000000E+20
 30
-1.000000000000000E+20
  9
$LIMMIN
 10
0.0
 20
0.0
  9
$LIMMAX
 10
12.0
 20
9.0
  9
$ORTHOMODE
 70
     0
  9
$REGENMODE
 70
     1
  9
$FILLMODE
 70
     1
  9
$QTEXTMODE
 70
     0
  9
$MIRRTEXT
 70
     1
  9
$DRAGMODE
 70
     2
  9
$LTSCALE
 40
1.0
  9
$OSMODE
 70
    37
  9
$ATTMODE
 70
     1
  9
$TEXTSIZE
 40
0.2
  9
$TRACEWID
 40
0.05
  9
$TEXTSTYLE
  7
STANDARD
  9
$CLAYER
  8
0
  9
$CELTYPE
  6
BYLAYER
  9
$CECOLOR
 62
   256
  9
$DIMSCALE
 40
1.0
  9
$DIMASZ
 40
0.18
  9
$DIMEXO
 40
0.0625
  9
$DIMDLI
 40
0.38
  9
$DIMRND
 40
0.0
  9
$DIMDLE
 40
0.0
  9
$DIMEXE
 40
0.18
  9
$DIMTP
 40
0.0
  9
$DIMTM
 40
0.0
  9
$DIMTXT
 40
0.18
  9
$DIMCEN
 40
0.09
  9
$DIMTSZ
 40
0.0
  9
$DIMTOL
 70
     0
  9
$DIMLIM
 70
     0
  9
$DIMTIH
 70
     1
  9
$DIMTOH
 70
     1
  9
$DIMSE1
 70
     0
  9
$DIMSE2
 70
     0
  9
$DIMTAD
 70
     0
  9
$DIMZIN
 70
     0
  9
$DIMBLK
  1

  9
$DIMASO
 70
     1
  9
$DIMSHO
 70
     1
  9
$DIMPOST
  1

  9
$DIMAPOST
  1

  9
$DIMALT
 70
     0
  9
$DIMALTD
 70
     2
  9
$DIMALTF
 40
25.4
  9
$DIMLFAC
 40
1.0
  9
$DIMTOFL
 70
     0
  9
$DIMTVP
 40
0.0
  9
$DIMTIX
 70
     0
  9
$DIMSOXD
 70
     0
  9
$DIMSAH
 70
     0
  9
$DIMBLK1
  1

  9
$DIMBLK2
  1

  9
$DIMSTYLE
  2
STANDARD
  9
$DIMCLRD
 70
     0
  9
$DIMCLRE
 70
     0
  9
$DIMCLRT
 70
     0
  9
$DIMTFAC
 40
1.0
  9
$DIMGAP
 40
0.09
  9
$LUNITS
 70
     2
  9
$LUPREC
 70
     4
  9
$SKETCHINC
 40
0.1
  9
$FILLETRAD
 40
0.5
  9
$AUNITS
 70
     0
  9
$AUPREC
 70
     0
  9
$MENU
  1
.
  9
$ELEVATION
 40
0.0
  9
$PELEVATION
 40
0.0
  9
$THICKNESS
 40
0.0
  9
$LIMCHECK
 70
     0
  9
$CHAMFERA
 40
0.0
  9
$CHAMFERB
 40
0.0
  9
$SKPOLY
 70
     0
  9
$TDCREATE
 40
2457185.173668982
  9
$TDUPDATE
 40
2457185.173668982
  9
$TDINDWG
 40
0.0000000116
  9
$TDUSRTIMER
 40
0.0000000116
  9
$USRTIMER
 70
     1
  9
$ANGBASE
 50
0.0
  9
$ANGDIR
 70
     0
  9
$PDMODE
 70
     0
  9
$PDSIZE
 40
0.0
  9
$PLINEWID
 40
0.0
  9
$COORDS
 70
     1
  9
$SPLFRAME
 70
     0
  9
$SPLINETYPE
 70
     6
  9
$SPLINESEGS
 70
     8
  9
$ATTDIA
 70
     0
  9
$ATTREQ
 70
     1
  9
$HANDLING
 70
     1
  9
$HANDSEED
  5
10000102
  9
$SURFTAB1
 70
     6
  9
$SURFTAB2
 70
     6
  9
$SURFTYPE
 70
     6
  9
$SURFU
 70
     6
  9
$SURFV
 70
     6
  9
$UCSNAME
  2

  9
$UCSORG
 10
0.0
 20
0.0
 30
0.0
  9
$UCSXDIR
 10
1.0
 20
0.0
 30
0.0
  9
$UCSYDIR
 10
0.0
 20
1.0
 30
0.0
  9
$PUCSNAME
  2

  9
$PUCSORG
 10
0.0
 20
0.0
 30
0.0
  9
$PUCSXDIR
 10
1.0
 20
0.0
 30
0.0
  9
$PUCSYDIR
 10
0.0
 20
1.0
 30
0.0
  9
$USERI1
 70
     0
  9
$USERI2
 70
     0
  9
$USERI3
 70
     0
  9
$USERI4
 70
     0
  9
$USERI5
 70
     0
  9
$USERR1
 40
0.0
  9
$USERR2
 40
0.0
  9
$USERR3
 40
0.0
  9
$USERR4
 40
0.0
  9
$USERR5
 40
0.0
  9
$WORLDVIEW
 70
     1
  9
$SHADEDGE
 70
     3
  9
$SHADEDIF
 70
    70
  9
$TILEMODE
 70
     1
  9
$MAXACTVP
 70
    64
  9
$PLIMCHECK
 70
     0
  9
$PEXTMIN
 10
1.000000000000000E+20
 20
1.000000000000000E+20
 30
1.000000000000000E+20
  9
$PEXTMAX
 10
-1.000000000000000E+20
 20
-1.000000000000000E+20
 30
-1.000000000000000E+20
  9
$PLIMMIN
 10
0.0
 20
0.0
  9
$PLIMMAX
 10
12.0
 20
9.0
  9
$UNITMODE
 70
     0
  9
$VISRETAIN
 70
     1
  9
$PLINEGEN
 70
     0
  9
$PSLTSCALE
 70
     1
  0
ENDSEC
  0
SECTION
  2
TABLES
  0
TABLE
  2
VPORT
 70
     1
  0
VPORT
  2
*ACTIVE
 70
     0
 10
0.0
 20
0.0
 11
1.0
 21
1.0
 12
10.42990654205607
 22
4.5
 13
0.0
 23
0.0
 14
0.5
 24
0.5
 15
0.5
 25
0.5
 16
0.0
 26
0.0
 36
1.0
 17
0.0
 27
0.0
 37
0.0
 40
9.0
 41
1.972972972850329
 42
50.0
 43
0.0
 44
0.0
 50
0.0
 51
0.0
 71
     0
 72
   100
 73
     1
 74
     3
 75
     0
 76
     0
 77
     0
 78
     0
  0
ENDTAB
  0
TABLE
  2
LTYPE
 70
     5
  0
LTYPE
  2
CONTINUOUS
 70
     0
  3
Solid line
 72
    65
 73
     0
 40
0.0
  0
LTYPE
  2
HIDDEN
 70
     0
  3
Hidden line ____ ____ ____ ____ 
 72
    83
 73
     2
 40
0.125
 49
0.25
 49
-0.125
  0
LTYPE
  2
PHANTOM
 70
     0
  3
Phantom line ______  __  __  ______  __  __
 72
    83
 73
     6
 40
0.5
 49
0.625
 49
-0.125
 49
0.125
 49
-0.125
 49
0.125
 49
-0.125
  0
LTYPE
  2
CENTER
 70
     0
  3
Center line ____ _ ____ _ ____ _
 72
    83
 73
     4
 40
0.5
 49
0.625
 49
-0.125
 49
0.125
 49
-0.125
  0
LTYPE
  2
DASHED
 70
     0
  3
Dashed line __ __ __ __
 72
    83
 73
     2
 40
0.25
 49
0.5
 49
-0.25
  0
ENDTAB
  0
TABLE
  2
LAYER
 70
     5
  0
LAYER
  2
0
 70
     0
 62
     7
  6
CONTINUOUS
  0
LAYER
  2
HIDDEN
 70
     0
 62
    -7
  6
HIDDEN
  0
LAYER
  2
VISIBLE
 70
     0
 62
     7
  6
CONTINUOUS
  0
LAYER
  2
TANGENT_LINES
 70
     0
 62
     7
  6
CONTINUOUS
  0
LAYER
  2
INVISIBLE_LINES
 70
     0
 62
    -7
  6
CONTINUOUS
  0
ENDTAB
  0
TABLE
  2
STYLE
 70
     2
  0
STYLE
  2
STANDARD
 70
     0
 40
0.0
 41
1.0
 50
0.0
 71
     0
 42
0.2
  3
txt
  4

  0
STYLE
  2
ODATTFSTYLE
 70
     0
 40
0.0
 41
1.0
 50
0.0
 71
     0
 42
0.2
  3
Verdana.ttf
  4

  0
ENDTAB
  0
TABLE
  2
VIEW
 70
     0
  0
ENDTAB
  0
TABLE
  2
UCS
 70
     0
  0
ENDTAB
  0
TABLE
  2
APPID
 70
     1
  0
APPID
  2
ACAD
 70
     0
  0
ENDTAB
  0
TABLE
  2
DIMSTYLE
 70
     1
  0
DIMSTYLE
  2
STANDARD
 70
     0
  3

  4

  5

  6

  7

 40
1.0
 41
0.18
 42
0.0625
 43
0.38
 44
0.18
 45
0.0
 46
0.0
 47
0.0
 48
0.0
140
0.18
141
0.09
142
0.0
143
25.4
144
1.0
145
0.0
146
1.0
147
0.09
 71
     0
 72
     0
 73
     1
 74
     1
 75
     0
 76
     0
 77
     0
 78
     0
170
     0
171
     2
172
     0
173
     0
174
     0
175
     0
176
     0
177
     0
178
     0
  0
ENDTAB
  0
ENDSEC
  0
SECTION
  2
BLOCKS
  0
BLOCK
  8
0
  2
$MODEL_SPACE
 70
     0
 10
0.0
 20
0.0
 30
0.0
  3
$MODEL_SPACE
  1

  0
ENDBLK
  5
21
  8
0
  0
BLOCK
 67
     1
  8
0
  2
$PAPER_SPACE
 70
     0
 10
0.0
 20
0.0
 30
0.0
  3
$PAPER_SPACE
  1

  0
ENDBLK
  5
1D
 67
     1
  8
0
  0
ENDSEC
  0
SECTION
  2
ENTITIES
  0
LINE
  5
F4B15
  8
VISIBLE
 10
-15.88629925495058
 20
-0.040311288741495
 30
0.125
 11
-15.88629925495058
 21
-0.3749999999999993
 31
0.125
  0
ARC
  5
F4B16
  8
VISIBLE
 10
15.94229925495057
 20
-0.0000000000000016
 30
-0.125
 40
0.069
 50
215.7480169402417
 51
144.2519830597584
210
0.0
220
0.0
230
-1.0
  0
LINE
  5
F4B17
  8
VISIBLE
 10
-15.88629925495058
 20
0.3749999999999998
 30
0.125
 11
-15.88629925495058
 21
0.0403112887414916
 31
0.125
  0
LINE
  5
F4B18
  8
VISIBLE
 10
-16.01129925495058
 20
0.3750000000000002
 30
0.125
 11
-15.88629925495058
 21
0.3749999999999998
 31
0.125
  0
LINE
  5
F4B19
  8
VISIBLE
 10
-16.01129925495058
 20
0.7499999999999999
 30
0.125
 11
-16.01129925495058
 21
0.3750000000000002
 31
0.125
  0
LINE
  5
F4B1A
  8
VISIBLE
 10
-16.01129925495058
 20
0.7499999999999999
 30
0.125
 11
-16.07963292855887
 21
0.7499999999999999
 31
0.125
  0
ARC
  5
F4B1B
  8
VISIBLE
 10
20.16129925495058
 20
0.0
 30
-0.125
 40
4.150000000000001
 50
145.4118690164702
 51
169.5881309835299
210
0.0
220
0.0
230
-1.0
  0
LINE
  5
F4B1C
  8
VISIBLE
 10
-16.69647602713649
 20
2.404163056034263
 30
0.125
 11
-16.7447952311283
 21
2.35584385204245
 31
0.125
  0
LINE
  5
F4B1D
  8
VISIBLE
 10
-16.96164107008144
 20
2.669328098979218
 30
0.125
 11
-16.69647602713649
 21
2.404163056034263
 31
0.125
  0
LINE
  5
F4B1E
  8
VISIBLE
 10
-16.87325272243313
 20
2.757716446627535
 30
0.125
 11
-16.96164107008144
 21
2.669328098979218
 31
0.125
  0
LINE
  5
F4B1F
  8
VISIBLE
 10
-17.1099133797506
 20
2.994377103945011
 30
0.125
 11
-16.87325272243313
 21
2.757716446627535
 31
0.125
  0
ARC
  5
F4B20
  8
VISIBLE
 10
17.17801574512453
 20
2.983283509826042
 30
-0.125
 40
0.069
 50
170.7480169402401
 51
99.25198305975887
210
0.0
220
0.0
230
-1.0
  0
LINE
  5
F4B21
  8
VISIBLE
 10
-17.40358280832304
 20
3.288046532517448
 30
0.125
 11
-17.16692215100556
 21
3.051385875199968
 31
0.125
  0
LINE
  5
F4B22
  8
VISIBLE
 10
-17.49197115597136
 20
3.199658184869129
 30
0.125
 11
-17.40358280832304
 21
3.288046532517448
 31
0.125
  0
LINE
  5
F4B23
  8
VISIBLE
 10
-17.75713619891631
 20
3.464823227814086
 30
0.125
 11
-17.49197115597136
 21
3.199658184869129
 31
0.125
  0
LINE
  5
F4B24
  8
VISIBLE
 10
-17.75713619891631
 20
3.464823227814086
 30
0.125
 11
-17.80545540290812
 21
3.416504023822274
 31
0.125
  0
ARC
  5
F4B25
  8
VISIBLE
 10
20.16129925495058
 20
0.0
 30
-0.125
 40
4.150000000000001
 50
100.4118690164701
 51
124.5881309835299
210
0.0
220
0.0
230
-1.0
  0
LINE
  5
F4B26
  8
VISIBLE
 10
-19.41129925495057
 20
4.150000000000002
 30
0.125
 11
-19.41129925495057
 21
4.08166632639171
 31
0.125
  0
LINE
  5
F4B27
  8
VISIBLE
 10
-19.78629925495058
 20
4.150000000000002
 30
0.125
 11
-19.41129925495057
 21
4.150000000000002
 31
0.125
  0
LINE
  5
F4B28
  8
VISIBLE
 10
-19.78629925495058
 20
4.275000000000002
 30
0.125
 11
-19.78629925495058
 21
4.150000000000002
 31
0.125
  0
LINE
  5
F4B29
  8
VISIBLE
 10
-20.12098796620908
 20
4.275000000000002
 30
0.125
 11
-19.78629925495058
 21
4.275000000000002
 31
0.125
  0
ARC
  5
F4B2A
  8
VISIBLE
 10
20.16129925495058
 20
4.219000000000002
 30
-0.125
 40
0.069
 50
125.7480169402427
 51
54.25198305975963
210
0.0
220
0.0
230
-1.0
  0
LINE
  5
F4B2B
  8
VISIBLE
 10
-20.53629925495058
 20
4.275000000000002
 30
0.125
 11
-20.20161054369207
 21
4.275000000000002
 31
0.125
  0
LINE
  5
F4B2C
  8
VISIBLE
 10
-20.53629925495058
 20
4.15
 30
0.125
 11
-20.53629925495058
 21
4.275000000000002
 31
0.125
  0
LINE
  5
F4B2D
  8
VISIBLE
 10
-20.91129925495058
 20
4.150000000000002
 30
0.125
 11
-20.53629925495058
 21
4.15
 31
0.125
  0
LINE
  5
F4B2E
  8
VISIBLE
 10
-20.91129925495058
 20
4.150000000000002
 30
0.125
 11
-20.91129925495058
 21
4.081666326391711
 31
0.125
  0
ARC
  5
F4B2F
  8
VISIBLE
 10
20.16129925495058
 20
0.0
 30
-0.125
 40
4.150000000000001
 50
55.41186901647013
 51
79.58813098352992
210
0.0
220
0.0
230
-1.0
  0
LINE
  5
F4B30
  8
VISIBLE
 10
-22.56546231098484
 20
3.464823227814089
 30
0.125
 11
-22.51714310699303
 21
3.416504023822275
 31
0.125
  0
LINE
  5
F4B31
  8
VISIBLE
 10
-22.8306273539298
 20
3.199658184869131
 30
0.125
 11
-22.56546231098484
 21
3.464823227814089
 31
0.125
  0
LINE
  5
F4B32
  8
VISIBLE
 10
-22.91901570157811
 20
3.288046532517449
 30
0.125
 11
-22.8306273539298
 21
3.199658184869131
 31
0.125
  0
LINE
  5
F4B33
  8
VISIBLE
 10
-23.15567635889558
 20
3.051385875199975
 30
0.125
 11
-22.91901570157811
 21
3.288046532517449
 31
0.125
  0
ARC
  5
F4B34
  8
VISIBLE
 10
23.14458276477662
 20
2.983283509826049
 30
-0.125
 40
0.069
 50
80.74801694024687
 51
9.251983059755307
210
0.0
220
0.0
230
-1.0
  0
LINE
  5
F4B35
  8
VISIBLE
 10
-23.44934578746803
 20
2.757716446627535
 30
0.125
 11
-23.21268513015055
 21
2.994377103945013
 31
0.125
  0
LINE
  5
F4B36
  8
VISIBLE
 10
-23.36095743981971
 20
2.669328098979218
 30
0.125
 11
-23.44934578746803
 21
2.757716446627535
 31
0.125
  0
LINE
  5
F4B37
  8
VISIBLE
 10
-23.62612248276466
 20
2.404163056034265
 30
0.125
 11
-23.36095743981971
 21
2.669328098979218
 31
0.125
  0
LINE
  5
F4B38
  8
VISIBLE
 10
-23.62612248276466
 20
2.404163056034265
 30
0.125
 11
-23.57780327877285
 21
2.355843852042451
 31
0.125
  0
ARC
  5
F4B39
  8
VISIBLE
 10
20.16129925495058
 20
0.0
 30
-0.125
 40
4.150000000000001
 50
10.41186901647013
 51
34.58813098352987
210
0.0
220
0.0
230
-1.0
  0
LINE
  5
F4B3A
  8
VISIBLE
 10
-24.31129925495058
 20
0.7500000000000034
 30
0.125
 11
-24.24296558134229
 21
0.7500000000000034
 31
0.125
  0
LINE
  5
F4B3B
  8
VISIBLE
 10
-24.31129925495058
 20
0.3750000000000004
 30
0.125
 11
-24.31129925495058
 21
0.7500000000000034
 31
0.125
  0
LINE
  5
F4B3C
  8
VISIBLE
 10
-24.43629925495058
 20
0.3750000000000005
 30
0.125
 11
-24.31129925495058
 21
0.3750000000000004
 31
0.125
  0
LINE
  5
F4B3D
  8
VISIBLE
 10
-24.43629925495058
 20
0.0403112887414986
 30
0.125
 11
-24.43629925495058
 21
0.3750000000000005
 31
0.125
  0
ARC
  5
F4B3E
  8
VISIBLE
 10
24.38029925495058
 20
0.0000000000000022
 30
-0.125
 40
0.069
 50
35.74801694024459
 51
324.2519830597555
210
0.0
220
0.0
230
-1.0
  0
LINE
  5
F4B3F
  8
VISIBLE
 10
-24.43629925495057
 20
-0.3749999999999998
 30
0.125
 11
-24.43629925495058
 21
-0.0403112887414941
 31
0.125
  0
LINE
  5
F4B40
  8
VISIBLE
 10
-24.31129925495058
 20
-0.3749999999999998
 30
0.125
 11
-24.43629925495057
 21
-0.3749999999999998
 31
0.125
  0
LINE
  5
F4B41
  8
VISIBLE
 10
-24.31129925495058
 20
-0.7499999999999993
 30
0.125
 11
-24.31129925495058
 21
-0.3749999999999998
 31
0.125
  0
LINE
  5
F4B42
  8
VISIBLE
 10
-24.31129925495058
 20
-0.7499999999999993
 30
0.125
 11
-24.24296558134229
 21
-0.7499999999999993
 31
0.125
  0
ARC
  5
F4B43
  8
VISIBLE
 10
20.16129925495058
 20
0.0
 30
-0.125
 40
4.150000000000001
 50
325.4118690164701
 51
349.5881309835299
210
0.0
220
0.0
230
-1.0
  0
LINE
  5
F4B44
  8
VISIBLE
 10
-23.62612248276466
 20
-2.404163056034263
 30
0.125
 11
-23.57780327877285
 21
-2.355843852042452
 31
0.125
  0
LINE
  5
F4B45
  8
VISIBLE
 10
-23.36095743981971
 20
-2.669328098979218
 30
0.125
 11
-23.62612248276466
 21
-2.404163056034263
 31
0.125
  0
LINE
  5
F4B46
  8
VISIBLE
 10
-23.44934578746802
 20
-2.757716446627535
 30
0.125
 11
-23.36095743981971
 21
-2.669328098979218
 31
0.125
  0
LINE
  5
F4B47
  8
VISIBLE
 10
-23.21268513015055
 20
-2.994377103945012
 30
0.125
 11
-23.44934578746802
 21
-2.757716446627535
 31
0.125
  0
ARC
  5
F4B48
  8
VISIBLE
 10
23.14458276477662
 20
-2.983283509826042
 30
-0.125
 40
0.069
 50
350.7480169402403
 51
279.2519830597619
210
0.0
220
0.0
230
-1.0
  0
LINE
  5
F4B49
  8
VISIBLE
 10
-22.91901570157811
 20
-3.288046532517447
 30
0.125
 11
-23.15567635889559
 21
-3.051385875199967
 31
0.125
  0
LINE
  5
F4B4A
  8
VISIBLE
 10
-22.83062735392979
 20
-3.199658184869129
 30
0.125
 11
-22.91901570157811
 21
-3.288046532517447
 31
0.125
  0
LINE
  5
F4B4B
  8
VISIBLE
 10
-22.56546231098484
 20
-3.464823227814086
 30
0.125
 11
-22.83062735392979
 21
-3.199658184869129
 31
0.125
  0
LINE
  5
F4B4C
  8
VISIBLE
 10
-22.56546231098484
 20
-3.464823227814086
 30
0.125
 11
-22.51714310699303
 21
-3.416504023822275
 31
0.125
  0
ARC
  5
F4B4D
  8
VISIBLE
 10
20.16129925495058
 20
0.0
 30
-0.125
 40
4.150000000000001
 50
280.4118690164701
 51
304.5881309835299
210
0.0
220
0.0
230
-1.0
  0
LINE
  5
F4B4E
  8
VISIBLE
 10
-20.91129925495058
 20
-4.150000000000002
 30
0.125
 11
-20.91129925495058
 21
-4.08166632639171
 31
0.125
  0
LINE
  5
F4B4F
  8
VISIBLE
 10
-20.53629925495058
 20
-4.150000000000002
 30
0.125
 11
-20.91129925495058
 21
-4.150000000000002
 31
0.125
  0
LINE
  5
F4B50
  8
VISIBLE
 10
-20.53629925495058
 20
-4.275000000000002
 30
0.125
 11
-20.53629925495058
 21
-4.150000000000002
 31
0.125
  0
LINE
  5
F4B51
  8
VISIBLE
 10
-20.20161054369208
 20
-4.275000000000002
 30
0.125
 11
-20.53629925495058
 21
-4.275000000000002
 31
0.125
  0
ARC
  5
F4B52
  8
VISIBLE
 10
20.16129925495058
 20
-4.219000000000002
 30
-0.125
 40
0.069
 50
305.7480169402427
 51
234.2519830597573
210
0.0
220
0.0
230
-1.0
  0
LINE
  5
F4B53
  8
VISIBLE
 10
-19.78629925495058
 20
-4.275000000000002
 30
0.125
 11
-20.12098796620909
 21
-4.275000000000002
 31
0.125
  0
LINE
  5
F4B54
  8
VISIBLE
 10
-19.78629925495058
 20
-4.15
 30
0.125
 11
-19.78629925495058
 21
-4.275000000000002
 31
0.125
  0
LINE
  5
F4B55
  8
VISIBLE
 10
-19.41129925495058
 20
-4.150000000000002
 30
0.125
 11
-19.78629925495058
 21
-4.15
 31
0.125
  0
LINE
  5
F4B56
  8
VISIBLE
 10
-19.41129925495058
 20
-4.150000000000002
 30
0.125
 11
-19.41129925495058
 21
-4.081666326391711
 31
0.125
  0
ARC
  5
F4B57
  8
VISIBLE
 10
20.16129925495058
 20
0.0
 30
-0.125
 40
4.150000000000001
 50
235.4118690164701
 51
259.5881309835299
210
0.0
220
0.0
230
-1.0
  0
LINE
  5
F4B58
  8
VISIBLE
 10
-17.75713619891632
 20
-3.464823227814089
 30
0.125
 11
-17.80545540290813
 21
-3.416504023822276
 31
0.125
  0
LINE
  5
F4B59
  8
VISIBLE
 10
-17.49197115597136
 20
-3.199658184869131
 30
0.125
 11
-17.75713619891632
 21
-3.464823227814089
 31
0.125
  0
LINE
  5
F4B5A
  8
VISIBLE
 10
-17.40358280832304
 20
-3.288046532517449
 30
0.125
 11
-17.49197115597136
 21
-3.199658184869131
 31
0.125
  0
LINE
  5
F4B5B
  8
VISIBLE
 10
-17.16692215100557
 20
-3.051385875199975
 30
0.125
 11
-17.40358280832304
 21
-3.288046532517449
 31
0.125
  0
ARC
  5
F4B5C
  8
VISIBLE
 10
17.17801574512453
 20
-2.983283509826049
 30
-0.125
 40
0.069
 50
260.748016940244
 51
189.2519830597576
210
0.0
220
0.0
230
-1.0
  0
LINE
  5
F4B5D
  8
VISIBLE
 10
-16.87325272243313
 20
-2.757716446627537
 30
0.125
 11
-17.10991337975061
 21
-2.994377103945015
 31
0.125
  0
LINE
  5
F4B5E
  8
VISIBLE
 10
-16.96164107008145
 20
-2.669328098979218
 30
0.125
 11
-16.87325272243313
 21
-2.757716446627537
 31
0.125
  0
LINE
  5
F4B5F
  8
VISIBLE
 10
-16.69647602713649
 20
-2.404163056034265
 30
0.125
 11
-16.96164107008145
 21
-2.669328098979218
 31
0.125
  0
LINE
  5
F4B60
  8
VISIBLE
 10
-16.69647602713649
 20
-2.404163056034265
 30
0.125
 11
-16.7447952311283
 21
-2.355843852042453
 31
0.125
  0
ARC
  5
F4B61
  8
VISIBLE
 10
20.16129925495058
 20
0.0
 30
-0.125
 40
4.150000000000001
 50
190.4118690164701
 51
214.5881309835299
210
0.0
220
0.0
230
-1.0
  0
LINE
  5
F4B62
  8
VISIBLE
 10
-16.01129925495058
 20
-0.7500000000000004
 30
0.125
 11
-16.07963292855887
 21
-0.7500000000000029
 31
0.125
  0
LINE
  5
F4B63
  8
VISIBLE
 10
-16.01129925495058
 20
-0.3749999999999999
 30
0.125
 11
-16.01129925495058
 21
-0.7500000000000004
 31
0.125
  0
LINE
  5
F4B64
  8
VISIBLE
 10
-15.88629925495058
 20
-0.3749999999999993
 30
0.125
 11
-16.01129925495058
 21
-0.3749999999999999
 31
0.125
  0
LINE
  5
F4B65
  8
VISIBLE
 10
-22.66129925495058
 20
-1.0
 30
0.125
 11
-22.66129925495058
 21
-2.0
 31
0.125
  0
LINE
  5
F4B66
  8
VISIBLE
 10
-22.66129925495058
 20
-1.0
 30
0.125
 11
-17.66129925495058
 21
-1.0
 31
0.125
  0
LINE
  5
F4B67
  8
VISIBLE
 10
-17.66129925495058
 20
-1.0
 30
0.125
 11
-17.66129925495058
 21
-2.0
 31
0.125
  0
LINE
  5
F4B68
  8
VISIBLE
 10
-22.66129925495058
 20
-2.0
 30
0.125
 11
-17.66129925495058
 21
-2.0
 31
0.125
  0
POLYLINE
  5
F4B69
  8
VISIBLE
 66
     1
 10
0.0
 20
0.0
 30
0.125
 70
     1
  0
VERTEX
  5
100000DF
  8
VISIBLE
 10
-18.66129925495058
 20
3.0
 30
0.125
  0
VERTEX
  5
100000E0
  8
VISIBLE
 10
-18.84690392208363
 20
2.973579760554442
 30
0.125
  0
VERTEX
  5
100000E1
  8
VISIBLE
 10
-19.02537590594706
 20
2.895334357203019
 30
0.125
  0
VERTEX
  5
100000E2
  8
VISIBLE
 10
-19.18985662828923
 20
2.768270716916
 30
0.125
  0
VERTEX
  5
100000E3
  8
VISIBLE
 10
-19.33402518719238
 20
2.597271824131503
 30
0.125
  0
VERTEX
  5
100000E4
  8
VISIBLE
 10
-19.45234126578854
 20
2.388909070401953
 30
0.125
  0
VERTEX
  5
100000E5
  8
VISIBLE
 10
-19.54025804352966
 20
2.151189719501998
 30
0.125
  0
VERTEX
  5
100000E6
  8
VISIBLE
 10
-19.59439692795145
 20
1.893249192772176
 30
0.125
  0
VERTEX
  5
100000E7
  8
VISIBLE
 10
-19.61267739208703
 20
1.625
 30
0.125
  0
VERTEX
  5
100000E8
  8
VISIBLE
 10
-19.59439692795145
 20
1.356750807227824
 30
0.125
  0
VERTEX
  5
100000E9
  8
VISIBLE
 10
-19.54025804352966
 20
1.098810280498001
 30
0.125
  0
VERTEX
  5
100000EA
  8
VISIBLE
 10
-19.45234126578854
 20
0.861090929598047
 30
0.125
  0
VERTEX
  5
100000EB
  8
VISIBLE
 10
-19.33402518719238
 20
0.6527281758684969
 30
0.125
  0
VERTEX
  5
100000EC
  8
VISIBLE
 10
-19.18985662828923
 20
0.4817292830839996
 30
0.125
  0
VERTEX
  5
100000ED
  8
VISIBLE
 10
-19.02537590594706
 20
0.3546656427969801
 30
0.125
  0
VERTEX
  5
100000EE
  8
VISIBLE
 10
-18.84690392208363
 20
0.2764202394455575
 30
0.125
  0
VERTEX
  5
100000EF
  8
VISIBLE
 10
-18.66129925495058
 20
0.2499999999999996
 30
0.125
  0
VERTEX
  5
100000F0
  8
VISIBLE
 10
-18.47569458781752
 20
0.2764202394455579
 30
0.125
  0
VERTEX
  5
100000F1
  8
VISIBLE
 10
-18.2972226039541
 20
0.354665642796981
 30
0.125
  0
VERTEX
  5
100000F2
  8
VISIBLE
 10
-18.13274188161192
 20
0.481729283084001
 30
0.125
  0
VERTEX
  5
100000F3
  8
VISIBLE
 10
-17.98857332270877
 20
0.6527281758684984
 30
0.125
  0
VERTEX
  5
100000F4
  8
VISIBLE
 10
-17.87025724411262
 20
0.8610909295980487
 30
0.125
  0
VERTEX
  5
100000F5
  8
VISIBLE
 10
-17.7823404663715
 20
1.098810280498004
 30
0.125
  0
VERTEX
  5
100000F6
  8
VISIBLE
 10
-17.7282015819497
 20
1.356750807227826
 30
0.125
  0
VERTEX
  5
100000F7
  8
VISIBLE
 10
-17.70992111781413
 20
1.625000000000003
 30
0.125
  0
VERTEX
  5
100000F8
  8
VISIBLE
 10
-17.7282015819497
 20
1.89324919277218
 30
0.125
  0
VERTEX
  5
100000F9
  8
VISIBLE
 10
-17.7823404663715
 20
2.151189719502002
 30
0.125
  0
VERTEX
  5
100000FA
  8
VISIBLE
 10
-17.87025724411262
 20
2.388909070401957
 30
0.125
  0
VERTEX
  5
100000FB
  8
VISIBLE
 10
-17.98857332270877
 20
2.597271824131506
 30
0.125
  0
VERTEX
  5
100000FC
  8
VISIBLE
 10
-18.13274188161193
 20
2.768270716916002
 30
0.125
  0
VERTEX
  5
100000FD
  8
VISIBLE
 10
-18.2972226039541
 20
2.895334357203021
 30
0.125
  0
VERTEX
  5
100000FE
  8
VISIBLE
 10
-18.47569458781753
 20
2.973579760554443
 30
0.125
  0
SEQEND
  5
10000101
  8
VISIBLE
  0
CIRCLE
  5
F4B6A
  8
VISIBLE
 10
-21.41129925495057
 20
1.218245836551856
 30
0.125
 40
1.0
  0
ENDSEC
  0
EOF
